<svg viewBox="622.6861572202157 -8.33928949165869 442.777685559569 479.6785789833174" width="442.777685559569" height="479.6785789833174" version="1.1" baseProfile="full" xmlns="http://www.w3.org/2000/svg"><style id="js-draw-style-sheet">path{stroke-linecap:round;stroke-linejoin:round;}</style><path d="M818,234m0,0q3-70 -4-131q-8-68 3-68q65,0 66,1q2,4 -11,53q-9,36 -2,111q3,34 -2,101q-2,28 5,84q3,23 3,71q0,4 -40-1q-13-1 -25-1q-4,0 2-40q2-10 9-190q1-21 -5-62" fill="#00000000" stroke="#632b63" stroke-width="22.678578983317376"></path><path d="M853,56M853,56Q848,150 854,189Q854,189 855,188Q857,184 849,107Q844,61 844,49Q844,28 838,112Q837,132 826,53Q821,18 839,159Q843,191 846,61Q846,55 866,42Q878,34 826,57Q826,57 837,58Q850,59 841,152Q837,195 853,227Q866,252 855,119Q853,98 862,56Q873,3 834,216Q817,306 829,300Q830,299 840,242Q846,207 846,137Q846,104 855,237Q858,282 843,371Q843,372 844,373Q850,380 843,282Q842,271 843,250Q845,200 834,399Q834,400 837,399Q842,397 836,312Q835,293 832,255Q830,223 827,351Q825,445 834,448Q845,452 870,442Q871,442 862,422Q844,382 848,327Q848,325 847,332Q846,336 845,433Q845,440 847,438Q853,433 853,389Q853,377 857,425Q858,431 853,444Q849,455 858,408Q864,379 852,319Q849,304 855,252Q855,249 855,242" fill="#00000000" stroke="#803380" stroke-width="22.678578983317376"></path><path d="M640.575,203m0,0q209.975,14 275.65,9q37-3 111.925-4q14.8,0 14.8,11q0,22 1.85,65q0,5 -41.625-2q-35.15-6 -107.3-4q-61.975,2 -185.925-3q-21.275-1 -63.825,9q-5.55,1 -5.55-51q0-42 4.625-40q.925,0 3.7,2" fill="#00000000" stroke="#632b63" stroke-width="20.977685559568563"></path><path d="M664.625,226m0,0q-9.25,14 -8.325,19q2.775,19 4.625,19q5.55,0 15.725-21q8.325-16 27.75-23q20.35-7 -59.2,25q-12.025,5 37.925-7q4.625-1 51.8-1q24.05,0 -70.3,12q-1.85,0 .925,6q.925,1 45.325,1q67.525,0 39.775,5q-16.65,3 -50.875-3q-11.1-2 -34.225,4q-17.575,5 53.65-3q29.6-3 87.875,5q36.075,5 108.225-9q31.45-6 126.725-6q12.95,0 -38.85-2q-13.875-1 -28.675,18q-2.775,4 42.55,4q1.85,0 -4.625-1q-127.65-21 -153.55-10q0,0 118.4,0q48.1,0 41.625-24q-6.475-22 -158.175-9q-19.425,2 -124.875,2q-25.9,0 77.7,10q49.95,5 149.85,3q10.175,0 30.525,0q28.675,0 -84.175-11q-37.925-4 -115.625,2q-71.225,5 -61.975,11q8.325,5 53.65,6q24.975,1 74,11q58.275,12 -175.75-27q-17.575-3 -29.6-3q-21.275,0 63.825-9q6.475-1 19.425,1q21.275,3 -63.825,2q-33.3,0 98.975,5q22.2,1 64.75,10q46.25,10 180.375,10q.925,0 4.625-13q2.775-8 6.475,3q3.7,10 3.7,35q0,20 -8.325-58q0-2 0,5" fill="#00000000" stroke="#803380" stroke-width="20.977685559568563"></path><path d="M831,173m0,0q1,50 3,151q0,6 15-51q11-44 5-73q-1-6 -1-18q3-118 4,129q0,42 1-125q0-32 -15,96q0,2 6,3q7,1 5-77q0-17 -4-47" fill="#00000000" stroke="#803380" stroke-width="22.678578983317376"></path><path d="M829.1,131.6m0,0q2.8,43.3 3.7,50.9q1.6,14.4 -5.4-43q-.8-6.7 .3,20.2q.3,8.2 -.2,15.6q-.7,9.8 -1.3-29.6q-.2-14.3 -.2-14.3q1.8,2.1 .9,33.1q-.3,8.8 .4,11.2" fill="#00000000" stroke="#803380" stroke-width="6.188224432709366"></path></svg>