<svg viewBox="4.4 0.3999999999999986 41.900000000000006 53.7" width="41.900000000000006" height="53.7" version="1.1" baseProfile="full" xmlns="http://www.w3.org/2000/svg"><path d="M13.8,22.7L14,23.5Q14.5,23.7 14.6,24.1Q21.2,23.9 22.3,23.3Q24.1,21.9 23.8,14.7Q23.3,8 22.7,8.8Q27.6,8.4 27.7,8.5Q27.9,8.4 27.9,9.3Q29.3,17.7 28,19.7Q26.7,22.8 28.4,23.5Q35.6,22.7 35,21.8Q34,23.4 33.2,25.3Q27.8,38.6 29,38.4Q25,35.1 14.6,22.1L13.8,22.7Q23.9,36 27.4,40Q29.2,40.3 35.2,26.1Q35.9,24.4 36.8,23Q37,21 28.2,21.3Q28.8,22.1 30,20.7Q31.5,17.9 30.1,8.9Q29.7,7.1 28.5,6.5Q27.6,6.2 22.5,6.6Q21.2,7.4 21.6,14.9Q22,21.2 21.1,21.5Q20.8,21.7 14.6,21.9Q14.3,22.3 13.8,22.7" fill="#803380"></path><path d="M37.2,43l-1,1.8q1.6-.2 -2.1-1.5q-8-.9 -10.8-.9q-8.4,1.1 -7.3,1.8q6.8-2.1 9.5-1.8q11.7,.3 10.9-.5q-4.6,1 -9.8-.3q-4.5-.9 -9-.4l0,1q4.4-.1 8.6,1.2q5.5,1.5 10.6,.5q2.6-1.5 -11.1-3.7q-3.2-.3 -10.3,2q-2.6,1.8 7.9,2.4q2.6-.1 10.6,.9q5.8-.1 3.3-2.5" fill="#803380"></path><path d="M13.7,1.1L13.5,3.1Q14.3,3.2 14.8,3.1Q16.1,2.5 27.7,3.6Q36.9,4.4 38.7,6.5Q41.2,9.2 42.6,25Q44.2,41.4 40,46.4Q35.6,52.1 18.1,50.3Q7.9,49.5 8.3,44Q8.5,28.7 7.9,23.6Q6.3,9.9 10.7,5.1Q11.4,3.7 18.4,3.3L18.4,2.5Q11,2.6 9.3,3.9Q4.4,9.4 5.9,23.8Q6.4,28.8 6.3,44Q6.5,51 17.9,52.3Q36.2,54.1 41.6,47.8Q46.3,41.9 44.8,24.8Q43.3,8.6 40.3,5.1Q37.7,2.4 27.9,1.4Q16,.4 14,1.1Q14.1,1.1 13.7,1.1" fill="#803380"></path><path d="M18.5,23.3l-.2-.2q-.5,.5 -1.9,1.6l.2,.2q1.3-1.1 1.9-1.6" fill="#803380"></path><path d="M19.7,23.4l-.2-.2q-.2,.1 -.4,.1q-1.4,1.1 -1.9,1.6l.2,.2q.5-.3 2.1-1.4q0-.1 .2-.3" fill="#803380"></path><path d="M20.8,23.5l-.2-.2q-1.3,1.1 -1.8,1.4q-.5,.5 -1,1.2l.4,.2q.4-.6 1-1q.4-.4 1.6-1.6" fill="#803380"></path><path d="M22.2,23.5l-.2-.2q-1.4,1.2 -1.9,1.6q-.6,.7 -1.5,1.6l.2,.2q1-.8 1.7-1.4q.4-.5 1.7-1.8" fill="#803380"></path><path d="M22.9,9.8L23.1,10Q24.3,8.7 24.7,8.3L24.5,8.1Q24.1,8.5 22.9,9.8" fill="#803380"></path><path d="M22.9,10.7L23.3,11.1Q25.5,8.5 26.2,7.6L26,7.4Q25.2,8.2 22.9,10.7" fill="#803380"></path><path d="M23.3,11.7L23.5,11.9Q23.8,11.5 27.2,7.8L27,7.6Q23.5,11.3 23.3,11.7" fill="#803380"></path><path d="M23.6,12.5L23.8,12.7Q24.3,12 24.5,11.9Q27,9.1 27.8,8.1L27.6,7.9Q26.6,8.7 24.1,11.5Q24,11.8 23.6,12.5" fill="#803380"></path><path d="M22.9,14.3L23.3,14.7Q23.6,14.2 28.1,8.8L27.9,8.6Q23.3,14 22.9,14.3" fill="#803380"></path><path d="M23.1,15.6L23.5,15.8Q23.5,15.6 28.4,9.9L28.2,9.7Q23.2,15.4 23.1,15.6" fill="#803380"></path><path d="M23,17.1l.4,.2q.3-.5 .4-.6q3.8-4.4 4.9-5.9l-.2-.2q-1.3,1.4 -5.1,5.7q-.1,.2 -.4,.8" fill="#803380"></path><path d="M22.7,18.9l.2,.2q.9-1.3 6.3-7.6l-.2-.2q-5.4,6.3 -6.3,7.6" fill="#803380"></path><path d="M23.2,19.9l.4,.4q3.9-4.7 5-6.4q.5-.6 .6-.9l-.4-.2q-.2,.2 -.6,.9q-1.1,1.6 -5,6.2" fill="#803380"></path><path d="M21.7,23.2l.2,.4q.2-.1 1-.9q3.8-4.8 6.8-8.5l-.2-.2q-3.2,3.5 -7.2,8.3q-.6,.8 -.6,.9" fill="#803380"></path><path d="M19.7,28.3l-.2,.6q.6,0 4.9-5.4q2.4-3.2 4.8-5.5l-.2-.2q-2.5,2.2 -5,5.3q-4.3,5.3 -4.3,5.2" fill="#803380"></path><path d="M19.2,27.2l.4,.2q.7-.9 1-1.2q2.3-2.4 3-3.3q2.8-3.6 5.3-6.3l-.2-.2q-2.6,2.6 -5.5,6.1q-.7,.9 -3,3.3q-.3,.3 -1,1.4" fill="#803380"></path><path d="M21,28.2l.4,.4q.6-.6 .8-.8q5.5-7.3 6-7.5q.4-.1 .6-.2l-.2-.4q-.1,0 -.6,.2q-.7,.2 -6.2,7.5q-.2,.2 -.8,.8" fill="#803380"></path><path d="M21.4,30.3l-.2-.2q-.2,.2 .1,.4q.5-1.2 7.3-9.6l-.4-.2q-6.8,8.3 -7.5,9.6q.2,.3 .7,0" fill="#803380"></path><path d="M22.4,30.3l-.2,0q-.1,.5 .3,.4q1-2.1 6.3-9.1l-.2-.2q-5.5,6.9 -6.7,9.1q.3,0 .5-.2" fill="#803380"></path><path d="M22.3,32.5l.2-.6q-.5,.2 3.7-5q1-1.4 2.8-4.1l-.4-.2q-1.8,2.6 -3,3.9q-4.2,5.6 -3.3,6" fill="#803380"></path><path d="M22.6,32.9l.6,.4q5-7.9 6.7-10.5l-.4-.2q-1.8,2.5 -6.9,10.3" fill="#803380"></path><path d="M23.3,33.5l.4,.2q.2-.4 6.9-10.4l-.4-.2q-6.7,9.9 -6.9,10.4" fill="#803380"></path><path d="M24.2,34.7l.4,.2q4.8-7.8 6.5-10.4q.4-.9 .7-1.6l-.4-.2q-.3,.7 -.9,1.4q-1.6,2.7 -6.3,10.6" fill="#803380"></path><path d="M25.3,35.9l-.4-.2q-.3,.8 0,1q2.9-5.2 4-6.8q3.9-5.8 4-6.1q.2-.7 .3-.9l-.4-.2q-.1,.2 -.5,.9q-.1,.1 -4,5.9q-1.1,1.7 -4,6.8q.1,.6 1-.4" fill="#803380"></path><path d="M26,35.7l.6,.2q.3-.8 7.2-12.2l-.2-.2q-7,11.4 -7.6,12.2" fill="#803380"></path><path d="M26,37.2l.6,.2q.5-1.2 .8-1.5q4.5-7.2 5.9-9.7l-.4-.2q-1.5,2.4 -6.1,9.5q-.2,.4 -.8,1.7" fill="#803380"></path><path d="M25.6,38.5l.6,.2q.9-2 5.4-8.8l-.4-.2q-4.5,6.8 -5.6,8.8" fill="#803380"></path><path d="M26.7,38.6l.6,.2q.4-1 3.7-6.6l-.4-.2q-3.3,5.6 -3.9,6.6" fill="#803380"></path><path d="M27.5,38.7l.6,.2q.4-.9 3-5.6l-.4-.2q-2.7,4.6 -3.2,5.6" fill="#803380"></path><path d="M12.26,51.44L12.3,51.28Q12.01,51.21 8.69,51.01L8.67,51.17Q11.99,51.38 12.26,51.44" fill="#803380"></path><path d="M13.28,51.78L13.3,51.62Q12.78,51.55 9.01,51.41L9.01,51.59Q12.77,51.74 13.28,51.78" fill="#803380"></path><path d="M10.83,50.77L10.85,50.61Q9.1,50.49 8.52,50.44L8.5,50.64Q9.09,50.66 10.83,50.77" fill="#803380"></path><path d="M9.18,50.79L9.2,50.63Q8.98,50.58 7.25,50.55L7.25,50.75Q8.97,50.77 9.18,50.79" fill="#803380"></path><path d="M10.36,51.23L10.36,50.97Q7.69,51.02 6.8,51.05L6.8,51.25Q7.69,51.25 10.36,51.23" fill="#803380"></path><path d="M11.39,51.54L11.39,51.36Q8.21,51.35 7.15,51.35L7.15,51.57Q8.21,51.53 11.39,51.54" fill="#803380"></path><path d="M37.23,52.39l0-.18q-2.75-.02 -3.67,.01q-.76,.05 -1.63,0l-.02,.18q.88,.09 1.67,.06q.91-.07 3.65-.07" fill="#803380"></path><path d="M39.25,52.04l.02-.16q-1.18-.14 -1.59-.16q-2.03,.08 -3.89,.01l0,.18q1.86,.12 3.89,.09q.4-.05 1.57,.04" fill="#803380"></path><path d="M40.74,52.62l0-.22q-4.38-.14 -5.83-.22l-.02,.18q1.46,.1 5.85,.26" fill="#803380"></path><path d="M41.34,52.18l0-.18q-1-.01 -4.67-.23l-.02,.2q3.69,.21 4.69,.21" fill="#803380"></path><path d="M41.63,51.98l.02-.16q-3.47-.24 -4.63-.31l0,.18q1.15,.06 4.61,.29" fill="#803380"></path><path d="M40.89,51.7l.02-.24q-.67-.04 -4.82-.18l0,.16q4.14,.17 4.8,.26" fill="#803380"></path><path d="M38.75,51.51l0-.18q-1.03,.02 -3.41-.04l0,.18q2.38,.06 3.41,.04" fill="#803380"></path></svg>