<svg viewBox="4.2 -14.900000000000006 292.5 188.70000000000002" width="292.5" height="188.70000000000002" version="1.1" baseProfile="full" xmlns="http://www.w3.org/2000/svg"><path d="M32.8,98.4l-4,.4q4,27.6 6.1,20.3q-5.5-62.1 -6.7-51.3q8.6,63.8 10.5,49q-4.1-72.2 -5.7-59.5q5.3,61 7.4,50.3q-1-13.7 -1.2-18.3q-3.7-63.1 -6.9-55.2q-1,8.2 -.8,13q6.2,73.5 7.4,60.3q-1.2-13.2 -1.2-17.5q-3.1-89.4 -7.1-70.1q-2.1,19.3 -1.3,30.5q6.5,66.4 8,51.4q-.8-14.6 -.7-19.4q-1.4-93.8 -6.1-73.8q-3,20.8 -1.3,37.9q7.5,63.3 8.9,48.9q-.9-9.4 -.9-12.2q-2.9-96.7 -5.5-75.8q-1.3,38.4 -1.2,39.3q7.8,42.6 9.1,32.4q-3.2-16.3 -6.8-72.3l-2,.2q3,56 5,72.7q4,6.3 -1.7-33.6q-.1-.3 1.2-38.5q-1.3-17 -2.3,75.6q0,3.1 .9,12.6q3.7,10.3 -1.1-49.7q-1.6-16.6 1.3-36.9q.6-16.4 -1.9,73.2q0,5 .9,19.6q3,10.9 0-51.8q-.8-10.9 1.3-29.9q-.2-15.5 -1.1,69.7q.1,4.6 1.2,17.9q3.8,17.1 1.4-60.9q-.3-4.4 .8-12.2q-1.6-4.1 -1.9,54.8q.1,4.6 1,18.5q3.8,14.6 1.6-50.9q-3.4-17.1 -3.3,59.9q2.6,10.1 -1.5-49.6q-3.8-14.9 -2.3,51.9q2.6,3 2.5-20.9" fill="#9c469c"></path><path d="M41,118.1L40.8,119.9Q46.7,119.5 46.6,117Q8.3,118.1 17.8,121.3Q57.2,121.5 47.6,117.9Q13.2,117.4 18,120.7Q48,121.3 46.5,117.5Q40.8,114 37.9,114.2Q15.2,118.2 21.5,120.7Q23.3,120.3 28.1,119.2L27.5,116.2Q23,116.8 21.7,116.3Q19.7,118.4 38.3,118.6Q39.3,118.4 43.9,121.5Q43.9,118.7 18.2,115.9Q8.3,118.3 47.2,122.9Q52.3,120.3 18,116.3Q13.2,118.7 46.4,122Q49.1,119.6 41,118.1" fill="#9c469c"></path><path d="M28.7,9.2L24.9,9.4Q28.8,41.1 30.8,33.1Q27.2,-6.9 25,2.9Q26.3,56.7 29.9,44.7Q27.4,-7.7 24.9,4.4Q24.4,89.1 27.7,70.6Q27.9,4.3 23.7,18.9Q22.6,26.9 22.6,29.8Q25.8,107.2 28.4,90Q26.3,24.9 24.5,36.2Q29.6,118.3 31.8,100.1Q28.7,41.2 26.1,54.8Q28.7,129.4 30.7,116.2Q28.3,73.1 24.9,80.4Q28.9,130.4 31.1,118.6Q29,65.2 28.3,89Q29.1,94.8 32,107.5L34.2,107.1Q32,94.4 32.3,88.8Q29,61.1 26.9,118.6Q29.1,126 29.5,80.2Q25.5,69.5 26.1,116.4Q29.2,134 30.7,54.8Q28,45.7 27.2,100.1Q30.1,113.9 28.9,36Q26,20.4 23.8,90Q26.4,102.9 27,29.8Q27,27.3 28.1,19.5Q27.5,8.7 23.3,70.4Q25.5,84.9 29.1,4.6Q27.1,-3.4 25.5,44.7Q29.3,53.6 29.4,2.9Q27,-2.5 26.4,33.3Q28.9,37.2 28.7,9.2" fill="#9c469c"></path><path d="M22,-.2L21.8,4.2Q46.6,3.6 43.4,1.4Q4.2,3.1 13.7,5.8Q55,4.8 45.2,1.6Q5.7,-.7 15,2.9Q21.8,3.8 24.4,3.5Q45,-1 42,-2Q38.7,-.2 15.8,2L16,4.2Q39.1,2.5 43.2,1.8Q49,-2.2 23.8,-.7Q22,-.4 15.6,-1.3Q10.1,.3 44.8,6Q50.5,4.4 13.9,1.4Q8.6,3.7 43.4,5.8Q51,3.6 22,-.2" fill="#9c469c"></path><path d="M31.1,4.1l3-.2q-1.8-7.1 -4-4.5q1.1,33.8 3.6,28.8q-1.9-38.5 -4.7-25.1q-.5,34 1.2,28.7q-4.8-41.3 -6.6-31.3q2.2,39.5 3.8,33q-2-20.3 -3.1-29l-1.8,0q-.3,8.9 .7,29.4q2.8,10 4.2-33.4q-2-5.8 -1.4,31.5q2.7,9.1 7-28.7q-1.3-9.3 -3.7,24.9q2.4,9.3 5.2-28.6q-2.2,.4 -3.4,4.5" fill="#9c469c"></path><path d="M73.7,62.6l-4,.2q.3,.3 1.7-1q-31.2,2.6 -23.1,5.3q36.5-2.3 27.4-5.2q-48.1,.8 -40.2,2q26.7-3.8 30.8,.1q4.7,1.4 -4.5-1.5q-26.5-2.8 -25.9-.6q3.1-1.5 7.9-.8q31.6,2.4 27.5-.5q-46.9-3.7 -37,2q2.5,.8 3.9,.8q29.9-4.3 25.7-7.3q-1.4,.6 -29.6,4.9l.4,2.2q28-4 28.2-3.1q.8-1.8 -25.1-1.1q-.2,.1 -2.1-.6q-7.1-.2 35,6.6q9.4-1.3 -26.3-8.5q-6-.8 -10.5,1.2q-2.9,3.8 27.3,9.4q14,.5 8.1-6.9q-6.5-4.9 -34.4-1.1q-12.2,4 40.6,7.8q4.5-2.5 -27.2-4.6q-3.4,2.8 23.1,4.3q2.2-1.4 2.3-4" fill="#9c469c"></path><path d="M73.4,61.2l1,1.6q2.8-2.3 1.4-4.5q-16.5,.1 -15.1,2q2.7,.1 3.6,0l.2-2.6q-.9-.3 -3.6-.6q-5.9,1.2 14.3,5.6q-.3-2.1 -1.8-1.5" fill="#9c469c"></path><path d="M75.4,114.8L72.2,114.4Q73.2,120.3 75.5,120.5Q73.2,57.9 70.3,72.2Q71.5,108.3 74.1,110.3Q72.5,89.3 73.8,82.9Q78.4,60 76.9,52.1Q73.8,46.5 71.6,49.6Q70.5,116.5 75.4,103.5Q75.3,3.3 72.3,21.5Q73.4,95.2 76.4,78.8Q75.9,-3.3 73,14.8Q71.1,70.1 71.8,72.8Q74.8,77.5 76.7,74.9Q79.1,23.1 73.6,26.6Q73.2,27.2 73,28.1Q72.9,46 75.6,62.7L77.6,62.5Q75.6,45.8 76.4,28.1Q76.3,28.8 76.2,29Q76.7,26.1 72.9,74.7Q74.7,73.5 75.8,71.6Q75.2,70 77,15Q75.2,1.1 72,78.8Q74.5,91 76.7,21.5Q74,-1.3 70.6,103.5Q75.1,117.4 76.2,49.6Q74,51.2 72.3,52.9Q73.6,59.7 69.2,81.9Q67.7,89.2 69.3,110.7Q71.9,113 75.1,72.4Q72.8,62.6 70.7,120.5Q73,123.7 75.4,114.8" fill="#9c469c"></path><path d="M70.6,114.2l-3.2,.2q1.6,4.5 4,2.2q-1-75.2 -4.3-61.9q1.9,74.4 5.1,57.6q-.9-104.9 -4.3-82q-.5,61.9 3.9,48.3q-.3-83.1 -3.6-64.7q-.1,51.8 2.8,43.4q-.5-66.7 -3-55.3q2.1,40.7 5.5,32.5q2.6-36.4 .2-31q-.1,3.9 -.1,5.2q-.5,74.6 2.7,66.9q4.8-85.7 1.2-70.6q-1,14 -1.5,18.6q-2.9,28.3 -1.6,31q2.5,1.1 4.6-1.5q-2.7-45.1 1.5-45.5q9.1-4.8 5.1-6.9q-29.8,3.6 -22,6.3q24.5-.9 21.4-2.8q-26,4.6 -22.3,6.1q33.1-9.8 24.3-12q-31.5,2.2 -23.6,5.2q34.7,.5 26.4-3.3q-14-2.7 -19-1.8q-15.9,4.9 -10.9,7.4q29.4-.1 25.4-2.7q-28.3,.2 -21.1,3.5q4-.1 3.6,.9q7.3,27.5 10.7,20.4q1.9-11.2 .5-20.4q-2.6-3.8 -4.9-1.2q-.1,71 3.4,55.1q-.1-60.5 -3.6-46.7q-1.3,17.4 -1.4,23.2q-.7,77.2 3.4,63.4q-.9-74.3 -4.5-57.7q-4.7,74.5 1.9,74.3q5.2-2.9 5-48.3q-2.2,2.3 -5,0q4.4,57.8 6.1,48q-6.5-53.2 -5.7-33.5q3,19 2.1,24.9q-1.3,13.5 3.9,13.7q3-.9 3.6-.7q1.8-2 3.2-4.6q-31.9,4.7 -23.4,7.4q31.7-1.9 23.4-5q-30.4,1.3 -26.2,3.4q30.4-4.2 22.6-7.4q-15-1.7 -20.8,2.3q-1.4,3 3.8,4.8l.8-2.8q-2.9-.2 -2.2,1.4q4.2-3 17.8-1.1q3.5-1.8 -22.4-2.2q-8.9,3 26.4,6.8q3.3-2.7 -23.2-5.4q-3.3,2.5 23.8,3q3-2.7 -3.2-5.4q-1.6,0 -5.2,.9q-.1,1.7 2.1-8.3q1-6.9 -2.1-26.5q-6.1-23.8 -3.9,34.7q3.6,14.3 3.7-48.6q-2.8-2.4 -5,.2q.5,44 -1.6,43.7q-.7,2.5 4.5-69.3q-1.6-12.1 -5.3,57.3q3.5,17.9 6.4-63.2q.1-5.8 1.4-23q-1.8-9.4 -6,46.1q2.6,11.6 6-54.7q-2.3,1.8 -4.3,1.8q1.3,8.4 -.5,18.8q1.6,3.4 -1.7-20.4q-1.4-3.9 -7.8-4.5q-3.3,2.7 20.7,5.3q8.7-2 -25-6.3q-.8,2.2 11.5,1.6q4-.8 17.4,1.8q4.4-1.3 -25.2-5.9q-3.7,2.1 23.2,4.2q4.1-2.2 -25.3,2.8q-7.2,4.1 23.7,3.1q7.6-3 -21.6-6.6q-3.2,2.2 22,3.3q-.8-2.3 -6.7-2.3q-7.4,3.3 -5.1,50.1q2.1-2.5 4.4-1.7q-.7,.1 2.2-27.6q.4-4.7 1.3-18.8q-1.3-20.1 -10.6,70q2.3,3.4 6.9-66.3q.1-1.4 .1-5.4q-2.2-10.2 -9.6,30.4q1.8,4.2 3.9-31.9q-2.5-16.2 -6.4,55.1q2.4,13.2 6.6-43q-2-13.8 -5.8,64.3q3.9,10.5 5.7-48.1q-2.6-18.1 -5.5,82q2.9,12 4.7-57.6q-3.3-17.6 -5.1,61.9q2.4-1.1 3.8-2.4" fill="#9c469c"></path><path d="M148,27.1L152.6,27.5Q151.8,13.7 149.3,14.5Q150.6,32.8 154.3,27.8Q155.5,21.4 154,18.7Q150.4,16 148.2,18.8Q150.2,19.1 152.9,20.5Q149.8,11 149.1,12.8Q152.7,13.2 154,10.9Q125.3,13.5 129.3,15.4Q153.1,10.5 146.1,8.5Q137.2,9.1 134.4,8.9Q85.7,7.6 96.8,11.7Q105.7,13.1 108.8,13.1Q125.6,10.7 123.9,8.7Q110.2,9.9 105.8,9.5Q89,8.6 90.2,12.4Q91.6,13.9 91.5,13.9Q94.7,32.6 96.9,27.4Q95.7,8.4 93.6,10.5Q95.6,36.2 98.1,29.5Q98.1,7.2 95.3,10Q95.8,31.8 98.4,26.4Q98.4,24.7 98.3,20.8L96.3,20.8Q96,24.5 95.4,25.8Q96.4,28.2 99.1,10.2Q96.8,3.3 93.9,29.3Q95.8,32.1 97.6,10.5Q95.5,4.2 92.7,27.2Q94.7,28.7 95.3,13.7Q95,12.1 93,9.8Q92.2,11.5 105.4,13.7Q110.2,14.3 124.3,13.1Q130.2,10.4 108.8,8.5Q106.1,8.5 97.6,7.1Q90.4,8.2 134,13.7Q137.3,13.9 146.5,13.3Q148.2,10.7 128.7,10.6Q120.3,13.9 154,15.9Q157.6,13.6 151.3,8.6Q146.1,7.9 148.1,21.5Q151.1,24 153.2,19Q151,20.9 150,21.7Q150.5,21.9 149.3,26.8Q151.6,28 154.3,14.7Q152,9.1 148,27.1" fill="#9c469c"></path><path d="M94.8,30.8L97.2,29Q91.3,22.1 98.2,20.4Q109.3,13.5 107.9,12.9Q105.9,13.9 105.6,14.1Q99.4,18.2 101.6,18.7Q100.6,18.3 106.6,16.3Q115.9,11.9 114.6,12.5Q118.4,93.2 121.2,75.5Q120.1,45.3 116.8,52.8Q114.1,79.3 115.1,88.4Q122.4,130.7 123.8,123.8Q118,103.9 116.3,108.9Q121.5,134.8 123.8,127.4Q121.1,87.6 115.9,96.6Q108.8,127.4 111.8,123.4Q112.8,98.1 110.6,101.4Q112.2,121.1 112.8,119.6Q97,124.4 102.1,127.1Q125.8,126.4 123.1,123.8Q99.8,125.6 102.7,127.9Q129.9,122.5 122.5,119.6Q106.8,119.8 105.8,122.6Q115.8,118.9 114.7,120Q117.5,127.7 120.1,124.5Q122.6,74.2 118.3,85.6Q117.5,122.9 119.7,117.3Q116.7,62.6 113.7,75.3Q111.5,125.2 116.2,114.1Q118.1,54 114.5,64Q113.6,122.8 117.3,109.4Q119.7,43.7 116.9,54.8Q116.9,113.2 120.4,99.9Q124.2,30 119.8,45.3Q118.2,90.3 121.1,83.2Q122.9,3.6 118.2,41.8Q116.8,90.1 120.1,82.2Q121.1,20.6 117.6,34.6Q115.8,79.8 119.4,72.8Q120.1,61 119.9,56.9Q115.2,1.7 114.4,11.1Q117.2,30.9 116.3,37.1Q115.1,47.4 117.4,49.7Q120.2,49.3 121.3,47Q120.9,4.7 118.6,11.3Q119.7,64 122.6,52Q123.5,36.6 123.5,34.4Q123.3,22.3 123.7,12.7L121.5,12.5Q120.1,22.1 119.5,34.4Q119.4,36.4 118.4,51.8Q120,60.1 122.6,11.3Q120.6,.1 116.7,46.8Q117.8,45.3 117.4,44.9Q119.7,47.2 120.9,37.7Q121.7,30.7 118.8,10.5Q114.7,-3 115.1,57.1Q115.2,60.8 114.4,72.4Q116.7,84.3 122,35Q120.3,25.4 115.3,82Q117.6,94.2 122.2,42Q121.8,8 116.3,83Q118.3,94.7 124,45.7Q121.7,33.9 115.6,99.5Q117.4,108.6 121.5,55Q119.7,38.8 112.3,109Q114.4,118.1 119.3,64.2Q117,49.2 111.4,113.9Q115,122.1 118.3,75.5Q116.5,67.3 114.9,117.3Q117.4,127.5 122.9,86Q120.1,78.2 115.3,124.1Q117.7,123.2 119.1,119.4Q117.3,114.6 104.4,118.2Q102.3,121.4 122.1,124.4Q124.8,122.3 102.1,122.7Q94.7,126.2 123.1,128.8Q130.9,126.4 102.5,122.1Q102,124.5 113.6,124.6Q117.1,122.6 115.6,101Q112.6,93.2 106.8,122.8Q108.1,132.3 120.7,98Q119.9,92.5 118.8,127.6Q121.3,129.8 121.3,108.3Q119.1,108.7 119,124.6Q123.3,135.6 120.1,87.8Q119.1,79.5 121.8,53.4Q119.7,49.8 116.8,75.3Q118.6,89 118.8,12.5Q117.4,7.8 105,12.1Q97.1,15.7 97.4,19.9Q99.7,20.8 107,16.1Q107.1,16 108.9,15.1Q112.8,11.8 96.6,16.4Q87.8,21.3 94.8,30.8" fill="#9c469c"></path><path d="M112.6,13.4L113,10.4Q110.3,9.9 108.9,9.9Q97.3,15.7 99.3,16.7Q105.5,11 102.6,8.5Q96.9,7.4 95.7,11.3Q95.2,18.7 93.9,20Q95.6,20.1 97,22.4Q98.9,12.8 97.3,13.3Q98,15.7 98.7,16.4L100.5,16.2Q100.9,15.3 100.9,12.7Q98.6,8.5 92.8,21Q94.1,23.7 96.9,22.4Q98.8,19.9 99.5,11.7Q98.7,10.8 101.4,12.3Q101.4,10.7 96.7,13.5Q93.9,18.1 110.3,13.9Q110.4,13.3 112.6,13.4" fill="#9c469c"></path><path d="M149.8,21.9l-1.4,1q4.7,5.8 5.6,1.6q-2-7 -8-11.6q-2.6-1.4 -7.1-2.5l-.6,2.2q3.9,1.5 5.5,3.3q4.9,3.8 6.2,9.6q2.2,.8 -.2-3.6" fill="#9c469c"></path><path d="M149.2,25.4L153.2,23Q151.1,19.6 150.1,18.5Q138.1,8.7 139.8,13.8Q141,14.2 146.2,19.3L147.6,17.9Q142.8,12.5 142.6,11.2Q140.9,12.3 146.7,21.7Q147.3,22.4 149.2,25.4" fill="#9c469c"></path><path d="M171.3,124.5l-1.2,2.8q3.6,.4 4.7-3.2q-26,1.2 -24.1,5.1q24.3-2.2 22.4-5.9q-24,.3 -25.7,1.6l0,4q1.7,1.3 25.7,1.6q9.3-3.7 -22-8.7q-9.9,3.3 23.1,9.9q3.3-3.4 -2.9-7.2" fill="#9c469c"></path><path d="M179.7,19.1l-1.2-3.8q-2.5,.5 -4.2,2.4q.4,21.9 5.1,15.7q0-14.8 -3.4-15q-2.3,43.5 1.6,37.8q.6-11.6 1.9-14.4q7.1-15.9 4.1-22.2q-8.1-7.6 -14.9,35.1q-3.2,50.2 2.7,38.1q6.9-78.8 .2-60.9q-14.2,112.2 -5.8,87.8q10.2-81.6 4.4-68.8q-9.1,89 -1.9,69.2q8.4-69.3 1-53.8q-15.1,75 -6.7,58.5q11.8-53 4.1-41.2q-8.4,25.6 -8.9,35q.1,6.8 .8,9.2l3.8,.2q1-2.2 2-9q.6-8.2 8.9-33.2q-1.3-7.5 -17.3,37.2q.4,11.6 20.1-55.1q-1-10.3 -14.8,51q1.5,14 16.1-67q-1-21.2 -18.8,66.6q1.3,18.8 20.2-85.6q-2.2-11.9 -14.4,58.9q3.5,6.5 11.3-36.3q2.6-37.1 1.9-32.3q2,2.1 -4.5,15.6q-2,4.4 -2.7,17q2.9,13.1 12.6-36.6q-2.5-7.3 -10.2,12.8q3.1,1 8.1-13.5q-1.6,1 -1.2,.6" fill="#9c469c"></path><path d="M195.4,76.3L202.2,74.1Q183.2,23.3 183.2,37.2Q201.4,84.9 201.5,71.8Q179.2,10.9 180.6,26.9Q201.6,92.9 197.2,61.8Q182.6,4.9 179.1,18.1Q191.3,54.3 192.4,41.9Q190.4,36 182.1,16.2L178.7,17.6Q186,37.4 186,43.1Q190.2,48.1 185.1,16.5Q175.8,7 190.2,63.6Q199.8,87.3 185.8,25.5Q180.7,17.8 194.5,74Q200.3,79.3 188.4,35.6Q182,30.1 195.4,76.3" fill="#9c469c"></path><path d="M219.9,24.7L214.5,22.1Q188.6,78 197.7,71.1Q224,9.3 216.5,17.6Q193,80.4 200.6,72.1Q220.7,14.2 211.2,26.5Q190.9,82.1 200.4,70.7Q215.3,36.2 210.9,40Q211.4,42 197.3,73.2L200.5,74.8Q215.2,43.7 216.9,42Q217.5,30.3 194.8,67.7Q194,76 217.6,29.3Q217.2,20.4 194,69.5Q191,87.4 223.1,20.4Q226.7,2.7 191.3,67.9Q189.1,84.1 219.9,24.7" fill="#9c469c"></path><path d="M225.2,19.1l-5.6-1.8q-6.5,19.9 -14.8,30.3q-1.7,2.9 -1.8,4.3l3,2.4q1.3-.4 3.8-2.9q8.7-11.5 15.4-32.3" fill="#9c469c"></path><path d="M225.3,58.8l6.6-.6q-1.8-8.8 -8.7-40.3l-3.8,.8q6,31.5 5.9,40.1" fill="#9c469c"></path><path d="M228,120.2L223.6,121Q228.3,137 232,131.5Q224.4,57.1 220.8,69.1Q229.6,140.9 233.1,123.1Q224.2,26.4 221.1,42.9Q229.8,131.6 234.3,110.7Q223.7,9.6 220.6,33.2Q229.2,119.8 232.2,105.2Q220,1.5 217.5,25.6Q226.4,113.8 229.8,98.7Q219.4,7.1 216.2,22.8Q221,76 221.4,77.6Q231.1,95.7 227.4,44.3Q225.4,35.9 220.8,23.4L216.8,24.6Q219.8,37.2 220,45.3Q229.1,88.6 228.2,75.4Q228,75.1 223.2,22.2Q216.5,-.3 221.8,99.3Q228.2,120.9 224.7,25.2Q219.5,9.2 224.4,105.8Q230.5,127.4 228.2,32.8Q222.7,17.4 226.3,111.3Q233.3,124.6 228.9,42.3Q222.7,18.5 225.1,123.5Q230.1,133 228.8,68.5Q222.9,49.1 223.8,131.9Q227.8,132 228,120.2" fill="#9c469c"></path><path d="M229.1,137.3l-.2-3q-16.8,2 -14.4,5.7q27.1-7.9 18-11.4q-32.4,5 -23.3,10.3q19.1,2.8 25-2.2q4.3-6.9 -.7-9.6q-25.1,3.5 -19.2,9.3q3,1.2 4.3,1.2l1.6-3.2q-.6-1 -3.3-2.8q-2.2,1.5 17,2.7q-2.9-2.8 -5.3-3q-1.7,2.7 -18.2-.2q-2.3,3.4 22.5,5.7q.4-4 -19.6-5q-5.1,4.8 15.8,5.5" fill="#9c469c"></path><path d="M288.7,124.8L280.5,124Q281.1,156.6 288.1,142.6Q289.2,118.5 283.2,125.3Q281.6,145.9 285.7,145.8Q288.2,123.7 279.5,124.6Q263.4,135.9 270.9,138.9Q289.7,133.5 282.5,129.4Q230.8,134.4 244.4,139.2Q288.3,137.2 282.9,132.6Q228.3,136.2 236,139.8Q284.4,133.1 271.4,129.1Q228,133 239.8,137.5Q276.1,135.3 266.8,129.2Q236.6,122.7 235.6,133.2Q239.8,140.4 243.7,136Q243.9,77.9 239.4,86.3Q240.2,139.3 245.3,126.2Q249.8,23.6 243.6,40.9Q241.5,130.8 247.9,110.4Q257.4,24.7 251.7,20.1Q246.7,18.6 244.1,22.7Q243.7,108.2 249.3,88.5Q250.4,1.1 245.9,15.4Q246.8,76.3 251.3,65.4Q252.1,48.9 253.4,17.3L250.2,17.1Q247.5,48.5 244.7,64.6Q247.4,69.7 252.5,15.6Q249.3,-6.5 241.5,88.1Q245.5,101.1 251.3,22.9Q248.8,25.8 248.3,26.7Q249.5,25.7 239.9,109.4Q242.5,123.3 251,41.3Q247.4,16.2 237.5,125.6Q241.3,132.2 246.4,86.7Q243,70.4 236.1,135.6Q239.9,132.8 243,132.2Q240.2,129.5 265,136.6Q268.3,133.6 240,129.5Q236,133.6 271.4,137.1Q276.2,133 235.6,131.6Q219.8,136.6 282.9,141.2Q296.7,136.8 244.8,130.8Q239.4,134.8 282.7,138Q281.6,133.8 270.1,131.1Q271.3,134.7 283.1,131.8Q282,128.9 277.7,144.4Q280,153.9 291,127.3Q287,126.4 280.1,141Q282.6,148.6 288.7,124.8" fill="#9c469c"></path><path d="M260.7,9.4L260.1,6.4Q230.5,14.3 238.5,17.5Q260.4,11.3 258.5,7.5Q230.4,16 234,18.8Q246.1,14.9 249,15.8Q248.5,12.8 251.5,9.6Q246.6,10.6 238.1,14L239.3,17.8Q247.7,15.6 251.9,16Q255.8,12.7 250.8,8.6Q245.3,7.4 231.8,11.6Q222.7,18.4 259.9,15.5Q268.4,9.9 237.7,9.3Q234.3,13.7 260.7,9.4" fill="#9c469c"></path><path d="M164.5,125.9l-2.2,0q.9,2.9 2.7,1.6q6.4-43.2 7.6-48.4q8.7-36.5 9.4-49.1q-.2-1.2 -.6-1.6l-1.2,0q-.5,.3 -.8,1.4q-1,12.2 -9.8,48.5q-1.3,5.4 -7.8,48.8q1.7-.6 2.7-1.2" fill="#9c469c"></path><path d="M166.4,125.7l-1-.6q.2,.2 1.6,.7q-.5-7.7 -1-10.2l-1.8,0q-.3,2.6 -.2,10.4q1.5,.8 2.4-.3" fill="#9c469c"></path><path d="M19.7,142.9l1.2,0q.1-2.1 1-15.1l-1.6,0q-.7,12.9 -.6,15.1" fill="#9c469c"></path><path d="M23.4,141.7l2.4,1q-.1-.8 .5-15.1l-1.8,0q-.7,14.1 -1.1,14.1" fill="#9c469c"></path><path d="M25.2,139.1l1-2.8q-.5,.2 -6.3-1l-.4,2q5.7,1.4 5.7,1.8" fill="#9c469c"></path><path d="M29.5,138.8l2-1.6q-.9-.7 -3.8-3.1l-1.2,1.2q2.7,2.6 3,3.5" fill="#9c469c"></path><path d="M25.6,151.2l2,.6q4.8-14.3 6.5-19.1l-1.8-.6q-1.8,4.7 -6.7,19.1" fill="#9c469c"></path><path d="M33.1,146.7l2.6,.6q-.1-.9 .3-13.2l-1.8,0q-.6,12.1 -1.1,12.6" fill="#9c469c"></path><path d="M35.7,137.1l-.6,1q1.9,1.2 3.3,1.1q4-4.8 0-6.3q-1.4,.1 -4.3,1.3l.4,1.4q2.8-.6 3.5-.1q1.7-.5 -1.6,1.5q.7,.6 -.7,.1" fill="#9c469c"></path><path d="M49.2,139.9l-1.4-1.4q-2.6,2.9 -3.6-.3q-2.9-3.9 -.1-3.7q2.7-1.5 .9-.4q-.2,1.3 -4.3,1.4l0,1.8q4.9,.1 6.7-1.6q1.9-4.4 -3.9-4.2q-5.1,1.8 -1.9,8.3q3.3,4 7.6,.1" fill="#9c469c"></path><path d="M56.2,135.2l.6-2.6q-4.8-.9 -6.1,1.1q-.3,5.2 1,5.2q-.8-4.1 -1.4-5.4l-1.4,.2q-.3,1.4 0,5.6q1.7,2.7 4.8-4.8q-.8-.1 2.5,.7" fill="#9c469c"></path><path d="M92.9,145.6l1,.8q.6-.3 1.2-.7q.9-8.4 1-11.3l-1.6-.2q-.8,2.7 -2.2,11.1q.5-.1 .6,.3" fill="#9c469c"></path><path d="M101.9,135.3l0-3q-.3,.5 -13.7,1l0,2q13.5-.5 13.7,0" fill="#9c469c"></path><path d="M104,143.8l-.6-1q-1.2,.5 -1.6,0q-4.8,1.8 -2.9-.3q1.6-4.6 .5-4.3q1.5,2.2 -.8,2.4q-.2,.5 -1-.5l-1.4,1q1.4,1.9 3,1.9q4-1.5 2.8-5.8q-2.1-2 -5.5,4.1q-1.5,5.2 5.9,4.3q.5-.7 1.6-1.8" fill="#9c469c"></path><path d="M102.8,142.5l1,2.4q.6-.7 4.7-6.5l-1.4-1q-4.1,5.5 -4.3,5.1" fill="#9c469c"></path><path d="M109.5,144.9l-1.4-2q-.3,.3 .8,.4q-.9,.1 -4.4-5.9l-1,.6q3.1,6.2 3.2,7.3q1.4,.5 2.8-.4" fill="#9c469c"></path><path d="M110,145.1l2.2,1.4q.3-1.3 .5-13.3l-1.8,0q-.3,11.8 -.9,11.9" fill="#9c469c"></path><path d="M116.7,141.2l-.4-3q-.8,.5 -8.1-.6l-.4,1.8q7.5,1.6 8.9,1.8" fill="#9c469c"></path><path d="M157.4,152.2l.8-1.6q-.5,0 -.2-3.6q-.1-11.1 -2-8.7q-.7,1.4 -1.1,2.8q-1.5,7.3 -.6,7.6q-.5-1.2 -.6-1.6q-2.3-9.1 -3.2-8.3q-1.3,5.5 -1.9,7.3q-.5,1.6 -1.6,3.5l.6,.4q1.4-1.8 2.2-3.5q.7-1.8 2.1-7.3q-.8,.3 .4,8.3q.1,.5 .6,1.8q1,.6 3.6-7.8q.3-1.2 .9-2.6q-.1-1.4 -1.2,8.1q-.1,4.2 1.2,5.2" fill="#9c469c"></path><path d="M165.9,149.6l-.4-1.4q-1.2,.5 -.8,.4q-1.2-5.5 -2.3-3.9q-.4,1.7 -.6,2q-1.2,4.1 -.7,2.1q-.6-5 .7-3.6q.2-.2 .3,.8l1,0q.1-1.5 -.5-2.2q-3.2-1.3 -3.1,5.2q.9,3.5 3.9-1.5q.2-.7 .6-2.4q-.7-.3 -.9,3.7q.6,1.3 2.8,.8" fill="#9c469c"></path><path d="M170.6,144.4l.6-.2q-.2-1 -.7-1.5q-2.8-.1 -3.4,2.4q-.2,5 .5,4.5q-.4-.2 -.5-5l-1,0q.1,4.8 -.1,5.4q1.2,1.8 2.7-4.7q0-1.4 1.6-1q0-.4 .3,.1" fill="#9c469c"></path><path d="M179.9,150.1l-.4-.4q-1.7,1 -2.2-.5q-2.2-2.4 -2.5-1.7q4,.4 2.5-2.1q-2.1-1.5 -3.5,1q-1,4.3 -.2,4.2q.6-4.7 1.5-12.8l-.8-.2q-1.3,8.1 -2.3,12.8q.5,1.9 3.4-3.4q.2-1.5 .7-.4q1.3,.4 -.9-.7q-1.8,.3 .7,4.3q1.8,1.7 4-.1" fill="#9c469c"></path><path d="M185.8,150.5l0-.6q-.9-.1 -.6-.5q-3.5-2.8 -2-1.8q-.2-.2 -.4-1q-1.5,4.5 -1.4,3.5q-.8-.9 -.6-5l-.8,0q-.5,4.3 0,5.8q1.7,1.8 4.4-3.7q-.2-.9 -.8-1.2q-3.4-.1 .4,4.6q.7,.1 1.8-.1" fill="#9c469c"></path><path d="M188.5,147.9l-.4-.4q-.6,.3 -.8,.9q1,1.4 3.9,.1q2.9-2.1 -.1-3.4q-3.8-.7 -4.5,2.9q-.1,7.6 .7,6.7q.2-6.7 0-9l-1,0q-.2,2.2 -.6,9q.7,2.5 2.5-6.5q0-2.4 2.5-1.5q1.8-.1 -.3,.4q-1.8,1.2 -1.7,.7q-.3,.4 -.2,.1" fill="#9c469c"></path><path d="M243.4,158.8l-.2-.6q-.3,0 .1-.3q-2-1.1 -2.9-.9q-2.7,1.5 -2.2,1.4q-.2-2.6 1.4-11.6l-.8-.2q-1.9,9 -2.2,11.8q.5,1.6 4.4,.2q-.1-.2 1.5,.7q.5-.2 .9-.5" fill="#9c469c"></path><path d="M250.7,158.4l-.4-.4q-.3,.2 .2,0q-1.1-1.2 -1.9-1.3q-1,.2 -1.5,.5q-2.3,2.8 -1.2,1.4q.8-3.3 .7-2.8q.9,.4 1.4,.4l.4-.8q-.1-.4 -1-1q-1.7-.5 -3.1,3.6q-.4,3.5 4,.6q-.1-.1 .5-.1q-.1-.3 .7,.5q.7,0 1.2-.6" fill="#9c469c"></path><path d="M255.8,158.7l-.4-.4q-.8,.8 0,.8q-.6-5.9 -2.3-4.7q-2.2,4.3 -1.4,4q-.3-.6 .3-3.7l-1-.2q-.8,3.1 -1.1,3.9q.7,2 4.6-3q-.5-.6 -.9,3.7q.8,.9 2.2-.4" fill="#9c469c"></path><path d="M257.8,164l-.4-.4q-1,.8 -1.4,1.1q-2.8,5.4 -.3,7.2q4.1,1.9 4.9-3.3q1-13.3 -.4-13.1q-3.3,3.3 -2.5,3.1q.3-2.9 .4-2.5q1.1,0 1.5-.2l.2-1q-.4-.3 -1.5-.6q-1.6,.2 -2.4,4.1q.4,2 5.3-1.7q-.8-.3 -2.2,11.7q0,4 -2.5,2.1q-1.8-.6 .7-5.2q-.1-.4 .6-1.3" fill="#9c469c"></path><path d="M268.2,157.9l-.4-1q-.7,.4 -.1,.6q-1.2-5.2 -2.3-3.7q-.7,4.7 -1.7,3.9q-.6,.3 0-3l-1-.2q-.8,3.9 .4,4.8q2.7,.5 3.9-5.1q-.7-.3 -.9,3.5q.7,.8 2.1,.2" fill="#9c469c"></path><path d="M273.8,157.4l-.2-.6q-1.6,.5 -1,.4q-.7-3.4 -2.2-2.7q-3,4.9 -1.6,2.8q.4-2.6 .4-2.2q.9,.2 1.2,.1l.4-1q-.2-.3 -1-.7q-1.7-.2 -2.8,3.4q-.2,4.1 4.8-1.4q-.7-.2 -.8,1.9q.7,.7 2.8,0" fill="#9c469c"></path><path d="M274.5,163.1l-.4-.4q-.5,.4 -.7,.6q-2.1,4.6 -.1,5.8q3.7,.8 4.4-5q.5-10.3 -1.5-9.7q-2.7,2.5 -2,2.6q.6-2.7 .6-2.2q1,.2 1.4,0l.2-.6q-.2-.4 -1-1q-1.6-.2 -2.8,3.4q.2,1.9 4.6-.8q-.2-.8 -1.1,8.1q-.1,4.7 -2.2,3.6q-1.4,.1 .5-3.8q-.1-.1 .1-.6" fill="#9c469c"></path><path d="M283.7,158l-1-1.2q-1.8,1.8 -2.1,.8q-1.6-1.7 -.6-1.9q1.5-1.6 1-2.2q-1,2 -.8,1.9q-.8,.2 -1,.4l0,.8q.3,.2 1.2,.2q.7-.2 2-2.5q0-1.6 -3.4,0q-1.7,1.5 .2,4.3q1.7,1.6 4.5-.6" fill="#9c469c"></path></svg>