<svg viewBox="32.4 -158.5 22.200000000000003 25.400000000000006" width="29.6" height="34" version="1.1" baseProfile="full" xmlns="http://www.w3.org/2000/svg"><path d="M42.4,-150.7l.2,.6q.5-.2 .7-.2q8.1-4 7.3-2.5q-1.2,4.9 -8.2,8.9q-5.4,3.1 -5.9,1.8q-1-1.4 1.4-3.7q5.3-5.2 6.2-4.9q.7,0 .9-.1l.2-.4q-.2-.2 -.9-.5q-1.6-.2 -7,5.1q-2.8,2.9 -1.6,5.1q1.3,1.7 7.3-1.6q7.2-4.1 8.6-9.5q.2-2.5 -8.7,1.5q-.1,.2 -.5,.4" fill="#803380"></path><path d="M49.4,-139.8l-.6,0q-.1,.1 -.7,.5q-1.6,1.7 -5.2,.3q-4-1.3 -1.8-7.2q1.6-4.9 5.7-3.6q1.7,.4 1.7,3.3q.2,1.5 -2.1,.8q-1.2-.1 -6.3,.2l0,.4q5.1,0 6.1,.4q3.1,.6 3.3-1.8q0-3.5 -2.3-4.3q-5-1.3 -7.1,4.2q-2.3,6.7 2.4,8.6q4.1,1.5 6.4-.5q.6-.7 .5-1.3" fill="#803380"></path><path d="M46.6,-145.5l1,.4q.6-1.5 .4-2.1q-1.6-4.2 -2-2.9q.1,.4 .2,.5l.4,0q.1-.1 .2-.5q-.4-.3 .2,3.1q.1,.3 -.4,1.5" fill="#803380"></path><path d="M46.7,-149.6l.2,.4q.2-.2 -.2-.3q.3,2.1 .6,2.8q1,1 1.3,.2q-1.3-4.2 -1.8-2.9q.3,5 1.2,3.9q1-2.6 -.1-3.7q-.4-.2 -.6-.2l-.4,.4q.1,.2 .4,.6q.9,.5 -.1,2.5q.2,.6 .6-3.5q-.5-.2 -.2,3.1q.4-.5 .7-.8q-.3-.6 -.6-2.6q-.5-.3 -1,.1" fill="#803380"></path><path d="M47.9,-140.3l.4,.8q-.1-.4 -.1-1q-1.4,.9 -1.9,1.2q-2.7,2 -6-.4q-1.6-.8 0-5.6q1.8-5.9 4.7-5.7q3.5-.2 3.4,2q.1,1.2 -.1,2.8l.4,.2q.6-1.8 .7-3q-.1-3 -4.4-3.2q-3.6,.2 -5.7,6.5q-1.7,5.4 .4,7q3.9,2.5 7.2,.4q.5-.4 1.9-1.4q.2-.7 -.9-.6" fill="#803380"></path><path d="M40.1,-145.5l-.8,0q-.1,1.1 -.4,2.7q-.1,1.3 .8,3.2l.4-.2q-.5-1.8 -.2-2.8q.3-1.7 .2-2.9" fill="#803380"></path><path d="M41.7,-150.2l-.6-.6q-1.8,2 -2.1,5.4q0,6.6 .6,5q0-.7 -.1-.9l-.4,0q-.2,.2 -.3,.7q.3,.8 1.2-4.8q.2-3 1.7-4.8" fill="#803380"></path><path d="M44.3,-151.8l0-.6q-1.3,0 -2.8,1.3q-.8,1.1 -1.5,3.5l.4,.2q1-2.2 1.9-2.9q1.1-1.3 2-1.5" fill="#803380"></path><path d="M39.5,-142.5l.4,0q.2-1.9 .7-3q1.8-6.1 2.8-5.9q.7-.1 .9-.3l0-.4q-.2-.2 -.9-.3q-1.8,.2 -3.8,6.7q-.2,1.2 -.1,3.2" fill="#803380"></path><path d="M38.6,-139.7l.4-.4q.1,0 .2-2q.1-5.3 1.5-6.2q.4-.3 .5-.6l-.4-.4q-.2-.1 -.7,.2q-1.8,1.3 -1.9,7q0,2.1 .4,2.4" fill="#803380"></path><path d="M42,-150.7l-.2-.6q-.3,0 -.5,.1q-2.3,2.3 -2.9,4.9q-.3,2.3 .1,5.3l.4,0q-.1-3 .5-5.1q.4-2.4 2.5-4.5q-.1,0 .1-.1" fill="#803380"></path><path d="M43,-151.7l0-.4q-.4-.2 -.8-.2q-3.3,2.7 -3.6,4.1q-.1,.9 0,1.3l.6,0q.2-.2 .4-1.1q.1-1 3.2-3.5q-.2-.2 .2-.2" fill="#803380"></path><path d="M45.4,-151.8l.4,0q0-.4 -.2-.8q-2.8-.8 -4,.3q-.5,.6 -.9,1.5l.6,.2q.4-.7 .9-1.1q.7-.8 3.2,.1q-.1-.3 0-.2" fill="#803380"></path><path d="M47.6,-150.8l.6,0q0-.5 -1.8-1.6q-1-.5 -3.3-.4l0,.6q2.2,.1 2.9,.6q1.6,.9 1.6,.8" fill="#803380"></path><path d="M47.8,-148.2l.8,.2q.3-1.2 0-2.1q-.7-1.2 -2.7-2.7l-.4,.4q1.8,1.6 2.1,2.7q.4,.6 .2,1.5" fill="#803380"></path><path d="M39,-147.7l.4,.2q.4-1 .6-.9q1.9-3.2 3.1-3.3q2.8-.6 3.3,.3q2.3,3.2 1.5,4.7q.2,.4 .6,.8q.9-3.1 -.6-4.8q-.8-.6 -1.1-.7l-.4,.4q.1,.3 .7,1.1q1.3,1.1 .4,3.8q.3,.7 1.2-.2q1.1-2.1 -1.5-5.7q-1-1.3 -4.3-.7q-1.6,.4 -3.7,3.9q.1,.2 -.2,1.1" fill="#803380"></path><path d="M37.7,-145.8l.8,0q.1-1 .4-1.6q1.9-4.6 2.1-4.3q.8,.2 1.1,.1l.2-.6q-.3-.2 -1.1-.5q-1.2-.1 -3.3,4.9q-.2,.8 -.2,2" fill="#803380"></path><path d="M42.6,-152.2l-.4-1q-2.6,1.2 -3.2,2.6q-.3,1.2 -.4,1.6l.6,.2q.2-.3 .8-1.4q.3-1 2.6-2" fill="#803380"></path><path d="M38.7,-144.3l.6,0q-.1-1.7 .1-2.2q.5-4.9 1.8-5.1q.8-.3 1.1-.5l-.2-.6q-.3-.1 -1.1,.1q-2,.7 -2.6,5.9q0,.7 .3,2.4" fill="#803380"></path><path d="M38.1,-139.5l.6-.2q-.1-.5 -.1-.7q-1-5.8 .1-7.3q.5-.8 .6-1.1l-.6-.4q-.2,.2 -.8,.9q-1.3,2 -.1,8.1q.1,.2 .3,.7" fill="#803380"></path><path d="M40.9,-138.3l-.6-.4q-.3,.8 -1.1-1.3q-.4-.5 -.8-2.3l-.6,.2q.4,1.8 .6,2.5q1.5,2.5 2.5,1.3" fill="#803380"></path><path d="M39,-147.9l-.2-.4q-.4,.1 -.7,.2q-1.5,5 -.6,5.5q.5-.1 .7-.2l0-.4q-.1-.2 -.5-.4q-.2,.3 1.4-4.1q-.3-.1 -.1-.2" fill="#803380"></path><path d="M40.8,-151.3l-.2-.8q-2,.4 -2.9,7.6q.4,.3 .9,.7q-.3-1.6 .4-3.9l-.4-.2q-1,2.4 -1,4.1q.5,.7 1.1-.5q.7-6.8 2.1-7" fill="#803380"></path><path d="M43.3,-152.4l.4-.2q-.4-.9 -1-1.1q-3.6,1.2 -4.5,3.9q-.9,4.1 -.3,3.8q.5-2.6 1-3.1q1.4-2.4 .9-2.6q-.8,1.1 -1,1.5q-.7,1 -1,1.9l.6,.2q.3-.8 1-1.7q.3-.3 1.2-1.3q.3-1.2 -2.5,1.2q-.7,.9 -1.2,3.7q.2,1.6 2.3-3.2q.7-2.3 3.9-3.3q-.2-.3 .2,.3" fill="#803380"></path><path d="M44.5,-152.3l-.2-.4q-.7,.2 -.7,0q-2.4-.5 -3.2,.8q-.6,2.5 -.1,2.6q.9-2.4 1.5-2.6q.2-.2 .6,0l.2-.4q-.5-.4 -1-.4q-1.2,.3 -2.3,3q.1,1.2 2.1-1.8q.2-.7 2-.2q.3-.2 1.1-.6" fill="#803380"></path><path d="M46,-151.4l.6,0q.1-.6 -.8-1.5q-.7-.4 -3.2-.8l-.2,.6q2.4,.5 2.6,1q.9,.7 1,.7" fill="#803380"></path><path d="M46.2,-146.3l0,.4q.9,0 .7-.5q-.2,.1 -3.4,.1q-2.1,0 -3.1,.3l0,.6q1,0 3.1,.1q3.3,.1 3.8-.1q.3-.7 -1.1-.9" fill="#803380"></path><path d="M47.1,-146l0-1q-8.1-.1 -6.2,.7q6.7,.4 5.8-.1q-7.2,.1 -6.2,.6q.7-.1 .9-.2l0-.6q-.2-.1 -.9-.2q-2.1,.5 6.2,1.4q1.9-.4 -5.6-1.9q-1.1,.4 6,1.3" fill="#803380"></path><path d="M44.7,-145.6l0-.6q-4.7-.2 -4,.3q5.4,.1 4.3-.9q-6.3,.3 -4.3,.4q.5-.1 .6-.2l0-.6q-.2-.1 -.8,0q-2.8,.8 4.5,1.4q1.1-1 -4.3-1.1q-1.4,.5 4,1.3" fill="#803380"></path><path d="M48.7,-139.9l-.4,0q-.1,.1 -.3-.1q-1.2,1.2 -1.6,1.3q-3.3,1.2 -6.6-.7q-1-.4 -1.8-1.3l-.4,.4q.7,1 1.6,1.7q3.8,2.1 7.6,.9q.6-.3 2-1.5q-.1-.3 -.1-.7" fill="#803380"></path><path d="M46.5,-152.6l.6,1q1.3-.8 1.2-.8q2.4,0 2.1-.2q0,2 -1.4,3.2q-2.9,2.7 -3.9,3.6q-.7,.7 -4.8,2.8q-4.5,2.5 -4.1-.6q-.2-.4 1-2.2l-.4-.2q-1.4,1.8 -1.6,2.4q.1,4 5.5,1.6q4.3-2.1 5.2-3q.9-.9 3.9-3.6q1.6-1.5 1.6-4q-.3-.8 -3.1-.8q-.3,0 -1.8,.8" fill="#833883"></path><path d="M48.48,-148.6l.1,.1q.94-.86 1.32-1.45q.93-1.67 .8-2.14q-.07-.14 -.13-.17l-.12,.04q-.03,.06 -.01,.21q.11,.32 -.8,1.92q-.29,.6 -1.16,1.49" fill="#9c469c"></path><path d="M46.3,-146.24l-.08-.08q-.07,.03 -.12,.02q-1.01,.98 -2.79,1.82q-2.44,1.17 -3.24,1.59q-1.29,.66 -1.74,.75q-1.17,.28 -1.8,.09q-.86-.2 -.04-2.04q.11-.47 .56-1.21l-.1-.06q-.55,.68 -.82,1.13q-.78,2.09 .32,2.46q.71,.2 1.94-.07q.5-.12 1.8-.81q.8-.41 3.24-1.57q1.81-.88 2.85-1.9q-.01-.05 .02-.12" fill="#9c469c"></path><path d="M47.94,-147.93l-.08-.08q-.23,.24 -1.15,1.03l.08,.1q.93-.8 1.15-1.05" fill="#9c469c"></path><path d="M47.35,-152.19l.12,.12q.15-.09 .75-.29q.42-.2 1.76-.3l0-.12q-1.37,.04 -1.86,.16q-.62,.24 -.77,.43" fill="#9c469c"></path><path d="M41.33,-151.99l-.06-.1q-.09,.04 -.15,.04q-1.02,1.12 -.8,1q.13-.24 .19-.29q1.15-1.18 1.15-1.04q.03-.09 -.42,.3q-1.46,1.45 -1.13,1.13q.38-.71 1.1-1.18q.1-.13 .4-.28l-.04-.1q-.34,.08 -.52,.14q-.77,.51 -1.2,1.28q-.23,.7 1.57-.79q.52-.48 .46-.68q-.29-.22 -1.57,1.02q-.08,.09 -.23,.35q-.1,.45 1.2-.7q-.01-.04 .05-.1" fill="#9c469c"></path><path d="M39.6,-156.6l.6,.8q.1,0 0,0q7.4-1.6 12.2-.4q1.2,.2 1.2,5.1q0,13.1 -1.2,14.7q-.5,.9 -9.5,1.7q-6.3,.6 -6.7,.3q-1-.4 -1.5-4.3q-1.3-8.9 1-14.3q.6-1.8 4-2.8q.5-.3 1.2-.3l.2-.4q-.9-.4 -1.6-.3q-3.8,1.3 -4.8,3.4q-2.3,5.7 -1,14.9q.6,4.2 2.1,5.1q.7,.3 7.1-.3q9.3-.9 10.3-2.1q1.4-2 1.4-15.3q0-5.4 -2-6.1q-5-1.3 -12.6,.4q-.2,0 -.4,.2" fill="#9c469c"></path></svg>