<svg viewBox="39.1 6.1000000000000005 312 439.6" width="312" height="439.6" version="1.1" baseProfile="full" xmlns="http://www.w3.org/2000/svg"><path d="M41.8,44.1L44,43.9Q42.1,20.7 42.7,13Q41.8,9.6 77.5,11.1Q245.5,17.3 301.5,15.3Q348.5,13.7 347.5,13.7Q347.4,13.2 345.4,41.2Q341,99.9 338.9,144.6Q333.7,253.2 333.7,293.9Q333.8,380.6 336.3,406Q338,422.1 339.2,420.9Q296.6,418.4 282.3,418.4Q220.8,418.4 158.9,424.2Q105.2,429.4 102.4,430.2Q83.2,436.1 76.7,436.9Q58.7,439.2 58,439.5Q53.1,442.5 52.9,441.7Q51.2,440.7 51.8,416.5Q53.5,347.8 52.9,296.1Q52,209.6 50.5,180.7Q45.4,74.9 44.7,64.9Q43,45.2 43.1,14.5L41.7,14.5Q40.8,45.3 41.7,65.1Q42.3,75.1 47.3,180.9Q48.6,209.6 49.5,296.1Q50,347.8 48.4,416.5Q47.8,441.4 50.9,444.3Q53.5,445.7 59.6,442.3Q59.2,442.4 77.1,440.1Q83.9,439.2 103.4,433.4Q105.6,432.7 159.3,427.6Q220.9,421.6 282.3,421.6Q296.5,421.6 339,424.1Q341.3,423 339.7,405.6Q337.3,380.5 337.3,293.9Q337.3,253.3 342.5,144.8Q344.7,100.1 349,41.4Q351.1,13.4 350.9,12.5Q349.1,10.1 301.3,11.7Q245.5,13.5 77.7,7.3Q40.2,6.1 39.1,13Q39.4,20.8 41.8,44.1" fill="#803380"></path><path d="M58.1,28l.8,3.8q13.8-3.2 18.2-3.1q152.5,2 203.4,2.1q42.3,.1 42.8,1q2.4,1.6 1.1,37.1q-1.4,41.6 -3.2,62.7q-8.6,99 -11.2,132q-3.8,48.8 -5.1,101q-.6,27.3 .6,26.3q-15.7-1.7 -20.9-1.9q-48.3-2.3 -152.6,3.6q-55.3,3.1 -54.7,2.5q-2-3.8 -4.9-74.5q-2.1-51.6 -.5-97q.9-28.1 -5.1-111.5q-2.8-34.4 -4.5-83.6l-1.6,0q1,49.3 3.1,83.8q5.8,83.3 4.7,111.1q-1.6,45.6 .5,97.4q2.9,70.9 5.3,75.9q2,2.3 57.9-.9q104.1-5.9 152.2-3.8q5.2,.3 20.7,1.9q2.4-.9 3.2-29.3q1.4-52 5.3-100.8q2.6-32.9 11.2-131.8q1.9-21.3 3.4-62.9q1.2-36.4 -2.3-40.1q-2.6-1.9 -45.4-2q-50.8-.2 -203.4-2.3q-5,0 -19,3.3" fill="#803380"></path><path d="M185.3,400.8l1.2,.8q.7-.5 1.1-.1q8.3-5.8 17.6-1.8q11.8,4 7.2,7.4q-8.6,8.5 -18.4,7.9q-15.7-.1 -12.1-5.2q5.3-11 8.7-11.7q2.7-1.2 7.7,0l.4-1.6q-5.3-1.9 -8.9-1.4q-4.9,1.4 -10.9,13.3q-3.1,8.5 14.9,9.8q11.2,.3 20.8-8.9q5.6-6.6 -8-12.8q-11.1-4.2 -20.8,2.4q-.1,.8 -.5,1.9" fill="#803380"></path><path d="M181,411.1l1.4,0q.1-.6 .1-.6q.5-2.3 5.8-8.5l-.4-.4q-5.6,6.1 -6.8,8.3q-.1,.4 -.1,1.2" fill="#803380"></path><path d="M181.4,413.5l1.4,0q.1-.7 .1-.9q.6-2.6 5.6-8.5l-.6-.6q-5.4,5.9 -6.4,8.7q-.1,.4 -.1,1.3" fill="#803380"></path><path d="M182.6,413.7l1.4,.2q.2-.9 .8-1.9q1.2-2.9 3.7-5.9l-.4-.4q-2.9,2.8 -4.7,5.5q-.6,1.3 -.8,2.5" fill="#803380"></path><path d="M184.2,414.6l.6,0q.3-.9 .6-1q.7-1.6 3.9-5.1l-.6-.6q-3.5,3.4 -4.5,5.1q0,.5 0,1.6" fill="#803380"></path><path d="M185.8,415.3l1.2-.6q-.5-.1 3.1-4.5l-.6-.6q-3.9,4.6 -3.7,5.7" fill="#803380"></path><path d="M187.8,414.6l1.4,.4q.2-1 2.5-3.8l-.6-.6q-2.6,2.8 -3.3,4" fill="#803380"></path><path d="M189.6,415.3l1.4,0q-.2-.1 1.2-2.4l-.8-.6q-1.6,2.4 -1.8,3" fill="#803380"></path><path d="M192.7,415.8l-.2-.6q-.4,.2 .2,.5q0-.6 .5-2l-.8-.4q-.8,1.4 -1.1,2.2q.5,.6 1.4,.3" fill="#803380"></path><path d="M93.7,36l.2,1q16.2-1.5 36.9,.5q50.6,3.9 88.4,2.9q50.2-1.3 66.5,1.4q12,1.9 16.2,1.9q7.4-.3 6.8,.7q.5,13.6 .9,18.1q1.3,14.3 -3.6,23.4q-2.5,5 -14.8,4.7q-32.2-.5 -42.9-.1q-15.7,.6 -20.8,.3q-56.5-3.3 -75.4-2.8q-18.3,.4 -57.8-3.2q-7.3-.4 -8.7-10.5q-5-29 3.5-34.6q1.9-2 11.4-2.5l0-1q-9.8,.1 -12.8,1.5q-9.5,6.9 -4.7,37q2.2,11.6 11.1,12.7q39.6,3.7 58,3.2q18.8-.4 75.2,2.8q5.3,.3 21-.3q10.7-.4 42.9,.1q13.4,.1 17-6.1q5.3-9.8 4.2-24.8q-.4-4.5 -.9-18.1q-.8-3.2 -9.6-3.3q-3.9,.1 -15.8-1.9q-16.6-2.7 -66.9-1.4q-37.7,1 -88.2-2.9q-20.9-1.2 -37.3,1.3" fill="#803380"></path><path d="M92.1,52.8l.2-.4q-.5-.3 -1.9-.4l0,.4q1.3,.1 1.7,.4" fill="#803380"></path><path d="M91.7,51.5l0-.4q-.4,0 -1.9-.1l0,.4q1.5,.1 1.9,.1" fill="#803380"></path><path d="M91.2,50.8l0-1q-1.6,0 -1.3,.1q.6-1.6 -.1-2q-1.5-.3 -1.4-1q-.1-2.5 1.8-2.3q4.3-.1 4.2,1.3q0,2.6 -.5,2.4q-2.1,0 -2.4,.8q0,.5 .2,1.3l.4,0q0-.8 .2-1.1q-.1-.2 1.6-.2q1.3-.1 1.3-3.2q-.1-2.2 -5-2.3q-2.5,.2 -2.6,3.3q.1,1.3 2,1.8q0-.2 -.5,.8q-.1,.9 2.1,1.3" fill="#803380"></path><path d="M89,40.4l0,.8q4.4,0 5.5,1.1q4.9,3.9 2,9.2q-1.9,3.7 -4.4,3.1q-5.7-.9 -5.6-5.3q-.1-6.1 2.4-7.2q.3-.3 1-.3l0-.4q-.8-.2 -1.4-.1q-2.9,1.5 -3,8q.1,5 6.4,6.3q3.2,.5 5.4-3.7q3.1-5.9 -2.2-10.4q-1.5-1.1 -6.1-1.1" fill="#803380"></path><path d="M89.98,50.16l.32-.12q-.31-.79 0-1.34q.31-.64 .08-.86q-.58-.3 -.49-.3q.24-.55 .09-.57q.09,.23 .27,.26q-.35-.69 .55-.8q1.19-.25 1.22-.06q.26,.38 -.12,.45q-.55,.23 -.44,.24q-.13-.26 -.31-.27q.2,.47 .05,.88q-.48,1.35 -.38,1.78q.1,.31 .16,.4l.2-.04q.01-.12 -.04-.44q-.08-.3 .38-1.58q.18-.54 -.05-1.14q-.25-.17 -.35,.41q.12,.31 .9,.08q.58-.27 .3-.93q-.25-.36 -1.58-.12q-1.13,.28 -.81,1.26q.24,.18 .39-.36q-.13-.33 -.71,.37q-.12,.33 .61,.78q.05-.06 -.22,.4q-.35,.7 -.02,1.62" fill="#803380"></path><path d="M103.3,51.4l.8,0q0-.1 .2-2q.1-1.9 .1-2.6l-.4,0q-.2,.6 -.5,2.6q-.2,1.8 -.2,2" fill="#803380"></path><path d="M105.2,50l.6,.6q.4-.5 .4-2.1q-.2-3.2 -1.4-2.7q-.3,.4 -.8,1.3l.4,.2q.5-.8 .8-.9q.3-.6 .2,2.1q.1,1.4 -.2,1.5" fill="#803380"></path><path d="M107.2,50.4l.8,.2q.7-2.7 .5-3.7q-.8-2.6 -2.3-1q-.3,.5 -.5,1.4l.4,.2q.4-.9 .7-1.2q.7-1.3 .9,.8q.2,.7 -.5,3.3" fill="#803380"></path><path d="M112.9,50.5l0-.6q-.7,.1 -.5,.2q-.7-4.3 -1.2-3.1q-.1,1.5 -.9,2.2q-.9,1.2 -.2,0q.6-2.7 .4-2.2q.2,.5 .4,.6l.4-.2q.1-.2 0-.6q-.7-1.2 -2,2.2q-.3,2.2 1.6,.8q1-1 1.1-2.8q-.4-.3 -.4,3.1q.3,.5 1.3,.4" fill="#803380"></path><path d="M113.5,51.2l.2-.2q-.2-.3 .1-.2q-.2-1.3 .2-7.3l-.4,0q-.6,5.9 -.8,7.3q.3,.3 .7,.4" fill="#803380"></path><path d="M115.2,50.6l.2-.2q0-.3 .1-2q-.1-2.8 .1-4.9l-.4,0q-.6,2.1 -.7,4.9q.1,1.8 .7,2.2" fill="#803380"></path><path d="M120.2,46.5l-.4,.8q.9,.4 .2,1.4q-.5,1.4 -.4,.5q-.5-1.5 -1.2-1.1q-.9,1.7 -.5,1.6q-.3-.6 -.3-.7q-.2-.7 -.1-1.9l-.4,0q-.3,1.2 -.3,1.9q.1,.3 .3,1.1q.6,.5 2.1-1.6q-.4,0 -.4,.9q.6,1.6 2-.3q.8-1.6 -.6-2.6" fill="#803380"></path><path d="M125.2,49.6l-.6-.4q-.3,.7 0,.5q-.4-.8 -.5-1q-.5-.6 -1-.4q-1.3,1.4 -1,1.3q-.4-1.8 .2-1.5q.7,.1 .9,0l0-.6q-.2-.1 -.7-.2q-1.6,0 -1.2,2.5q.5,.8 2.4-.9q-.4,0 -.4,.2q.1,.2 .5,1q.6,.6 1.4-.5" fill="#803380"></path><path d="M127.9,47.8l.2-.2q-.6-.7 -1.2-.5q-.9,2.8 -.5,2.8q-.3-.3 -.3-1.5l-.6,0q0,1.3 .1,1.9q.7,.5 2.3-2.8q-.4-.1 0,.3" fill="#803380"></path><path d="M130.2,50.5l-.6-.6q-1.1,1.2 -.9,.7q-.5-1.5 -.1-1.7q.9-1 .5-1.2q-.2,1.1 -.2,.9q-.4,.1 -.6,.2l0,.6q.2,.1 .6,.2q.7-.2 1.2-1.7q-.2-.9 -2.1,.2q-.8,.8 -.3,2.7q.7,1.2 2.5-.3" fill="#803380"></path><path d="M132.1,50.8l0-.4q-.4,0 -.5,0l.2,.6q.1-.1 .3-.2" fill="#803380"></path><path d="M136.4,50.7l0-.4q-.4-.1 -.6-.2q-2.1,.8 -1.6-.7q.1-2 .2-1.6q.6,.3 .9,.3l.2-.4q-.1-.3 -.7-.7q-1-.3 -1.6,2.2q-.1,2.5 2.8,1.7q0-.2 .4-.2" fill="#803380"></path><path d="M137.9,48.3l.2-.4q-.3,0 -.5,.5q2.3,.3 1.1,1q-1.9,2.1 -1.5,.7q-.1-2.5 -.1-2q.7,.4 .9,.4l.4-.4q-.2-.3 -.7-.8q-1.2-.4 -1.5,2.8q.3,2.3 3.1,.1q1.5-1.8 -1.5-2.8q-.4,.4 .1,.9" fill="#803380"></path><path d="M141.4,51.1l-.4-.6q.3,.2 .4-2.5l-.6,0q.1,3.1 .6,3.1" fill="#803380"></path><path d="M143.7,49.7l-.4-.2q-.1,.3 .3,.6q.5-4.9 -1.7-2.8q-.5,.7 -.6,.9l.4,.4q.3-.2 .8-.7q1.2-1.9 .3,2q.3,.5 .9-.2" fill="#803380"></path><path d="M145.2,51.1l.6-.8q-.2,0 0-.4q.7-3.7 -1.3-3.2q-.5,.4 -1.1,1.2l.4,.4q.6-.7 1.1-.8q.9-.7 -.1,2.2q-.1,.9 .4,1.4" fill="#803380"></path><path d="M156.2,49.4l0-1q-4.8,.4 -6.4,.6l0,.6q1.6,0 6.4-.2" fill="#803380"></path><path d="M161.2,50.6l-.2,.2q.2,.3 .6,.2q-.1-.1 .7-5.5l-.4,0q-.8,5.3 -.9,5.3q.3,0 .2-.2" fill="#803380"></path><path d="M159.3,50.7l0,.8q1.4,0 1.9,0q3.5-.2 3.6-1.8q0-2 -1-2.2q-2.7-.1 -2,.4q2.1,.5 2.8-.5q1-2.1 -1.8-2.9q-2.5-.6 -3,.4q0,.2 0,.3l.4,.2q.1-.1 .2-.3q.1-.6 2.2,0q2.5,.5 1.4,1.9q-.3,.8 -2,.3q-.2,.3 1.8,.8q.4,0 .4,1.6q.1,1.1 -3,1q-.5,.1 -1.9,0" fill="#803380"></path><path d="M168,50.8l0-.4q-.7,0 -.6-.5q-.2-.8 -.6-.6q-.6,1.9 -.6,1.2q-.2-.2 -.3-1.7l-.4,0q.1,1.5 .1,1.9q.6,1.1 1.8-1.2q-.4,.2 -.6,.4q.1,.9 1.2,.9" fill="#803380"></path><path d="M169.4,50.1l.4-.6q-.4-.3 -.4-.3q-.3-.8 -.5-1.1l-.4,.2q0,.3 .3,1.1q.1,.3 .6,.7" fill="#803380"></path><path d="M167.4,54.7l.2,0q1.1-3 2.1-4.6q.4-1.1 1.3-2.3l-.4-.2q-.9,1.1 -1.5,2.1q-.8,1.8 -1.7,5" fill="#803380"></path><path d="M178.8,51l.4-.2q-.2-.3 .1-2.2q.4-3.6 -1.8-2.3q-.4,.4 -.8,1.3l.4,.2q.4-.9 .8-1.1q1.4-1.2 .8,1.9q-.3,2 .1,2.4" fill="#803380"></path><path d="M178.6,50.6l-.4-.4q-.3,.2 -.3,.2q-1.6,0 -1.3-.1q.5-1.4 1.3-1.3q.2-.1 .8,.2l.2-.2q-.6-.5 -1-.6q-1.2,0 -1.9,1.7q-.1,.8 1.9,.9q.3,0 .7-.4" fill="#803380"></path><path d="M184.6,50.53l.5-.14q-.2-.35 -.2-4.12l-.28,0q-.06,3.8 -.02,4.26" fill="#803380"></path><path d="M186.63,50.48l.54,.04q.16-2.74 -.17-3.63q-.67-1.63 -1.59-1.45q-.26,.13 -.65,.72l.22,.16q.38-.5 .53-.48q.56-.19 1.01,1.23q.28,.76 .11,3.41" fill="#803380"></path><path d="M190.16,49.83l-.16-.14q-.24,.18 -.27,.06q-1.82,.18 -1.32-1.72q.47-2.96 1.51-1.02q.23,.13 -.07,.05q-.75,.13 -1.72,.2l0,.3q1,.02 1.78-.02q.68-.18 .43-.81q-1.58-2.16 -2.45,1.2q-.4,2.34 1.86,2.36q.18-.13 .41-.46" fill="#803380"></path><path d="M194.31,45.6l-.5,.3q.12,.19 .1,.16q.93,2.89 .22,2.89q-.51,.18 -.48-.2q-.74-2.85 -.95-2.04q.07,1.28 -.08,1.6q-.59,1.57 -.85,.83q-.87-1.37 -.45-2.35q.14-.46 .13-.63l-.22-.1q-.13,.12 -.35,.55q-.48,1.22 .45,2.81q.79,.98 1.77-.89q.21-.47 .14-1.84q-.27-.25 -.13,2.14q.22,.75 1.12,.66q1.15-.35 .24-3.59q-.03-.07 -.16-.3" fill="#803380"></path><path d="M195.36,50.34l.1,.56q.79-.22 .85-1.15q-.07-.51 -.37-1.16l-.26,.1q.18,.62 .11,1.06q.05,.59 -.43,.59" fill="#803380"></path><path d="M201.54,45.23l-.36-.08q-.09,.43 -.12,.58q-.65,4.4 -.49,4.32q-.73-1.36 -1.23-3.11q-.29-.9 -.42-1.56l-.18,.02q.03,.7 .26,1.64q.5,1.78 1.25,3.19q.33,.24 1.19-4.44q.02-.14 .1-.56" fill="#803380"></path><path d="M202.2,49.53l.34-.16q-.11-.03 -.08-2.1l-.18,0q-.07,2.08 -.08,2.26" fill="#803380"></path><path d="M202.16,46.19l.3-.22q-.27-.07 -.24,.44l.24-.06q-.13-.22 -.3-.16" fill="#803380"></path><path d="M203.17,49.08l.36-.06q-.02-.12 -.02-.15q-.05-1.22 -.2-2.25l-.14,.02q.04,1.02 -.02,2.23q0,.06 .02,.21" fill="#803380"></path><path d="M204.35,46.54l.14-.02q-.12-.69 -.74-.43q-.35,.27 -.67,.93l.2,.1q.32-.58 .65-.73q.34-.34 .42,.15" fill="#803380"></path><path d="M205.91,46.15l.26,.1q-.02-.24 -.09,.19q.21,1.3 -.1,1.54q-.72,.79 -.76-.41q-.09-.43 -.06-1.14l-.2-.02q-.09,.73 -.08,1.2q.25,1.48 1.34,.63q.42-.42 .22-1.86q-.24-.69 -.53-.23" fill="#803380"></path><path d="M206.78,48.51l-.28,.12q.06,.16 .16,.25q1.76,.43 .99-1.58q-.55-1.2 -.49-1.11q.45-.21 .37-.19q.05,.2 .12,.26l.14-.02q.05-.07 .06-.28q-.12-.32 -.81-.11q-.3,.22 .27,1.59q.82,1.62 -.53,1.06q.03,.07 0,.01" fill="#803380"></path><path d="M210.28,47.48l.12-.34q-.12,.03 -1.58,.05l0,.22q1.44,0 1.46,.07" fill="#803380"></path><path d="M211.1,50.09l.34-.02q-.03-.42 -.02-.54q.23-5.84 .55-5.75q.71-.1 .61,.67q.03,.62 -.38,1.52l.18,.08q.49-.91 .58-1.58q-.02-1.06 -1.01-1.07q-.63,.14 -.89,6.11q0,.15 .04,.58" fill="#803380"></path><path d="M212.17,47.95l-.04-.38q-1.35,.18 -1.8,.28l.02,.2q.46,.02 1.82-.1" fill="#803380"></path><path d="M214.49,46.65l.2-.12q-.28-.43 -.69-.27q-.87,.59 -.82,1.25q.42,1.73 .54,1.49q-.15-.38 -.48-2.25l-.18,.02q.28,1.9 .32,2.31q.3,.52 .18-1.63q-.1-.42 .64-.87q.14-.19 .29,.07" fill="#803380"></path><path d="M216.63,48.55l-.16-.08q-.12,.18 -.27,.11q-.99,.07 -1-.37q-.27-1.36 .38-1.34q.51-.12 .3,.11q-.38,.95 -.54,.75q-.21-.1 -.3-.11l-.1,.16q.04,.08 .22,.23q.49,.23 1.04-.89q.16-.59 -.64-.61q-.94,.14 -.72,1.76q.17,.69 1.38,.69q.28-.09 .41-.41" fill="#803380"></path><path d="M218.78,48.77l-.06-.12q-.36,.16 -.46,.07q-1.42,.02 -1.27-.7q.12-1.32 .37-1.22q.5,0 .41,.03q-.16,.84 -.4,.79q-.27,.01 -.36,.04l0,.18q.08,.04 .34,.08q.5-.01 .76-1.01q0-.37 -.73-.47q-.55,.03 -.75,1.54q-.05,1.03 1.63,1.12q.17-.08 .52-.33" fill="#803380"></path><path d="M219.12,45.83l.12,.24q.19-.14 1.11-1.79l-.18-.1q-.91,1.62 -1.05,1.65" fill="#803380"></path><path d="M220.26,45.98l-.06-.28q-.04,.01 .05,.03q-.6-.75 -.66-1.15q-.07-.43 -.12-.57l-.2,.02q-.02,.15 .02,.59q.05,.51 .68,1.33q.13,.07 .29,.03" fill="#803380"></path><path d="M219.63,45.99l.12,.02q.12-1.02 .19-1.36q-.02-.35 .06-.86l-.22-.04q-.12,.52 -.16,.9q.05,.33 .01,1.34" fill="#803380"></path><path d="M220.71,45.01l0-.14q-.1-.03 -.12-.1q-.34,0 -1.78,.01l0,.24q1.43,.03 1.76,.09q.04-.06 .14-.1" fill="#803380"></path><path d="M220.97,45.81l.28,.16q.94-1.58 1.23-2.12l-.16-.1q-.37,.49 -1.35,2.06" fill="#803380"></path><path d="M222.19,45.78l0-.36q-.1,.03 -.14-.1q-.33-.48 -.71-1.45l-.2,.08q.33,1 .59,1.55q.18,.26 .46,.28" fill="#803380"></path><path d="M221.5,45.85l.3,.12q.03-.2 .13-2.62l-.22-.02q-.12,2.41 -.21,2.52" fill="#803380"></path><path d="M222.48,44.93l.04-.3q-.42-.06 -.57-.07q-.33,.08 -1.14,.04l-.02,.24q.82,.1 1.2,.1q.1-.04 .49-.01" fill="#803380"></path><path d="M222.71,45.59l.28,.2q1.05-1.56 1.38-2.09l-.16-.12q-.41,.48 -1.5,2.01" fill="#803380"></path><path d="M223.87,45.32l-.04-.12q-.07-.02 -.01-.09q-.24-.07 -.68-1.34l-.22,.08q.42,1.34 .72,1.58q.11-.04 .23-.11" fill="#803380"></path><path d="M223.33,45.63l.36,.04q.01-.49 .02-2.58l-.22,0q-.05,2.08 -.16,2.54" fill="#803380"></path><path d="M224.43,44.74l.04-.36q-.25,.01 -1.76,.05l0,.24q1.51,0 1.72,.07" fill="#803380"></path><path d="M232.41,48.41l-.36-.16q-.03,.06 0,.01q-1.34,.81 -1.83-.21q-1.07-1.78 .18-2.81q1.08-1.09 1-.69q.04,.3 .09,.39l.18,0q.04-.11 .05-.41q-.14-.77 -1.6,.39q-1.39,1.3 -.28,3.35q.78,1.22 2.41,.37q.09-.08 .16-.23" fill="#803380"></path><path d="M233.78,45.52l0,.16q.5,.05 .62,.81q.43,1.28 -.56,1.41q-1.72,.46 -.87-1.32q.43-1.18 .42-1.03q.21,.15 .31,.17l.14-.16q-.03-.09 -.19-.29q-.43-.23 -1.06,1.15q-.79,2.2 1.33,1.88q1.28-.33 .9-1.93q-.34-.87 -1.04-.85" fill="#803380"></path><path d="M235.52,47.67l.4,.02q-.04-.44 -.1-2.14l-.24,0q.02,1.7 -.06,2.12" fill="#803380"></path><path d="M236.81,47.44l.4-.02q-.04-.52 -.03-.68q.06-2.03 -.94-1.54q-.41,.28 -.67,.66l.18,.14q.26-.32 .65-.52q.61-.49 .4,1.24q-.02,.19 .01,.72" fill="#803380"></path><path d="M238.18,47.76l.42,0q-.01-2.19 -.11-2.35q-.78-.87 -1.3-.46q-.25,.27 -.32,.38l.16,.16q.11-.06 .4-.3q.21-.28 .76,.46q0-.03 -.01,2.11" fill="#803380"></path><path d="M239.2,48.41l.32,.26q.11-.14 .13-.26q-.02-1.28 -.29-3.59l-.24,.02q.2,2.3 .11,3.55q.02-.04 -.03,.02" fill="#803380"></path><path d="M239.46,46.02l-.08-.24q-.35,.17 -.21,.4q.84,.21 1.24-.23q.73-1.01 .14-1.39q-1.03-.49 -1.34-.19q-.19,.29 -.23,.4l.18,.14q.1-.07 .33-.32q.05-.16 .9,.29q.37,.1 -.28,.83q-.19,.3 -.84,.09q.03,.2 .19,.22" fill="#803380"></path><path d="M242.7,44l-.4,.1q.37,1.38 .13,1.61q-.62,.92 -.65,.4q-.16-.45 -.18-1.62l-.22,0q-.04,1.19 .06,1.72q.32,.81 1.31-.24q.33-.46 -.05-1.97" fill="#803380"></path><path d="M244.16,46.35l-.12-.08q-.02,.07 .18,.11q-.14-.45 -.06-3.68l-.24,0q-.13,3.23 -.12,3.74q.21,.11 .36-.09" fill="#803380"></path><path d="M244.94,44.94l.04-.4q-.22,.03 -1.82,0l0,.26q1.59,.08 1.78,.14" fill="#803380"></path><path d="M247.31,45.93l-.08-.12q-.14,.04 -.2-.02q-1.1,.5 -1.16-.18q-.44-1.65 .32-1.44q1.12,.01 .4,.29q-.79,.51 -.85,.41q-.28-.15 -.4-.17l-.12,.2q.06,.1 .3,.29q.35,.17 1.29-.39q.9-.72 -.56-1.05q-1.16-.04 -.78,1.96q.31,.95 1.7,.44q.03-.09 .14-.22" fill="#803380"></path><path d="M249.98,44.63l.26-.2q-.3-.39 -.46-.52q-.97-.43 -1.3,.55q-.23,1.42 -.11,1.24q-.16-.25 -.25-1.8l-.22,0q.04,1.58 .09,1.94q.35,.46 .91-1.28q.08-.68 .68-.27q.11,.02 .4,.34" fill="#803380"></path><path d="M251.3,44.79l.32,.1q.77-2.44 .99-3.26l-.18-.06q-.31,.8 -1.13,3.22" fill="#803380"></path><path d="M251.22,45.94l-.36-.04q.01,.12 .05,.17l.22,.02q.05-.03 .09-.15" fill="#803380"></path><path d="M97,63.8l.8,0q-.1-1.2 0-5.2l-.4,0q-.3,4 -.4,5.2" fill="#803380"></path><path d="M99.5,58l.2,0q.1-.3 -.2-.6q-2.9,.7 -3.7,1.2q-.3,.3 -.4,.5l.2,.2q.2,.1 .6-.1q.7-.4 3.5-1q-.2-.3 -.2-.2" fill="#803380"></path><path d="M100.2,62.4l.2,.2q.3-.2 .5-.4q.1-3.6 0-4.8l-.4,0q-.1,1.2 -.4,4.8q.2,0 .1,.2" fill="#803380"></path><path d="M101.6,62.6l.8,0q0-2.3 -.4-2.7q-1.3-.8 -1.6,.3q0,.6 0,.9l.4,0q.1-.2 .2-.9q-.1-.5 .6,.3q0-.1 0,2.1" fill="#803380"></path><path d="M106,62.2l0-.4q-.8-.1 -.5,0q-.7-1.6 -1.1-1.5q.4,.8 -.1,1.1q-.9,.9 -.6,.3q-.1-2.6 .1-1.9q.3,.3 .5,.3l.2-.2q0-.2 -.1-.5q-1.1-1 -1.5,2.3q.2,1.3 1.8,.3q.8-.7 .5-1.9q-.7-.7 -.5,1.9q.3,.2 1.3,.2" fill="#803380"></path><path d="M108.5,62.3l-.2-.4q-.3,.1 0,.2q-.3-4.2 -1.3-2.6q-.6,2.6 -.2,2.5q0-.7 -.2-2.5l-.4,0q0,1.8 -.2,2.3q.2,1.1 1.8-2.1q0-1 -.3,2.4q.3,.4 1,.2" fill="#803380"></path><path d="M110.1,61.9l-.2,0q0,.3 .4,.4q.2-2.2 .2-2.9q-.1-1 -.4-2.2l-.4,0q.1,1.2 0,2.2q0,.7 -.2,2.9q.4,.3 .6-.4" fill="#803380"></path><path d="M112.4,61.4l-.2,0q-.1,.2 -.3,.1q-.3,.7 -.1,.4q-.5-1.2 -.9-1.5q-.5-.3 -.8-.4l-.2,.4q.1,.2 .6,.6q.2,.1 .5,1.1q.6,.8 1.5-.2q-.1-.2 -.1-.5" fill="#803380"></path><path d="M112.2,58.5l-.4-.6q-.3,.3 -1.7,2.5l.4,.2q1.4-2.1 1.7-2.1" fill="#803380"></path><path d="M118,61.2l0-.6q0,.1 -1.3-1.3l-.2,.2q1.2,1.5 1.5,1.7" fill="#803380"></path><path d="M116.8,63.9l.6-.4q-.2,0 2.2-5l-.4-.2q-2.4,5.1 -2.4,5.6" fill="#803380"></path><path d="M120.8,59.6l-.4,.4q.5,.4 .3,.3q-.4,2.4 -.5,1.5q-.6-1.3 -.1-1.4q.4-.3 .5-.4l-.2-.4q-.2,0 -.7,.2q-.7,.5 -.1,2.2q.8,1.5 1.9-1.5q-.1-.4 -.7-.9" fill="#803380"></path><path d="M125.3,62.3l-.2-.6q-.6,.3 -.4,.1q-.8-1.8 -1.1-1.1q.1-.3 0-.3q-.8,2.2 -.7,1.3q-.3-.6 -.2-1.9l-.4,0q-.3,1.4 -.2,2.1q.8,1.4 2.3-1.1q.1-.3 0-.9q-.4,.8 -.5,2.1q.4,.6 1.4,.3" fill="#803380"></path><path d="M129.5,65.9l.8,0q0-.5 0-.6q-.1-6.8 .9-7.6q1.1-1.4 .6,.1q0,.7 -.4,2.3l.4,.2q.6-1.6 .8-2.3q.1-2.4 -2-.9q-1.1,1.2 -1.1,8.2q0,.2 0,.6" fill="#803380"></path><path d="M131.5,62.1l-.2-.6q-.4,.2 -2.2,.2l0,.6q1.9,0 2.4-.2" fill="#803380"></path><path d="M132.6,61l.2,0q.1-.1 0,.2q.5-.1 .2,.2q-.2,1.7 -.4,1q-.9-1.1 -.6-1.1q.7-.3 .9-.5l-.2-.4q-.3,0 -.9,.3q-.8,.5 .2,2.1q1,1 1.8-1.2q.1-.9 -1-1.2q-.2,.2 -.2,.6" fill="#803380"></path><path d="M136.5,61.1l.2,0q.1-.4 -.1-.7q-1.1-.2 -1.5,.4q-.5,2 -.2,1.9q0-.3 .2-1.1l-.4-.2q-.3,.9 -.4,1.3q.2,.9 1.6-1.5q-.1-.2 .5,0q0-.3 .1-.1" fill="#803380"></path><path d="M141.9,62.7l.6,0q.1-1 0-1.9l-.4,0q-.1,.8 -.2,1.9" fill="#803380"></path><path d="M142.7,59.6q0,.3 -.3,.3q-.3,0 -.3-.3q0-.3 .3-.3q.3,0 .3,.3" fill="#803380"></path><path d="M144.8,62.2l.8-.2q-.8-2.3 -1.3-1.9q-.7,2 -.4,1.9q0-1.1 -.1-1.5l-.4,0q-.1,.4 -.1,1.5q.3,.9 1.6-1.5q-.3-.1 -.1,1.7" fill="#803380"></path><path d="M146.4,61.8l0,.8q1.8-.2 1.2-1.3q-1.1-1.1 -1.1-.8q.6,0 .9-.1l0-.4q-.2-.1 -.9-.3q-.8,.2 .5,2q.5,.3 -.6,.1" fill="#803380"></path><path d="M148.5,62.4l.8,0q-.1-2.9 -.1-4.5l-.4,0q-.2,1.6 -.3,4.5" fill="#803380"></path><path d="M150.2,60.9l0-.6q-.5,0 -2.4,.2l0,.4q1.9,0 2.4,0" fill="#803380"></path><path d="M153.4,61.3l-.2-.2q-.7,.4 -.4,.2q-.4-1.4 -1.1-1.2q-1.1,1.5 -.8,1.4q0-1.2 0-1q.7,.1 1,0l0-.4q-.2-.2 -.8-.4q-.8,0 -1,1.8q.3,.8 2.2-.8q-.3-.2 -.3,.8q.4,.4 1.4-.2" fill="#803380"></path><path d="M154.2,61.9l-.4-.6q0,.2 .3,.4q-.1-1.2 .1-4.8l-.4,0q-.4,3.6 -.5,4.8q.3,.4 .9,.2" fill="#803380"></path><path d="M155.2,61.8l.2-.6q-.1,0 .1,.2q.4-3.9 .4-5.3l-.4,0q-.3,1.3 -.8,5.3q.2,.3 .5,.4" fill="#803380"></path><path d="M156.7,61.2l-.2-.6q.2,.2 .4-.9l-.4,0q-.2,1.3 .2,1.5" fill="#803380"></path><path d="M157,58.5l.2-.2q-.2-.2 -.3-.3l-.2,.4q.1,0 .3,.1" fill="#803380"></path><path d="M160.7,60.7l-.2-.2q-.6,.6 -.3,.5q-.3-2.5 -1.1-2q-1.2,2 -.8,1.9q0-.5 .1-2.1l-.4,0q-.3,1.5 -.5,1.9q.2,1 2.2-1.3q-.2-.2 -.3,1.6q.4,.5 1.3-.3" fill="#803380"></path><path d="M160.7,64.4l-.2-.2q-.2,.4 -.4,.5q-.5,2.6 .2,3.2q1.7,1 2-.3q.3-3.5 .4-4.7q.1-4.3 -.3-4q-.6,1.4 -1.2,1.4q-1,.6 .2-.5q.1-.3 .6-.4l0-.4q-.7-.1 -1.2,.4q-1.2,1.8 .6,1.7q.9-.4 1.6-2q-.4,.2 -1.1,3.8q-.1,1.1 -.4,4.7q.2,.5 -.8-.3q-.5-.2 0-2.4q-.1-.2 0-.5" fill="#803380"></path><path d="M170.6,61.2l.6,0q.3-3.8 .3-5.1l-.4,0q-.2,1.3 -.5,5.1" fill="#803380"></path><path d="M172.3,58.6l-.2-.6q-.5,.2 -2.7,.2l0,.6q2.2,0 2.9-.2" fill="#803380"></path><path d="M172.2,60.5l.8,.2q.1-.8 0-4.6l-.4,0q-.1,3.8 -.4,4.4" fill="#803380"></path><path d="M174,60.7l.8,.2q.3-2.6 -.6-2.7q-.5,.1 -1.3,.6l.2,.4q.8-.4 1.1-.4q.2-.2 -.2,1.9" fill="#803380"></path><path d="M177.8,60.8l0-.2q-1.9,.3 -1.7,0q-.6-1.9 0-2.2q.9-.9 .5-.4q-.5,1.5 -.6,1.2q-.4-.2 -.6-.2l-.2,.4q.1,.1 .4,.4q.8,.3 1.6-1.6q.3-1.3 -1.5-.4q-1,.7 -.4,3q.5,.5 2.5,0" fill="#803380"></path><path d="M187.6,60.9l.6-.4q-.2-.3 -.2-.5q-.2-4.2 -.9-3.2q-1,4.3 -.8,3q-.8-3.5 -1.3-2.6q-.1,1 -1.3,3.9l.2,.2q1.4-2.9 1.7-3.9q-.2-.4 -.1,2.6q.6,1.9 2.4-3q-.3-.5 -.7,3q0,.4 .4,.9" fill="#803380"></path><path d="M191.4,59.7l-.2-.4q-.7,.7 -.5,.3q-.4-1.1 -1-.8q-1.2,1.9 -.6,1q.2-1.4 .2-1.1q.2-.1 .3,.3l.4,0q-.1-.7 -.5-1.1q-.7,0 -1.2,1.7q0,1.9 2-.4q-.4,0 -.4,.6q.5,.7 1.5-.1" fill="#803380"></path><path d="M191.9,60l-.2-.2q-.3,.4 .1,.5q0-.7 .2-2.3q0-.8 .3-1.8l-.4-.2q-.5,1 -.7,2q-.2,1.6 -.2,2.3q.4,.3 .9-.3" fill="#803380"></path><path d="M192.7,60.1l.8-.2q-.2-.2 .2-4l-.4,0q-.5,3.8 -.6,4.2" fill="#803380"></path><path d="M197.3,58.5l0-.2q-.2-.1 -.4-.3q-.3,.2 -1.5,.3l0,.4q1.2,.1 1.7,.1q0-.2 .2-.3" fill="#803380"></path><path d="M202.4,56.3l.2,.2q.1-.2 -.3-.3q0,2 -.3,2.5q-.4,1.7 -.3,.9q-.9-2.3 -1.5-1.6q-.2,.6 -.6,1q-.9,1.6 -.4-1.2q0-.9 -.1-1.2l-.4,0q-.1,.3 -.3,1.2q0,3.5 1.8,1.8q.5-.6 .8-1.4q-.3-.1 -.1,1.6q.7,1.4 1.9-.7q.3-.8 .3-2.9q-.4-.3 -.7,.1" fill="#803380"></path><path d="M206.7,59.5l-.2-.2q-.4,.2 -.1,.2q-.3-1.5 -1-1.3q-1.3,1.6 -1,1.3q-.4-1.3 .3-1.1q.2-.1 .6,.1l.2-.4q-.4-.3 -.8-.5q-1.3,.1 -1.1,2.1q.5,.8 2.4-.9q-.3-.2 -.4,.7q.4,.3 1.1,0" fill="#803380"></path><path d="M209.1,57.9l.6,0q-.4-1.5 -1.2-.7q-1.1,2.7 -.8,2.3q-.2-.3 -.2-1.4l-.4,0q-.2,1.1 -.2,1.6q.6,1 2.4-2.1q-.1-.6 -.2,.3" fill="#803380"></path><path d="M211.8,59.9l-.2-.6q-1.4,.7 -1.1,0q-.1-1.3 -.1-1q.5,.2 .2,.2q-.2,.3 -.6,.2l-.2,.4q.6,.3 1.2,0q.6-.7 -.2-1.4q-.9-.3 -1.1,1.6q.2,1.4 2.1,.6" fill="#803380"></path><path d="M218.7,60.7l.6-.2q-.1-.2 -.1-.2q0-1.3 -.2-3.5l-.4,0q0,2.2 0,3.5q0,.2 .1,.4" fill="#803380"></path><path d="M219.4,58.1l0,.4q1.2,0 1.5-.4q.3-1.5 -.6-2q-.7-.3 -2.2-.2l0,.6q1.4-.1 2,.2q.4,.1 0,1.2q.2,.1 -.7,.2" fill="#803380"></path><path d="M225.5,55l-.8,.2q.4,1.6 -.2,2q-.4,.6 -.2,.3q-.6-2.3 -1.2-1.6q-.5,2.8 -.4,2.5q-.3-.5 -.3-.6q-.3-.7 -.4-1.8l-.4,0q-.1,1.2 0,2q.1,.3 .5,.8q.8,.7 1.8-2.7q-.4-.1 -.4,1.6q.4,.9 1.6,.1q.8-.8 .4-2.8" fill="#803380"></path><path d="M229.1,57.7l-.6,.2q.4,.3 .8,.1q-.5-.5 -.5-.9q-.8-4.1 -1.7-3.2q-.4,1.2 -.9,3.9l.4,0q.7-2.6 1.3-3.5q-.2-.5 .1,3q.1,.5 .7,1.3q.6,0 .4-.9" fill="#803380"></path><path d="M228.2,57.3l.2-.2q-.1-.3 -.3-.6q-.6-.1 -1.8-.2l0,.4q1.1,.3 1.6,.6q0-.2 .3,0" fill="#803380"></path><path d="M240.3,54.8l.2,.2q.2,0 0,.1q.5,.3 .2,.7q-.7,1.6 -.6,.9q-.6-1.1 -1.1-.8q-1,2.4 -1,.5q-.2-.4 -.3-.5l-.4,0q-.1,.2 -.1,.7q.7,2.4 2.4-.3q-.3,0 -.3,.6q.7,1.2 2-.7q.5-1 -.4-1.7q-.3,0 -.6,.3" fill="#803380"></path><path d="M246.7,57l-.2-.4q-.5,.2 -.5,0q-1.4,.4 -1.2-.1q-.1-1 -.2-.9q.8,.2 .3,.4q-.8,.9 -.7,.6q-.8-1.7 -1.4-1.2q-.5,1.2 -.1,1.3q-.1-1.2 -.3-4.1l-.4,0q0,2.9 -.1,4.1q.4,.7 1.5-.9q-.3-.1 0,1q.6,.8 1.9-.2q.8-1 -.5-1.6q-.7,0 -.8,1.5q.2,1.1 2.2,.9q0-.2 .5-.4" fill="#803380"></path><path d="M248.7,54.8l.2,0q-.1-.5 -.4-.6q-.7,.2 -.9,.6q-.3,2.4 -.1,2.2q-.1-.2 -.1-1.3l-.4,0q-.1,1.2 -.1,1.5q.6,.9 1.5-2.2q-.1,0 .3-.2q-.1-.2 0,0" fill="#803380"></path><path d="M251.8,56.8l0-.2q-1.4,.2 -1.3,0q-1.2-.4 -.6-.7q.7-1 .4-1.2q-.3,1.2 -.2,1q-.7-.1 -1,0l0,.4q.2,.2 .8,.4q.7-.1 1.2-1.6q-.1-.8 -1.8,.4q-.8,1.1 .8,2.1q.3-.2 1.7-.6" fill="#803380"></path><path d="M260,53.9l-.8,.4q.4,.8 .3,.9q-.3,2.1 -.6,.5q-.5-.5 -1-.1q-.8,1.2 -.6,.8q-.3-.5 -.5-1.4l-.4,0q0,1 .1,1.6q.6,.9 2-.6q-.1-.1 -.4-.1q1.1,2.2 2.2-.5q.1-.5 -.3-1.5" fill="#803380"></path><path d="M263.8,56.1l-.2-.2q-.2,.1 -.3-.1q-2.3,.4 -2.1,0q-.4-2.3 .6-1.6q1.2,.2 -.2,.5q-.7,.2 -.9,.4l.2,.4q.2,0 .9-.2q2-.8 .4-1.9q-1.9-.6 -1.8,2.4q.3,1.1 3.1,.8q.1-.2 .3-.5" fill="#803380"></path><path d="M271,53.7l.2,0q0-.2 -.4,0q1.4,1 .6,1.4q-1,.7 -.8,.7q-.7-1.8 0-1.9q.7-.3 1-.4l-.2-.4q-.2,0 -1,.2q-1.1,.5 -.4,2.7q.4,.6 1.8-.3q1.2-1 -.4-2.6q-.5,.1 -.4,.6" fill="#803380"></path><path d="M272.7,58.5l-.2,0q0,.3 .4,.3q-.5-1.3 -.2-2.4q1.1-5.2 .7-5.2q.7,.9 .4,1.4q-.4,1 -.5,1.3l.4,.2q.2-.3 .7-1.1q.4-1 -.4-2.2q-.6-.2 -2.1,5.4q-.3,1.4 .2,2.8q.5,.2 .6-.5" fill="#803380"></path><path d="M273.9,56.2l-.2-.6q-.8,.3 -1.9,.3l0,.4q1.2,.2 2.1-.1" fill="#803380"></path><path d="M275.7,58.3l-.2,0q0,.2 .2,.1q-.7-.6 -.6-1.3q0-5.7 1.1-5.7q.9-.4 .5-.1q-.1,.4 -1.2,1.2l.2,.4q1.3-.8 1.6-1.2q.4-1.1 -1.3-1.1q-1.6,.4 -1.7,6.5q.1,1.1 1,1.7q.4,0 .4-.5" fill="#803380"></path><path d="M276.2,55.6l0-.2q-1.4,.4 -1.4,.2q-.5-.2 -.7-.2l-.2,.4q.2,.2 .7,.4q.2-.1 1.6-.6" fill="#803380"></path><path d="M283.3,54.2l0-.6q-1.1-.1 -1.6,.3q-1,2 -.8,1.8q-.5-1.3 -.8-1.1q-1.7,1.9 -1.8,1.4q-1.3-1.4 -.5-1.6q1-.7 .3-.3q-.2,.4 -.9,.8l.2,.4q.8-.4 1.3-.8q.7-1.3 -1.3-.7q-1.2,.7 .3,2.6q.8,.5 2.6-1.6q-.3,.1 0,1.1q.5,.8 2.2-1.6q-.1-.2 .8-.1" fill="#803380"></path><path d="M94.4,70.3l.6-.4q-1.3-1.5 -1.7-1.9l-.4,.2q.4,.6 1.5,2.1" fill="#803380"></path><path d="M92.8,72.9l.6,.4q.9-1.5 1.4-2.9q.2-1.1 1.1-2.5l-.4-.2q-1,1.3 -1.5,2.5q-.4,1.3 -1.2,2.7" fill="#803380"></path><path d="M96.1,69.1l.2,.8q0,0 -.1-.1q.9,.5 .2,1q-1.1,1.2 -.9,.7q.1-1.7 .1-1.6q.6-.1 .7-.2l0-.4q-.2,0 -.7,0q-.6,.2 -.7,2.2q.2,1.2 1.9-.1q1.1-1.1 -.2-2.2q-.2-.1 -.5-.1" fill="#803380"></path><path d="M100.5,71.6l.2-.2q-1-.4 -.7-.5q-.2-2.5 -.8-1.8q-.6,2.5 -.8,2.2q-.8-.3 -.5-.9q.3-.7 .3-.9l-.4-.2q-.2,.2 -.5,.9q-.4,1 .7,1.7q1.1,.4 2-2.6q-.4-.1 -.8,1.6q.2,.4 1.3,.7" fill="#803380"></path><path d="M106.4,68.5l.2-.2q0-.2 .1-.2q-.3-1.3 -.4-.9q1.1,.8 .9,1.2q-.4,3.2 -.9,2.9q-.7,.1 -.1-.3q.5-.7 .6-1l-.2-.2q-.3,.1 -1,.8q-.7,1.1 .7,1.5q1.1,0 1.7-3.5q.1-.9 -1.1-2q-.9-.3 -.8,1.5q.1,.1 .3,.4" fill="#803380"></path><path d="M110.9,71.4l0-.6q-.4-.1 -.6-.1q-1.6,.8 -1.4,0q0-1.7 0-1.4q1.4,.2 .4,.1q-.4,.2 -.5,.3l0,.4q.2,.1 .7,.1q1.6-.6 -.2-1.7q-1-.1 -1.2,2.2q.2,1.4 2.4,.8q0-.1 .4-.1" fill="#803380"></path><path d="M114.5,70.4l-.2-.2q-1.3,1.2 -1.2,.9q-.5-.8 -.9-.9q-.5,.2 -.7,.2q-1,.4 -.4-.3q.4-1.2 .5-.8q.4,.3 .6,.4l.4-.4q-.1-.2 -.4-.6q-.9-.6 -1.9,1q-.5,1.6 1.4,1.5q.2,0 .7-.2q-.4-.1 .1,.5q.6,.3 2-1.1" fill="#803380"></path><path d="M114.8,71.5l.2-.4q-.5-.4 -.3-.8q0-1.1 .8-3.3l-.4-.2q-1,2.3 -1.2,3.5q.1,.7 .9,1.2" fill="#803380"></path><path d="M115.3,71l-.2,0q-.2,.4 0,.7q2.6,.3 2.3-.9q-1.2-1.9 -.9-1.7q.3-.2 .8,.1l.2-.4q-.6-.5 -1.2-.5q-.9,.4 .3,2.9q.5,.2 -1.3-.3q0,.3 0,.1" fill="#803380"></path><path d="M125.3,71.4l.6,.2q.1-.6 .6-5.3l-.4,0q-.6,4.7 -.8,5.1" fill="#803380"></path><path d="M127.4,69l0-.2q-1.6,.4 -1.9,.1q-.9-.2 -1.2-.1l-.2,.4q.3,.2 1.2,.5q.5-.1 2.1-.7" fill="#803380"></path><path d="M130.6,70.7l-.2-.2q-1.2,1.2 -.8,.6q-.1-1.2 -.6-1.3q-1.4,1 -1.1,1q.1-1.4 .8-5l-.4,0q-.9,3.5 -1.2,4.8q.2,.9 2.3-.2q-.5-.1 -.6,.7q.3,1 1.8-.4" fill="#803380"></path><path d="M133.7,70.1l-.2-.2q-.3,.3 -.4,.3q-.7,.9 -.5,.1q-.2-1 -.9-.8q-1.7,1.4 -.9,.5q.1-.4 1.1-.9l-.2-.4q-1.1,.5 -1.5,.9q-.7,1.9 1.9,.5q-.1-.2 -.3,.2q.3,1.4 1.7,.3q.1-.2 .2-.5" fill="#803380"></path><path d="M133.9,71.2l.6-.6q-.1-.1 -.1,0q-.1-1.1 1-5l-.4-.2q-1.2,4 -1.4,5.2q0,.3 .3,.6" fill="#803380"></path><path d="M135.4,68.8l0-.6q-.6,0 -2.6,.3l0,.6q2-.3 2.6-.3" fill="#803380"></path><path d="M142.2,69.7l.4,.4q.3-.5 1.8-3.2l-.2-.2q-1.6,2.7 -2,3" fill="#803380"></path><path d="M142.2,69.6l0,.6q.5,.1 .8,.1q3.4-1.2 3-3q-.7-2.2 -2.2-1.5q-.5,.4 -.7,1l.4,.2q.2-.5 .5-.6q1.1-.7 1.4,1.1q.4,1.2 -2.6,2q-.1,.1 -.6,.1" fill="#803380"></path><path d="M148.3,70l-.2-.2q-.3,.1 -.3,0q-1-.2 -1.4-.2q-.6,.3 1.6-2.1q.4-.5 .4-.8l-.2-.2q-.3,.1 -.8,.6q-2.4,3 -1,3.3q.3,0 1.4,0q.2-.1 .5-.4" fill="#803380"></path><path d="M149.7,66.6l0-.6q-1.5,.2 -2,.3l0,.4q.5,0 2-.1" fill="#803380"></path><path d="M149.1,67.7l-.2-.2q-.3,.1 -.4,0q-.3,.1 -1.8,.3l0,.4q1.5,0 2-.1q.1-.1 .4-.4" fill="#803380"></path><path d="M153.8,66.4l-.4-.4q-.4,.3 -.5,.2q-2.4-.3 -2.8,.5q-.5,2 -.9,2.3q-.2,.2 -.2,.4l.2,.2q.1,.1 .4,0q.7-.5 1.3-2.7q-.1-.3 1.8,.1q.5,0 1.1-.6" fill="#803380"></path><path d="M152.3,67.9l0-.2q-1.1,.1 -1.3-.1q-.4,0 -.6,.1l0,.4q.1,.1 .4,.3q.5-.1 1.5-.5" fill="#803380"></path><path d="M152.3,69.6l.8,0q-.1-.2 2-3.2l-.4-.2q-2.2,2.9 -2.4,3.4" fill="#803380"></path><path d="M159.2,66.6l.6,0q-.3-.7 -1.2,.3q-1.8,3.2 -1.3,2.6q.5-3.2 -.5-2.8q-2.9,3.3 -2.3,3.1q.3-.3 .3-.5l-.2-.2q-.2,0 -.5,.3q-.7,1.2 3.3-2.1q-.1-.4 -.9,2q0,1.5 2.7-2q.2-.7 0-.7" fill="#803380"></path><path d="M158.8,69.9l.6,.2q.2-.6 1.8-3l-.4-.2q-1.6,2.4 -2,3" fill="#803380"></path><path d="M161.9,69l.6,.4q1-2 1.3-2.7l-.4-.2q-.4,.6 -1.5,2.5" fill="#803380"></path><path d="M165.2,66.1l0-.2q-.3-.1 -3.2,.2l0,.6q2.9-.5 3.2-.6" fill="#803380"></path><path d="M166.7,68.8l0-.2q-2.5,.8 -1.8,.3q.7-1.3 1.8-2.8l-.2-.2q-1.4,1.4 -2.2,2.6q-.4,1.2 2.4,.3" fill="#803380"></path><path d="M168.5,65.5l0-.2q-.9,0 -2.5,.4l.2,.4q1.5-.4 2.3-.6" fill="#803380"></path><path d="M167.7,67.1l-.2-.6q-.8,.3 -.9,.2q-.5,0 -.7,.1l0,.4q.1,.1 .5,.3q.4,0 1.3-.4" fill="#803380"></path><path d="M170.5,68.1l-.2-.6q-.6,.1 -.7,.1q-1.7,.5 -1.5,.8q1-1.8 1.8-3.1l-.4-.2q-.9,1.2 -2,2.9q-.1,.7 2.3,.4q.1-.1 .7-.3" fill="#803380"></path><path d="M172.3,67l0-.6q0,.1 -1-.9l-.2,.2q.9,1.2 1.2,1.3" fill="#803380"></path><path d="M170.1,69.8l.6,.2q.5-.8 .7-1.1q1-1.4 2.9-3.5l-.4-.4q-2,2.1 -3.1,3.5q-.2,.3 -.7,1.3" fill="#803380"></path><path d="M182.4,63.3l.8,.2q-.3-.3 -.7-.6q0,4.3 -1.1,4.7q-1,.5 -.3-.3q.8-1.7 .8-1.3q.3,.1 .5,.1l.2-.2q0-.2 -.1-.5q-.8-.4 -2,1.5q-.7,1.7 1.1,1.3q1.6-.6 1.7-5.3q-.4-.5 -.9,.4" fill="#803380"></path><path d="M185.1,65.3l-.6,.4q.6,1 .3,1.1q-1.3,1.3 -1,.1q0-1.4 .1-1.2q.2-.2 .6,.4l.4-.2q-.5-.8 -1-1q-.7,.2 -.9,2q.2,1.9 2.2,.5q.6-.6 -.1-2.1" fill="#803380"></path><path d="M186.4,67.4l.8,0q-.2-.4 0-2l-.4,0q-.2,1.6 -.4,2" fill="#803380"></path><path d="M188.6,67.4l0-.2q-.2-.1 .1,0q-.1-2.7 -1.1-2.4q-.7,.5 -.9,.7l.2,.4q.3-.1 1.1-.5q.1-.3 -.1,1.8q.3,.3 .7,.2" fill="#803380"></path><path d="M189.5,64.9l.6-.2q-.3-.6 -.5-1.6l-.4,0q.2,1.1 .3,1.8" fill="#803380"></path><path d="M191.4,67.4l.8-.4q-.3-.3 -.3-4.2l-.4,0q-.2,4 -.1,4.6" fill="#803380"></path><path d="M192.8,65.6l.2-.2q-.2-.2 -.2-.4q-.5,0 -2.2,.6l.2,.4q1.6-.4 1.8-.2q.1-.2 .2-.2" fill="#803380"></path><path d="M199.1,66.6l.8,0q0-1.9 0-2.5q-.1-1.1 -.5-2.2l-.4,.2q.2,1 .1,2q0,.6 0,2.5" fill="#803380"></path><path d="M201.4,67l.6-.6q-.3-.2 -.2-.1q-.2-3.2 -1.6-2.4q-.7,.6 -.8,.8l.2,.4q.3-.1 1-.6q.6-.7 .4,1.8q.1,.3 .4,.7" fill="#803380"></path><path d="M205.6,65.9l0-.4q-.5,0 -.3,0q-.6-1.4 -1.2-1q-.7,.9 -.8,.9q-1.2,.9 -.1-.1q1.1-1.7 .8-1.3q.2,.6 .3,.8l.4,0q.1-.2 .1-.8q-.5-1.1 -2.2,.9q-1.1,1.8 1.1,1.3q.3-.2 1-1.3q-.3,0 -.2,.8q.3,.3 1.1,.2" fill="#803380"></path><path d="M207.7,64.1l.2,0q-.1-.6 -.6-.4q-.6,3 -.7,2.2q-.2-.2 -.4-2.1l-.4,0q0,2 .2,2.5q1,1.1 2.1-2.4q-.4,0 -.4,.2" fill="#803380"></path><path d="M210.9,65.9l-.6-.6q-.6,.6 -.7,.4q-1.5-.5 -.4-1.2q.7-1 .4-.8q.1,1.3 -.3,1q-.4-.1 -.5-.1l-.2,.4q.1,.1 .5,.3q1,.3 1.3-1.6q-.2-.9 -1.8,.2q-1.3,1.5 .6,2.6q.7,.2 1.7-.6" fill="#803380"></path><path d="M221.5,66l-.2-.8q-.2,.2 0,0q-.2-2.1 -1.1-1.4q-1.1,1.7 -.8,1.6q-.4-3.1 -1-2.4q-1.3,3.4 -.9,3q-.2-.4 .1-2.2l-.4,0q-.3,1.8 -.5,2.2q.4,1.2 2.3-2.6q-.2-.3 -.4,2q.4,.9 2.2-1.2q-.1-.4 -.3,1q.2,.9 1,.8" fill="#803380"></path><path d="M225.2,65.3l-.4-.6q-.9,.9 -.6-.2q-.3-.7 -.9-.3q-1.2,1.8 -.8,.7q0-1.4 .2-1.2q.6,.1 .8,.1l.2-.4q-.2-.1 -.8-.3q-1-.1 -1.2,1.8q.2,1.8 2.2-.3q-.2-.1 -.5-.1q.2,1.8 1.8,.8" fill="#803380"></path><path d="M225.8,65.9l.4-.6q-.3-.2 -.2-.1q-.3-.5 -.1-4.1l-.4,0q-.3,3.6 -.3,4.3q.2,.3 .6,.5" fill="#803380"></path><path d="M230.1,62.5l-.6,.4q0,.1 0,.1q.6,1.5 .3,1.6q-.6,1 -.4,.4q-.4-1.7 -1-1.3q-.7,1.3 -.5,1.2q-1.2,.5 -.4-.8q.3-.7 .3-.9l-.4-.2q-.2,.2 -.5,.9q-.7,1.9 1.2,1.6q.3-.1 .9-1.4q-.3-.1 -.4,.9q.4,1.3 1.8,.2q.5-.7 -.1-2.4q-.1-.2 -.2-.3" fill="#803380"></path><path d="M234.8,64.8l-.2-.2q-.2,.1 -.3,0q-1,.7 -.7-.1q-.2-.8 -.9-.6q-1,1 -.8,.9q-.9-1.6 .4-1.3q.3-.1 .8,.2l.2-.4q-.5-.5 -1-.6q-2,.2 -1,2.5q.5,.5 2-.7q-.3-.1 -.5,0q.2,1.5 1.9,.7q0-.2 .1-.4" fill="#803380"></path><path d="M237.5,62.9l.2-.6q-1.3-.6 -1.8,.8q-.2,2.3 0,2.1q-.2-.2 -.2-1.1l-.4,0q0,1 0,1.3q.6,.8 1.4-2.1q0-.9 .8-.4" fill="#803380"></path><path d="M240.3,65.2l0-.2q-1.6,.2 -1.6-.2q-1.2-1.5 0-1.5q.8-.3 .4-.3q-.6,1.4 -.8,1q-.3-.2 -.5-.2l-.2,.4q0,.1 .3,.4q.9,.5 2-1.2q.2-.9 -1.4-.9q-1.7,.5 -.4,2.7q.5,.4 2.2,0" fill="#803380"></path><path d="M241.7,65.2l.2-.2q-.2-.1 -.2-.2l-.2,.4q.1,0 .2,0" fill="#803380"></path><path d="M272.4,64.5l0,1.2q10.8,.1 14.4-.4q5.9-.9 5.4-1.2q.1,.3 -.3,5.4q-.4,5.5 -.2,5.2q-2.4,.6 -17.8,.8q-2.4,.1 -2,.7q.3-2.4 1.4-11.6l-.6,0q-1.3,9 -2,11.4q.4,.7 3.2,.7q15.5-.2 18-.8q.7-.5 1.2-6.4q.4-5.1 .3-5.6q-.6-.6 -6.8,.2q-3.5,.5 -14.2,.4" fill="#803380"></path><path d="M264.1,83l.2,.8q1.1-.4 7.5-7.8l-.4-.4q-6.4,7.4 -7.3,7.4" fill="#803380"></path><path d="M295.9,83l0-1q-.4,0 -.6,0q-4.6,.6 -9.4,.5q-3.5,0 -22.5,1.6l0,.6q19.1-1.6 22.5-1.4q4.9,.2 9.6-.3q0-.1 .4,0" fill="#803380"></path><path d="M296.2,81.9l.8-.8q-2.5-1.8 -5.8-6.3l-.4,.4q3.1,4.6 5.4,6.7" fill="#803380"></path><path d="M277.2,80.1l-.4-.2q-.6,1 -1.4,2.5l.4,.2q.8-1.5 1.4-2.5" fill="#803380"></path><path d="M285.4,80.8l-.2-.6q-.6,.2 -.8,.1q-5.8-.4 -7.8-.4l0,.4q1.9,.3 7.8,.8q.3,0 1-.3" fill="#803380"></path><path d="M287.3,82.6l.4-.6q-.8-.4 -2.4-1.4l-.4,.4q1.7,1.1 2.4,1.6" fill="#803380"></path><path d="M290.48,77.09l0-.18q-.3-.02 -.41-.06q-4.12,.14 -5.5,.23q-6.36,.44 -9.67,.3q-1.71-.02 -4.34,.16l0,.18q2.64-.11 4.32,0q3.33,.13 9.71-.32q1.37-.1 5.5-.23q.09-.05 .39-.08" fill="#803380"></path><path d="M276.6,80.31l-.02-.28q-1.11,.04 -1.47,0q-.47,.05 -6.96,.33l0,.18q6.5-.24 6.94-.15q.38-.01 1.51-.08" fill="#803380"></path><path d="M293.28,79.23l-.16-.3q-.19,.09 -.5,.16q-.41,.17 -7.86,1.13l.04,.24q7.45-.94 7.92-1.01q.33-.1 .56-.22" fill="#803380"></path><path d="M292.05,76.67l-.12-.3q-.3,.17 -2.66,.24l0,.24q2.39-.06 2.78-.18" fill="#803380"></path><path d="M276.41,79.88l.34,.18q.03-.18 .47-.75l-.16-.14q-.5,.55 -.65,.71" fill="#803380"></path><path d="M281.21,79.23l-.04-.18q-.17,.01 -.22-.02q-2.21-.05 -4.23,.11l.02,.24q2-.13 4.21-.07q.07-.03 .26-.08" fill="#803380"></path><path d="M284.13,79.24l0-.18q-3.33-.11 -4.45-.17l0,.22q1.11,.02 4.45,.13" fill="#803380"></path><path d="M284.85,80.66l-.06-.32q-.08,.13 -.33-1.16l-.2,.04q.27,1.4 .59,1.44" fill="#803380"></path><path d="M286.35,80.02l.14-.14q-.08-.07 -.09-.09q-.33-.56 -.33-.64q-.03-.29 -.17-.32q-.96,.15 -1.27,.23q-.17,.06 -.22,.1l.02,.1q.07,.01 .24-.02q.31-.08 1.25-.23q-.02-.05 -.03,.14q.01,.15 .35,.74q.03,.04 .11,.13" fill="#803380"></path><path d="M288.41,79.97l-.06-.04q-.03,.05 .05,.05q-.08-.21 -.1-.29q-.48-1.06 -.37-1.02q.12-.07 .13-.17q-.63,.22 -2.39,.45l0,.08q1.78-.2 2.45-.35q.09-.12 -.19-.17q-.3,.07 .19,1.26q.03,.06 .12,.27q.09,.04 .17-.07" fill="#803380"></path><path d="M286.74,79.1l.12,.06q.11-.28 .3-.13q.5,.23 .17,.38q-.67,.42 -.63,.25q-.04-.47 .14-.51q.09-.04 .25,0l.04-.1q-.19-.07 -.33-.04q-.28,.11 -.26,.65q.07,.33 .87-.11q.43-.3 -.15-.68q-.34-.15 -.52,.23" fill="#803380"></path><path d="M287,79.5l.06-.06q-.15-.14 -.19-.19l-.08,.08q.06,.04 .21,.17" fill="#803380"></path><path d="M287.2,79.22q0,.07 -.07,.07q-.07,0 -.07-.07q0-.07 .07-.07q.07,0 .07,.07" fill="#803380"></path><path d="M286.95,79.51l-.02-.08q-.06,.01 -.08,0l.04,.12q.01-.02 .06-.04" fill="#803380"></path><path d="M287.18,79.41l.08,0q.01-.11 .02-.14l-.12,0q.01,.03 .02,.14" fill="#803380"></path><path d="M290.61,78.23l-.02-.08q-.46,.06 -.61,.06q-1.2,.26 -2.17,.35l0,.08q.98-.06 2.19-.27q.15-.06 .61-.14" fill="#803380"></path><path d="M290.57,79.42l.16-.04q-.16-.64 -.2-.86q-.05-.18 -.06-.38l-.1,0q-.03,.21 0,.42q.05,.21 .2,.86" fill="#803380"></path><path d="M290.64,79.37l-.02-.14q-.45,.05 -.61,.08q-.31,.08 -.26,.1q-.04-.08 -.12-.56l-.1,.02q.06,.48 .06,.58q.07,.1 .46,.02q.14-.04 .59-.1" fill="#803380"></path><path d="M290.43,78.75l0-.16q-.11,0 -.5,.12q-.24,.09 -.32,.13l.04,.1q.08-.01 .32-.07q.38-.12 .46-.12" fill="#803380"></path><path d="M291.44,78.5l.18,.02q.02-.61 -.19-.59q0,.05 -1.15,.26l.02,.08q1.15-.21 1.19-.18q.02-.07 -.05,.41" fill="#803380"></path><path d="M291.58,78.38l-.02-.08q-.61,.11 -1.2,.18l.02,.1q.58-.08 1.2-.2" fill="#803380"></path><path d="M292.28,79.07l.02,.08q.08-.02 .13-.08q-.1-.71 -.19-.77q-.09-.03 -.15-.03q-.49,.1 -.51,.09q-.1-.04 -.14-.04l-.04,.1q.02,.03 .12,.08q.09,.04 .61-.05q-.01-.01 .05,.01q-.02-.03 .07,.63q.05-.03 .03-.02" fill="#803380"></path><path d="M291.66,79.16l-.12-.02q.04,.07 .13,.1q-.06-.25 -.27-.76l-.1,.04q.18,.5 .19,.74q.1,.08 .17-.1" fill="#803380"></path><path d="M292.87,77.8l-.1-.06q-.08,.13 -.2,.1q-.47-.01 -1.23,.14l.02,.1q.75-.13 1.21-.08q.19-.01 .3-.2" fill="#803380"></path><path d="M293.19,78.21l-.04-.06q-.09,.03 -.93,.07l0,.12q.85-.06 .97-.13" fill="#803380"></path><path d="M291.81,79.02l.1,.08q.23-.26 .17-.34q-.05,.01 -.26-.04l-.02,.08q.2,.07 .26,.1q-.05-.08 -.25,.12" fill="#803380"></path><path d="M290.15,79.22l-.02-.14q-.08,.02 -.07,.01q-.16-.07 -.02-.04q.12-.03 .15-.05l0-.08q-.05-.01 -.17-.01q-.25,.08 -.04,.3q.06,.03 .17,.01" fill="#803380"></path><path d="M291.24,78.79l-.14-.04q-.07,.42 -.06,.36q-.07-.06 -.26-.36l-.06,.04q.17,.31 .22,.4q.15,.11 .3-.4" fill="#803380"></path><path d="M291.18,78.37l0-.14q-.05,0 -.03,.01q-.21-.26 -.32-.16q-.04,.11 -.04,.16l.06,.04q.04-.03 .12-.14q-.05-.01 .06,.18q.05,.05 .15,.05" fill="#803380"></path><path d="M289.51,78.58l.06-.14q-.11-.05 -.11-.06q-.2-.39 -.28-.52q-.35-.53 -.34-.57q0-.07 -.02-.1l-.06,0q-.02,.02 -.04,.08q-.01,.11 .34,.67q.07,.12 .26,.5q.04,.07 .19,.14" fill="#803380"></path><path d="M292.31,77.42l-.04-.1q-.13,.05 -1.02,.06q-.36,.02 -1.96,.29l.02,.08q1.59-.26 1.94-.25q.9-.01 1.06-.08" fill="#803380"></path><path d="M291.33,77.1l0-.06q-.43-.03 -.58-.02q-1.13,.25 -1.51,.24q-.2,0 -.27,.02l0,.06q.07,.02 .27,.04q.39,.02 1.53-.22q.13-.05 .56-.06" fill="#803380"></path><path d="M290.85,78.13l-.12-.08q-.03,.06 .02,.04q-.16-.07 -1.18-1.13l-.06,.06q1.01,1.08 1.16,1.21q.09,.01 .18-.1" fill="#803380"></path><path d="M291.5,78.03l.06-.12q-.96-.53 -1.14-.82q-.13-.19 -.19-.25l-.08,.06q.03,.07 .15,.27q.21,.31 1.2,.86" fill="#803380"></path><path d="M287.86,77.75l0,.06q.03,.01 .03,.02q.4,.14 .2,.21q-.22,.13 -.35,.11q-.3-.02 -.41-.01q-.74,.09 -.92-.03q-.12-.02 .47-.13q.23-.07 1.21-.17l0-.06q-.99,.07 -1.23,.11q-.68,.19 -.51,.35q.22,.14 1,.05q.09-.01 .39,.01q.16,0 .41-.13q.24-.18 -.22-.39q-.02,0 -.07,0" fill="#803380"></path><path d="M287.41,78.27l-.02,.08q.65,.06 .54,.05q-1.27,.47 -1.58,.37q-.53-.14 -.18-.21q1.16-.38 1.39-.3q.11,.03 .15,.04l.02-.08q-.03-.02 -.13-.06q-.28-.1 -1.47,.3q-.42,.18 .18,.41q.37,.12 1.66-.37q.15-.11 -.56-.23" fill="#803380"></path><path d="M287.34,77.38l-.02,.06q.12,.04 .15,.07q.31,.11 .05,.19q-.74,.32 -1.36,.09q-.43-.11 -.09-.13q1.29-.26 1.38-.22q.09,.03 .13,.03l.02-.06q-.02-.03 -.11-.07q-.14-.06 -1.44,.2q-.44,.14 .07,.37q.66,.23 1.44-.11q.34-.18 -.05-.39q-.05,0 -.17-.03" fill="#803380"></path><path d="M286.54,77.19l0,.1q.23,0 .22,.01q.23,.16 -.41,.13q-.9,.04 -.68,.01q.77-.3 1.12-.17q.15,.05 .2,.06l.02-.08q-.04-.02 -.18-.08q-.4-.15 -1.2,.17q-.29,.17 .72,.21q.75-.03 .49-.33q-.05-.02 -.3-.03" fill="#803380"></path><path d="M285.16,77.3l.02,.08q.05-.01 .05,0q.39,.08 .29,.09q-.44,.3 -.9,.14q-.33-.08 -.11-.09q.58-.17 .68-.13q.06,.02 .09,.01l.02-.06q-.01-.02 -.07-.05q-.15-.05 -.76,.11q-.29,.13 .11,.31q.52,.18 1-.14q.14-.15 -.33-.29q-.03,0 -.09,.02" fill="#803380"></path><path d="M270.96,77.7l0,.06q.05,.01 .06,.03q.44,.04 .39,.14q0,.25 -.35,.21q-.65-.03 -.53-.11q.24-.27 .45-.21q.1,.01 .13,0l.02-.06q-.03-.03 -.13-.06q-.28-.05 -.55,.25q-.15,.22 .59,.31q.44,.02 .51-.31q-.01-.21 -.51-.28q-.03,.02 -.08,.03" fill="#803380"></path><path d="M273.35,77.66l-.04,.12q.2,.04 -.02,.09q-.8,.33 -1.05,.16q-.23-.12 -.07-.12q.72-.2 .81-.09q.04,.01 .04,.11l.06,0q.02-.12 -.02-.19q-.16-.15 -.93,.05q-.25,.11 .05,.34q.31,.2 1.15-.14q.31-.17 .02-.33" fill="#803380"></path><path d="M274.28,77.64l-.02,.1q.16,.04 .16,.08q.1,.22 -.28,.29q-.55,.16 -.49,.07q.02-.26 .21-.29q.42-.11 .39-.1q.01,.07 .03,.09l.08,0q.01-.03 .01-.11q-.05-.12 -.53-.02q-.28,.08 -.33,.41q.02,.23 .67,.09q.46-.14 .36-.47q-.05-.09 -.26-.14" fill="#803380"></path><path d="M275.48,77.74l.06,.1q.07-.04 .05-.03q.3,.1 -.12,.12q-1.02,.22 -.72,.09q.64-.48 .73-.21q.05,.09 .08,.12l.08-.04q0-.04 -.04-.14q-.19-.34 -.93,.15q-.34,.32 .82,.17q.53-.14 .16-.38q-.07-.02 -.17,.05" fill="#803380"></path><path d="M276.71,77.77l-.04,.02q.03,.08 .01,.03q-.39,.24 -.59,.15q-.27-.07 -.04-.1q.67-.23 .62-.11q0,.09 .01,.13l.08,0q.02-.03 .03-.13q-.02-.25 -.78-.01q-.33,.15 .02,.34q.28,.11 .73-.15q.02-.07 -.05-.17" fill="#803380"></path><path d="M277.93,77.66l-.04,.12q.3,.03 .02,.09q-.67,.26 -.74,.11q-.15-.16 .06-.16q.55-.1 .52-.02q0,.08 .02,.11l.08,0q.02-.03 .02-.11q-.03-.2 -.66-.12q-.32,.08 -.16,.38q.17,.21 .92-.07q.35-.19 -.04-.33" fill="#803380"></path><path d="M279.17,77.73l-.04,.04q.09,.11 .03,.09q-.49,.29 -.67,.19q-.3-.09 -.07-.15q.48-.26 .51-.15q.04,.03 .04,.13l.06,0q.03-.11 .02-.19q-.13-.19 -.69,.07q-.32,.21 .07,.43q.27,.1 .81-.21q.07-.09 -.07-.25" fill="#803380"></path><path d="M280.64,77.71l-.14,0q0,.13 -.01,.11q-.56,.33 -.67,.19q-.19-.15 .08-.2q.64-.24 .42-.12q-.13,.13 -.16,.19l.06,.06q.06-.03 .2-.15q.23-.3 -.56-.12q-.38,.15 -.14,.44q.21,.19 .85-.15q.07-.06 .07-.25" fill="#803380"></path><path d="M281.94,77.67l-.14,0q.01,.08 -.05,.09q-.6,.29 -.7,.15q-.17-.13 .12-.16q.51-.13 .45-.03q0,.05 -.08,.14l.06,.06q.11-.1 .14-.18q.02-.23 -.59-.13q-.4,.12 -.2,.4q.2,.19 .86-.11q.12-.08 .13-.23" fill="#803380"></path><path d="M283.21,77.57l-.02,.06q.02,.01 0-.05q-.29,.32 -.69,.2q-.25-.02 -.04-.03q.69-.26 .64-.19q-.01,.11 0,.14l.08,.02q.02-.04 .04-.14q-.01-.21 -.8,.03q-.31,.16 .04,.31q.47,.12 .83-.24q-.01-.08 -.08-.11" fill="#803380"></path><path d="M284.32,77.51l-.06,.02q.01,.07 .01,.02q-.66,.26 -.61,.17q0-.1 -.01-.07q.82-.26 .61-.17q-.1,.1 -.13,.14l.04,.06q.05-.02 .17-.1q.24-.26 -.73-.07q-.08,.05 -.09,.21q.04,.22 .79-.03q.04-.07 .01-.18" fill="#803380"></path><path d="M285.64,77.7l-.1-.06q-.03,.08 -.11,.09q-.85,.21 -.91,.1q-.08-.04 .27-.07q.84-.14 .84-.09q.06,.11 .09,.14l.06-.04q-.01-.04 -.05-.14q-.08-.12 -.96,.01q-.43,.09 -.35,.27q.14,.15 1.03-.06q.13-.04 .19-.15" fill="#803380"></path><path d="M283.77,77.78l0,.1q.44-.05 .38-.02q-.05,.19 -.24,.2q-.51,.07 -.45,.05q.13-.27 .28-.24q.41-.02 .36-.06q-.05,.02 -.19,.03l0,.06q.14,.01 .21,.01q.14-.07 -.38-.16q-.21,0 -.38,.3q-.04,.17 .57,.13q.25-.04 .34-.28q0-.15 -.5-.12" fill="#803380"></path><path d="M282.55,77.92l.06,.08q.13-.12 .24,0q.18,.1 .06,.08q-.6,.1 -.67,.02q-.27-.17 .27-.11q.53,.02 .5-.03q-.03,.06 -.02,.08l.06,.04q.03-.01 .06-.06q.01-.11 -.6-.15q-.65,0 -.35,.33q.13,.1 .77,0q.23-.08 0-.3q-.2-.13 -.38,.02" fill="#803380"></path><path d="M281.56,77.95l.06,.08q.17-.17 .13-.03q.04,.25 -.18,.2q-.45-.05 -.4-.04q.09-.17 .28-.15q.46-.01 .42-.04q-.04,.08 -.03,.11l.04,.04q.04-.01 .09-.07q.04-.15 -.52-.18q-.25,.01 -.4,.23q-.03,.14 .5,.22q.33,.03 .34-.32q-.06-.24 -.33-.05" fill="#803380"></path><path d="M280.67,78.06l.04,.08q.14-.05 .15,0q.1,.06 0,.05q-.59,.17 -.64,.09q-.18-.15 .35-.13q.57-.06 .44-.06q-.04,.05 -.21,.07l0,.06q.19,0 .27-.01q.2-.17 -.5-.2q-.65,.05 -.45,.35q.14,.14 .78-.03q.2-.09 .06-.29q-.1-.06 -.29,.02" fill="#803380"></path><path d="M279.35,78.03l.02,.06q.19-.05 .24-.01q.48,.03 .26,.1q-.48,.31 -.59,.17q-.19-.16 .03-.13q.78-.08 .62-.04q-.03,.04 -.17,.06l0,.08q.17-.02 .23-.04q.22-.2 -.68-.2q-.35,.06 -.13,.35q.21,.2 .77-.13q.27-.23 -.32-.36q-.08,.02 -.28,.09" fill="#803380"></path><path d="M278.56,78.01l.02,.06q.03,0 .04,.01q.4-.01 .2,.05q-.63,.42 -.67,.18q-.1-.22 .25-.15q.68,.04 .6,.03q-.1,.08 -.13,.12l.04,.06q.05-.01 .17-.08q.12-.15 -.66-.27q-.47-.02 -.39,.33q.14,.33 .87-.1q.23-.22 -.28-.27q-.02,.01 -.06,.03" fill="#803380"></path><path d="M277.54,78.1l.04,.08q.06-.03 .06-.01q.3,.08 .28,.11q.03,.19 -.27,.13q-.65-.06 -.52-.08q.16-.1 .21-.1q.16-.03 .37-.02l0-.06q-.21-.04 -.39-.04q-.08,.01 -.25,.12q-.18,.17 .56,.3q.4,.04 .41-.25q-.03-.12 -.36-.23q-.05,0 -.14,.05" fill="#803380"></path><path d="M276.62,78.08l.02,.06q.15-.04 .14,0q.11,.09 -.06,.11q-.65,.22 -.62,.06q-.05-.2 .46-.15q.48-.02 .33,0q-.07,.04 -.15,.09l.02,.06q.09-.03 .17-.05q.24-.15 -.37-.24q-.59-.02 -.6,.31q.06,.27 .8,.06q.26-.11 .12-.33q-.08-.04 -.26,.02" fill="#803380"></path><path d="M275.4,78.13l.02,.06q.34-.06 .35,.05q.13,.18 -.29,.16q-.55,.03 -.48-.03q.11-.33 .46-.17q.1,.03 .14,.02l.02-.06q-.02-.03 -.1-.08q-.46-.17 -.64,.23q-.04,.22 .6,.23q.53-.03 .41-.36q-.1-.13 -.49-.05" fill="#803380"></path><path d="M274.34,78.28l0,.06q.34-.04 .25,.04q-.11,.38 -.62,.19q-.48-.12 -.23-.09q1.19-.21 .99-.21q-.11,.05 -.14,.08l.02,.06q.04,.01 .16-.02q.29-.16 -1.05-.05q-.37,.11 .21,.35q.61,.2 .8-.27q0-.18 -.39-.14" fill="#803380"></path><path d="M272.98,78.25l0,.06q.29,0 .34,.07q.34,.16 0,.15q-.5,.06 -.53-.03q-.2-.24 .21-.13q.62,.06 .49,.04q-.06,.03 -.08,.06l.02,.06q.03,.01 .1,0q.22-.13 -.51-.3q-.54-.05 -.35,.35q.11,.14 .67,.09q.45-.1 .06-.41q-.11-.03 -.42-.01" fill="#803380"></path><path d="M272.03,78.29l0,.06q.21,.02 .25,.07q.37,.16 .09,.17q-.6,.11 -.56,.02q-.03-.25 .17-.22q.69-.05 .52-.04q-.12,.05 -.16,.08l.02,.06q.05,0 .18-.04q.25-.14 -.56-.2q-.3,.02 -.31,.36q.05,.21 .72,.1q.39-.11 -.05-.41q-.08-.02 -.31-.01" fill="#803380"></path><path d="M270.64,78.28l.02,.06q.07-.02 .09-.01q.57,.01 .54,.19q.04,.26 -.29,.19q-.75-.08 -.37-.17q.53-.21 .5-.15q.02,.06 .04,.08l.06,0q.02-.03 .02-.1q-.06-.16 -.66,.05q-.47,.23 .39,.41q.43,.05 .45-.31q-.04-.28 -.68-.29q-.04,.01 -.11,.05" fill="#803380"></path><path d="M270.32,78.64l0,.06q.23,.01 .28,.06q.45,.19 .27,.31q-.35,.33 -.65,.07q-.41-.27 -.06-.25q.58-.05 .51-.05q-.02,.06 -.09,.13l.04,.04q.08-.05 .15-.09q.07-.16 -.61-.15q-.47,.06 -.02,.47q.39,.29 .81-.07q.23-.25 -.29-.53q-.09-.02 -.34,0" fill="#803380"></path><path d="M269.13,79.83l.12-.04q-.03-.05 .05-.02q.95-.21 .92,0q.03,.35 -.47,.26q-.58-.04 -.44-.17q.17-.25 .36-.18q.07,0 .12,.07l.06-.04q-.05-.1 -.14-.15q-.27-.07 -.5,.22q-.16,.28 .52,.39q.61,.05 .63-.4q-.04-.36 -1.1-.18q-.17,.07 -.13,.24" fill="#803380"></path><path d="M270.98,79.7l.08,.04q.08-.14 .22-.06q.46,.11 .17,.16q-.46,.19 -.69,.08q-.42-.15 -.06-.14q.75-.14 .6-.08q-.07,.06 -.08,.09l.04,.04q.03,0 .1-.05q.2-.21 -.68-.14q-.48,.12 .02,.4q.29,.13 .81-.06q.38-.21 -.19-.44q-.22-.05 -.34,.16" fill="#803380"></path><path d="M272.16,79.69l.08,.1q.13-.11 .39-.08q.59,0 .03,.24q-.59,.31 -.68,.11q-.16-.21 0-.23q.44-.15 .5-.09q.12,.08 .17,.1l.04-.06q-.02-.04 -.13-.14q-.14-.1 -.62,.05q-.25,.12 -.08,.45q.19,.26 .86-.07q.64-.38 -.07-.5q-.32-.02 -.49,.12" fill="#803380"></path><path d="M272.25,79.84q0,.05 -.05,.05q-.05,0 -.05-.05q0-.05 .05-.05q.05,0 .05,.05" fill="#803380"></path><path d="M272.33,79.78l.06,.12q.07-.05 .09-.07l-.04-.08q-.03,0 -.11,.03" fill="#803380"></path><path d="M272.02,79.98l.02,.04q.05-.01 .07-.01l-.04-.08q-.01,.02 -.05,.05" fill="#803380"></path><path d="M272.4,79.94q0,.05 -.05,.05q-.05,0 -.05-.05q0-.05 .05-.05q.05,0 .05,.05" fill="#803380"></path><path d="M273.62,79.69l.08,.1q.04-.03 .02-.02q.44,.04 .31,.1q-.21,.22 -.51,.18q-.66-.04 -.49-.1q.33-.26 .55-.13q.1,.05 .14,.04l.04-.06q-.02-.04 -.12-.1q-.3-.15 -.69,.13q-.23,.24 .55,.36q.37,.04 .63-.22q.17-.23 -.39-.34q-.06,0 -.12,.06" fill="#803380"></path><path d="M275.18,79.55l.02,.12q.28-.04 .26,.02q.06,.21 -.34,.25q-.82,.15 -.69-.01q.16-.35 .51-.3q.27-.01 .18,.03q-.08,.09 -.09,.13l.04,.04q.04-.01 .13-.09q.13-.18 -.24-.25q-.44-.03 -.65,.38q-.11,.33 .83,.21q.49-.09 .46-.41q-.06-.16 -.42-.12" fill="#803380"></path><path d="M276.08,79.4l0,.06q.63-.06 .57-.05q0,.58 -.11,.54q-.07,0 -.12,0q-.47,.04 -.62,.02q-.01,.04 .03-.03q.18-.56 .26-.56q.31-.06 .33,0q.05,.07 .08,.08l.06-.04q0-.03 -.04-.1q-.09-.11 -.45-.06q-.16,.04 -.36,.64q-.03,.16 .07,.21q.17,.01 .64-.02q.05-.01 .12,0q.22-.02 .25-.68q-.06-.07 -.71-.01" fill="#803380"></path><path d="M271.57,78.82l.08,.04q.03-.05 .02-.02q.34,.05 .5,.21q.34,.26 -.11,.24q-.71,.03 -.71-.13q-.07-.4 .16-.29q.1,.02 .14,.01l.02-.06q-.03-.03 -.12-.07q-.36-.08 -.32,.43q.05,.25 .83,.23q.57-.05 .21-.46q-.2-.18 -.58-.25q-.06,.02 -.12,.12" fill="#803380"></path><path d="M272.95,78.91l.04,.02q.07-.1 .07-.05q.28,.05 .15,.12q-.3,.3 -.4,.26q-.32-.08 -.21-.16q.18-.24 .22-.16q.08,.08 .12,.09l.06-.04q-.01-.04 -.08-.13q-.16-.14 -.42,.16q-.13,.21 .27,.36q.19,.05 .54-.28q.16-.21 -.21-.36q-.08,.02 -.15,.17" fill="#803380"></path><path d="M274.09,78.95l.04,.04q.09-.06 .1-.03q.26,.04 .2,.08q-.17,.27 -.42,.23q-.38-.02 -.26-.09q.22-.26 .29-.21q.12,.03 .17,.03l.02-.06q-.03-.03 -.15-.09q-.16-.04 -.43,.25q-.13,.21 .34,.29q.33,.03 .54-.29q.07-.16 -.28-.26q-.06,.01 -.16,.11" fill="#803380"></path><path d="M275.22,78.77l.08,.04q.05-.08 .07-.02q.21,.15 .03,.28q-.33,.34 -.44,.15q-.18-.21 -.02-.27q.37-.26 .26-.18q-.06,.09 -.07,.13l.04,.04q.04-.02 .11-.11q.12-.23 -.4,0q-.23,.16 -.02,.47q.21,.24 .64-.13q.21-.23 -.05-.48q-.13-.07 -.23,.08" fill="#803380"></path><path d="M276.41,78.65l.04,.1q.14-.07 .24-.02q.51,.14 .13,.27q-.49,.24 -.58,.08q-.18-.23 -.01-.26q.49-.22 .41-.23q-.04,.05 -.04,.08l.04,.04q.03,0 .08-.02q.1-.16 -.53,.01q-.25,.12 -.05,.44q.18,.22 .74-.02q.44-.26 -.15-.51q-.15-.04 -.32,.04" fill="#803380"></path><path d="M276.69,79.05l.04-.12q-.05,0 -.31,.01l0,.08q.25,.01 .27,.03" fill="#803380"></path><path d="M277.67,78.6l.02,.04q.05-.01 .04,.01q.32,.13 .27,.16q-.09,.26 -.38,.24q-.46,.01 -.2-.2q.24-.25 .26-.19q.05,.07 .08,.08l.06-.04q-.01-.03 -.06-.1q-.12-.12 -.42,.17q-.29,.34 .28,.4q.35,.01 .5-.32q.02-.14 -.35-.3q-.04,.01 -.1,.05" fill="#803380"></path><path d="M278.94,78.56l.04,.08q.05-.02 .03-.01q.18,.11 .14,.13q-.15,.3 -.43,.23q-.37-.05 -.21-.13q.38-.35 .35-.21q.02,.03 -.04,.14l.06,.04q.09-.12 .1-.2q-.07-.24 -.55,.13q-.2,.22 .27,.35q.35,.06 .57-.29q.04-.13 -.18-.29q-.06-.02 -.15,.03" fill="#803380"></path><path d="M280.8,78.38l-.04,.04q.06,.06 .03,.04q-.13,.34 -.56,.22q-.38-.04 -.19-.09q.6-.33 .61-.17q.03,.03 -.03,.13l.06,.04q.09-.11 .09-.21q-.1-.25 -.79,.09q-.27,.2 .21,.35q.53,.1 .72-.3q-.01-.07 -.11-.14" fill="#803380"></path><path d="M282.09,78.36l.02,.06q.24-.05 .17,.02q-.05,.28 -.25,.27q-.46,.03 -.43-.01q.01-.26 .23-.24q.34-.05 .26-.04q-.06,.06 -.07,.09l.04,.06q.04-.01 .11-.07q.11-.15 -.34-.18q-.31,.03 -.35,.36q.02,.17 .55,.17q.29-.03 .39-.39q-.02-.16 -.33-.1" fill="#803380"></path><path d="M282.2,78.68l0-.06q-.12-.01 -.15-.04q-.13-.01 -.27,.03l.02,.08q.13-.02 .23,.01q.05-.01 .17-.02" fill="#803380"></path><path d="M283.28,78.51l.06-.02q-.03-.06 -.08-.01q.25,.14 .17,.16q-.45,.35 -.57,.19q-.18-.15 .05-.22q.22-.1 .28-.15l-.02-.06q-.08,.01 -.3,.09q-.31,.16 -.11,.42q.23,.21 .75-.17q.14-.15 -.17-.38q-.08,.02 -.06,.15" fill="#803380"></path><path d="M284.32,78.29l.08,.06q.06-.1 .13-.01q.34,.19 -.02,.23q-.53,.17 -.38,.07q.14-.21 .26-.17q.09,.01 .2,.06l.04-.06q-.11-.08 -.2-.12q-.21-.04 -.42,.21q-.14,.27 .54,.15q.46-.16 .06-.49q-.18-.09 -.29,.07" fill="#803380"></path><path d="M285.54,78.01l.06,.08q.14-.13 .15-.02q.11,.2 -.24,.2q-.54,.06 -.35-.04q.25-.24 .27-.16q.07,.09 .1,.12l.06-.04q-.01-.04 -.06-.14q-.12-.14 -.45,.12q-.22,.26 .43,.26q.45-.04 .36-.36q-.11-.18 -.33-.02" fill="#803380"></path><path d="M285.44,78.59l.04,.04q.05-.03 .05-.01q.33-.05 .22,.02q-.19,.33 -.44,.21q-.23-.05 .04-.12q.45-.22 .4-.17q0,.07 .02,.1l.06,0q.02-.02 .04-.08q-.02-.19 -.58,.03q-.34,.19 -.04,.36q.36,.13 .62-.25q.07-.22 -.34-.2q-.04,.02 -.09,.07" fill="#803380"></path><path d="M284.37,78.77l.02,.06q.26-.07 .35,.05q.29,.19 -.18,.16q-.65,.06 -.26-.09q.36-.21 .36-.14q.04,.06 .07,.07l.06-.02q.01-.03 -.01-.11q-.1-.15 -.54,.08q-.47,.31 .32,.35q.6-.05 .28-.4q-.18-.12 -.47-.01" fill="#803380"></path><path d="M283.79,78.68l0,.06q.27-.05 .22,.04q.01,.18 -.13,.18q-.43,.1 -.32,.03q.15-.26 .14-.22q.12,.09 .17,.11l.04-.04q-.02-.05 -.11-.17q-.13-.08 -.36,.24q-.1,.25 .46,.19q.23-.06 .25-.32q-.04-.16 -.36-.1" fill="#803380"></path><path d="M268.08,81.65l0,.12q.26,.01 .36,.01q.76-.09 .7-.08q-.2,.47 -.25,.64q-.16,.54 -.11,.51q-.68-.1 -.91-.07q-.39,.07 -.33,.07q.04-.06 .36-.61q.18-.32 .28-.47l-.06-.04q-.13,.14 -.32,.45q-.33,.54 -.36,.59q-.05,.17 .45,.13q.21-.02 .87,.07q.09-.02 .25-.59q.05-.16 .25-.62q.02-.17 -.84-.12q-.08,.02 -.34,.01" fill="#803380"></path><path d="M268.158,82.277l-.03-.006q-.014,.066 -.028,.072q-.034,.029 -.024,.016q-.001-.086 -.028-.069q-.058,.103 -.043,.071q.004-.044 .007-.059q0-.013 -.003-.018l-.016-.002q-.004,.003 -.009,.016q-.002,.015 -.007,.061q.006,.061 .095-.053q-.01-.008 -.024,.051q.005,.041 .068,.012q.024-.017 .042-.092" fill="#803380"></path><path d="M268.147,82.358l.028-.004q-.005-.001 .01-.029l-.016-.01q-.019,.031 -.022,.043" fill="#803380"></path><path d="M268.201,82.286l.02-.006q-.004-.012 -.005-.015l-.02,.006q.001,.004 .005,.015" fill="#803380"></path><path d="M268.344,82.378l-.004-.012q-.035,.008 -.022,.008q.002-.079 -.03-.072q-.069,.058 -.058,.07q.003-.017 .014-.053l-.016-.006q-.016,.033 -.026,.045q.002,.031 .104-.03q-.008-.009 -.02,.042q.011,.02 .058,.008" fill="#803380"></path><path d="M268.391,82.294l.01,.008q.012-.012 .002-.006q.05,.047 -.004,.081q-.042,.039 -.032,.028q0-.036 .002-.032q.021-.006 .028-.011l-.004-.016q-.008-.002 -.03,.001q-.02,.009 -.024,.056q.008,.041 .078-.002q.067-.055 .01-.127q-.018-.002 -.036,.02" fill="#803380"></path><path d="M268.467,82.34l.026,.004q0-.008 -.009-.001q.043,.003 .034,.014q-.008,.066 -.033,.042q-.043-.018 -.014-.028q.025-.018 .031-.026l-.01-.016q-.011,.003 -.037,.018q-.043,.036 .014,.078q.057,.025 .081-.062q.001-.038 -.06-.052q-.017,.006 -.023,.029" fill="#803380"></path><path d="M268.691,82.315l-.03,.018q.023,.031 .005,.041q-.036,.043 -.025,.01q-.012-.017 -.041-.01q-.065,.034 -.021-.005q.017-.024 .021-.033l-.016-.012q-.008,.006 -.027,.027q-.047,.075 .053,.053q.011-.006 -.001-.02q.009,.063 .079,.014q.03-.031 .003-.083" fill="#803380"></path><path d="M268.703,82.414l-.01,.008q.005,.012 .015,.019q.032-.007 .037-.027q-.011-.099 -.01-.084q.019,.012 .027,.014l.012-.016q-.004-.007 -.021-.022q-.038-.014 -.038,.11q.005-.007 -.011-.007q.004,.008 -.001,.005" fill="#803380"></path><path d="M268.167,82.638l-.008-.01q-.008,.008 .007,.015q.006-.031 .01-.037q.085-.156 .039-.133q-.066,.069 -.062,.049q-.018-.034 .013-.04q.064-.029 .051-.026q-.004,.018 -.002,.025l.016,.006q.006-.005 .014-.021q.002-.039 -.089-.014q-.05,.023 -.033,.082q.026,.039 .114-.039q.001-.021 -.089,.093q-.008,.013 -.016,.049q.013,.015 .035,.001" fill="#803380"></path><path d="M268.246,82.577l-.022,.024q.049,.044 .09,.028q.081-.048 .045-.084q-.047-.027 -.039-.022q.029-.043 .036-.02q.012,.014 .02,.017l.014-.01q.001-.008 -.008-.025q-.034-.038 -.088,.016q-.013,.029 .047,.072q.02,.001 -.043,.026q-.017,.013 -.052-.022" fill="#803380"></path><path d="M268.321,82.081l.03,.008q.021-.077 .036-.092q.111-.14 .061-.128q-.14,.08 -.149,.079q-.077,.015 .013-.032q.115-.083 .115-.052q.009,.02 .015,.025l.016-.004q.002-.008 -.001-.029q-.026-.055 -.163,.032q-.103,.084 .007,.092q.019-.002 .163-.085q.007-.021 -.101,.08q-.021,.024 -.042,.106" fill="#803380"></path><path d="M268.414,82.089l.002,.012q.044-.003 .058,.004q.211-.006 .179-.112q-.035-.073 -.09-.057q-.044,.029 -.033,.04q.057-.107 .133-.085q.029,.003 .056,.016l.01-.016q-.028-.02 -.058-.032q-.1-.021 -.171,.099q-.003,.036 .077,.012q.025-.018 .042,.037q.039,.068 -.145,.062q-.016,.007 -.06,.02" fill="#803380"></path><path d="M268.187,81.813l0,.022q.034,.002 .045,.005q.222,.023 .297,.019q.23-.012 .303,.003q.02-.001 .008,.032q-.051,.188 -.064,.251q-.016,.077 -.007,.071q-.295-.023 -.393-.035q-.222-.028 -.297-.022q-.083,.014 -.064,.004q.164-.259 .217-.347l-.014-.008q-.059,.083 -.227,.339q-.016,.044 .09,.04q.072-.008 .293,.018q.098,.012 .393,.035q.015-.006 .033-.089q.014-.063 .064-.251q.011-.051 -.026-.064q-.077-.017 -.311-.005q-.072,.004 -.293-.019q-.012,.001 -.047,.001" fill="#803380"></path><path d="M268.141,81.983l.008,.024q.067-.025 .059-.013q.001,.054 -.006,.05q-.082,.009 -.07,.006q.007-.018 .044-.063l-.012-.01q-.04,.044 -.052,.061q-.008,.032 .092,.03q.026-.006 .03-.074q-.007-.035 -.093-.011" fill="#803380"></path><path d="M268.227,82.005l-.004,.02q.036,.009 .051,.005q.039-.024 .03-.025q-.002,.052 .003,.046q-.029-.005 -.04-.003q-.037,.011 -.027,.006q.003-.014 .025-.042l-.012-.01q-.026,.027 -.035,.044q-.005,.031 .053,.026q.006-.001 .032,.003q.021-.003 .027-.068q-.007-.026 -.068-.001q-.004,.005 -.035-.001" fill="#803380"></path><path d="M268.096,82.059l.012,.028q.011-.005 .013-.005q.057-.014 .043-.006q-.014,.039 -.027,.041q-.054,.02 -.041,.014q.002-.017 .029-.056l-.012-.01q-.032,.039 -.043,.056q-.004,.037 .075,.022q.026-.008 .047-.057q.006-.04 -.075-.034q-.007,.001 -.021,.007" fill="#803380"></path><path d="M268.192,82.07l.012,.026q.041-.02 .058,0q.009,.008 .009,.009q.013,.036 .012,.029q-.103,.028 -.085,.009q.002-.016 .026-.049l-.01-.008q-.029,.032 -.04,.047q-.01,.049 .115,.027q.021-.011 .008-.063q-.003-.009 -.015-.021q-.033-.029 -.09-.006" fill="#803380"></path><path d="M249.6,360.4l0-1.2q-9.5-.1 -20,.4q-32.2,1.6 -36.1,1.7q-21.1,.3 -28.1,1.1q-20.3,2.1 -27,2.4q-15.4,.6 -20.5,.9q-19.8,.9 -28.2-.6q-11.3-2 -13.4-4.2q-1.1-.9 -2-2.7l-.6,.2q.8,2.1 1.8,3.3q2.5,2.4 14,4.4q8.6,1.5 28.4,.6q5.1-.2 20.5-.7q6.8-.2 27.2-2.4q6.9-.7 27.9-1.1q4,0 36.1-1.5q10.5-.5 20-.6" fill="#803380"></path><path d="M306.6,350.7l-.4-.6q-3.2,2.3 -4.4,3q-3.9,3.8 -20.5,4.8q-1.8,.4 -33,1.8l0,1q31.3-1.2 33.2-1q17-1.1 21.5-5.4q.7-1.1 3.6-3.6" fill="#803380"></path><path d="M276.6,357.9l-2,0q-.1,2.2 -.1,3q1.5,13.8 1.9,13.1q-15.5,2.4 -20.6,3.7q-6.9,1.9 -6.2,2.3q-.6-1.4 .6-19.6l-1,0q-1.4,18.2 -1.6,19.8q.9,1.5 8.8-.5q4.9-1.3 20.4-3.7q1.3-.9 -.1-15.3q-.1-.6 -.1-2.8" fill="#803380"></path><path d="M279.5,296.5l-2.2,0q-.5,16.5 -.5,22q.4,11.8 -1.4,40.1l.8,0q2.4-28.2 2.8-40.1q0-5.5 .5-22" fill="#803380"></path><path d="M267.4,365.5l.4-.6q-1.2-.7 -2.2-.2q-1.4,7.8 -1,6.7q-1.8-4.2 -3.4-5q-1.4-.5 -2-.5l-.4,.8q.3,.5 1.6,1.3q.9,.4 2.4,4.2q1.9,2.3 4.8-6.9q-.8,0 -.2,.2" fill="#803380"></path><path d="M154.5,301.3l2,1q0-.9 41.1-2q38.9-1 39.3-1.1q9.5-1.3 12.5-1q15.6,1.4 20.8,0q4.3-1.3 5.3-.7q1.3,.4 1.9,.4l.4-1q-.3-.4 -1.5-1.2q-1.8-.7 -6.7,.5q-4.7,1.3 -20-.2q-3.3-.3 -12.9,1q-.2,0 -39.1,1.1q-41.6,1.1 -43.1,3.2" fill="#803380"></path><path d="M252.2,360.2l.2-2.4q-2.8-.3 -3.9-.4q-35.6-1.2 -47.6-.5q-15.5,1 -20.7,1q-13,.1 -17.2,1.4q-4.1,1.4 -3.4,1.2q-2.6-27 -2.9-36q-1.8-28.7 -2.3-23.8q.4,.9 .5,2.5l1,0q.3-1.6 .5-2.7q-1.7-7 -1.9,24q.2,9.1 2.7,36.2q.9,2.2 6.4,.8q3.9-1.1 16.6-1.2q5.3-.1 20.9-1q11.8-.8 47.4,.5q.8,0 3.7,.4" fill="#803380"></path><path d="M227.9,364.4l.2,.8q.9,0 1.2,.2q8.9,.2 11.7,2q9.1,4.9 5.1,6.6q-11.1,6.7 -52.9,6.9q-51.6,.4 -68.8-.4q-15.7-.6 -18.6-3.2q-3.9-2.4 4.2-4.5q10.4-3.3 19-3.8q19.7-1.1 26.3-1.6q13.7-1.2 57-1q19.6,0 26.1-.1l0-1q-6.5-.5 -26.1-.7q-43.3-.3 -57.2,.8q-6.5,.5 -26.3,1.6q-8.8,.5 -19.4,3.8q-9.4,3.5 -5,8.1q3.7,3 20,3.8q17.2,.7 68.8,.4q42.2-.3 53.9-7.3q5.2-3.8 -5.1-10.2q-3.4-1.8 -12.7-1.8q-.4,.2 -1.4,.6" fill="#803380"></path><path d="M291.7,369.6l1.6,.8q1.5-2.9 1.1-2.6q2.7,1.3 3.1,.6q-5.2-.7 -3.9,.7q2.6,.7 .4,2.7q-3.4,4 -5.9,2.4q-5-2.5 -2.5-5q3.1-3.8 3.8-3.3q1.2,.3 1.7,.2l.2-.6q-.2-.4 -1.3-1q-1.9-.6 -5.6,3.7q-2.9,3.9 2.9,7.4q3.6,1.8 7.9-2.8q2.6-3.4 -1-5.3q-.3,.8 2.7,2.5q1.9-.3 -1.5-3.6q-1.4-.5 -3.7,3.2" fill="#803380"></path><path d="M92.7,377.9l.4-.2q-.3-.6 -.6-4.8l-.4,0q.2,4.3 .6,5" fill="#803380"></path><path d="M93.3,379.2l-.6,.6q.2,.2 .4,.2l.4-.4q0-.2 -.2-.4" fill="#803380"></path><path d="M86.8,377.3l.6,.4q.2-.2 .3-3.9q0-2.3 -.3-1.9q5.7-.8 7.5-1.5q2-.7 2-.3q.3,.3 .3,9.5q.2,2.3 -1.8,2.2q-2.9-.1 -4,.1q-3.9,.5 -3.7,.1q-.3-5.6 -.5-7.5l-.4,0q-.1,1.9 .1,7.5q.2,1.2 4.7,.7q.9-.1 3.8-.1q2.6-.1 2.8-3q0-9.3 -.5-10.1q-.7-.7 -3,.1q-1.8,.5 -7.5,1.3q-.4,.4 -.5,2.9q0,3.6 .1,3.5" fill="#803380"></path><path d="M96.1,370.1l.4,0q.1-.2 .3-.4q-.3-1.5 -.8-1.9q-3.6-3.3 -6.2-.8q-3,3.3 -1.4,3.8q.5,0 .7-.1l0-.4q-.1-.2 -.5-.3q-.9,.1 1.8-2.4q2-2.2 5,.8q.2,.2 .4,1.5q.2,0 .3,.2" fill="#803380"></path><path d="M125.725,377.375l0,.25q1.2125-.05 .9875-1q-1.2125-2.275 -.925-2q.2125-.0625 .65,.4375l.325-.25q-.4875-.6625 -.9-.8125q-.9625,.1 .275,2.9q.4375,.4375 -.4125,.475" fill="#803380"></path><path d="M128.0375,374.35l.15,.225q.1875-.1 .275-.1125l-.225-.325q-.0375,.075 -.2,.2125" fill="#803380"></path><path d="M129,376.4q0,.2625 -.2625,.2625q-.2625,0 -.2625-.2625q0-.2625 .2625-.2625q.2625,0 .2625,.2625" fill="#803380"></path><path d="M130.125,377.55l.25,.05q.1375-.425 .275-.525q.4625-1.55 1.4125-3.775l-.375-.15q-1.0125,2.2 -1.5875,3.75q.05,.1875 .025,.65" fill="#803380"></path><path d="M132.0625,377.675l.25-.05q0-.1875 .1-.175q.7125-2.225 .8875-3.0125q.2125-1.375 .225-1.85l-.375-.075q-.15,.45 -.45,1.825q-.1,.7375 -.7875,2.9625q.05,.15 .15,.375" fill="#803380"></path><path d="M139.5625,375.9125l-.15-.2q-.6,.425 -.3375,.3125q-.025-1.5125 -.625-1.3625q-1.2125,1 -.975,.9875q-.25-2.4 -.8125-1.8625q-1.475,3.4375 -1.125,2.9625q-.025-.475 .225-2.45l-.4-.05q-.325,1.9625 -.45,2.425q.1625,1.1375 2.275-2.6125q-.175-.25 -.3125,1.6125q.25,.575 1.925-.5375q-.15-.175 -.325,.8625q.225,.475 1.0875-.0875" fill="#803380"></path><path d="M142.375,375.1125l-.15-.2q-.675,.5375 -.4125,.3375q-.1125-1.75 -.6375-1.375q-.825,1.55 -.6375,1.3375q-.2875-.7875 .1875-1.025q.6125-.45 .8-.6375l-.225-.325q-.2375,.0875 -.9,.4875q-.7125,.5375 -.4375,1.675q.4375,.6125 1.6875-1.2125q-.2125-.1375 -.4375,1.05q.225,.575 1.1625-.1125" fill="#803380"></path><path d="M142.8875,375.7l0-.25q-.1375-.0375 .1,.05q-.0375-1.3875 .0125-1.9625q.0375-.9625 .35-2.3875l-.35-.1q-.4375,1.4375 -.625,2.4125q-.0875,.625 -.0625,2.0625q.2375,.2125 .575,.175" fill="#803380"></path><path d="M144.375,375.825l.075-.45q-.0625,0 .075,.1375q-.0875-.65 .3375-4.35l-.325-.05q-.5,3.7125 -.6125,4.4q.1375,.25 .45,.3125" fill="#803380"></path><path d="M148.55,372.925l-.025,.525q.425-.0125 .2125,.25q-.025,2.1375 -.025,1.425q-.725-1.2875 -1.275-.9q-.325,.5625 -.4375,.6q-.925,.7375 -.575-.4125q.0125-.4875 -.05-.6625l-.425-.05q-.1,.15 -.225,.6125q-.05,1.825 1.625,1.1375q.2875-.1875 .7125-.85q-.275-.075 0,.825q.8375,1.1375 1.45-1.625q-.0875-.775 -.9625-.875" fill="#803380"></path><path d="M152.9625,374.275l-.3-.25q-.6,.7875 -.6125,.3625q-.5875-.6875 -1.0625-.4625q-.3875,1.1125 -.4375,.9625q-.7125,.025 -.275-.5875q.5-1.6 .3375-1.1625q.1875,.4375 .325,.5625l.375-.1q.05-.1875 -.025-.6625q-.5625-.975 -1.7125,1.0375q-.4125,1.2875 .85,1.6625q.6625-.025 1.2625-1.4375q-.475,.2125 -.2375,.6375q.675,.5 1.5125-.5625" fill="#803380"></path><path d="M155.0125,373.2875l.05-.475q-.575-.0875 -.9125,.1125q-.95,2.15 -.6875,1.9625q-.1375-.9625 -.275-1.275l-.325,.025q-.075,.3375 -.05,1.3q.3625,.925 2.0625-1.6125q-.2-.0375 .1375-.0375" fill="#803380"></path><path d="M157.775,374.825l-.075-.275q-1.325,.3125 -1.5-.025q-1.0375-.5 -.55-.7625q1-1.425 .5625-.725q-.075,.75 .05,.6125q-.5-.0625 -.675-.0125l-.1,.425q.1375,.125 .6,.2875q.6-.0375 .875-1.1625q-.0125-1.5625 -1.8875,.05q-.675,.9625 .7,1.9625q.5875,.1375 2-.375" fill="#803380"></path><path d="M159.85,374.3625q0,.3 -.3,.3q-.3,0 -.3-.3q0-.3 .3-.3q.3,0 .3,.3" fill="#803380"></path><path d="M163.775,374.575l-.2-.525q-1.15,.4 -1.05,.275q-1.35-1.175 -.6-1.4875q.2125-.3 .725-.125l.175-.425q-.7375-.3375 -1.325-.075q-1.0875,.9625 .5,2.6625q.425,.1875 1.775-.3" fill="#803380"></path><path d="M164.275,372.475l.275,.125q.125-.1375 .075,.0625q1.025-.25 .4,.175q-.7875,1.2375 -.6375,1.0125q-.7625-1.05 -.2125-1.0625q.5625-.25 .7125-.4125l-.125-.4q-.2375-.0375 -.8375,.1125q-1.05,.525 -.2125,2.1625q.65,.6125 1.9375-.9375q.65-1.2875 -1.075-1.375q-.2,.2125 -.3,.5375" fill="#803380"></path><path d="M171.15,373.45l-.175-.45q-.275,.125 0,.2q-.525-1.6375 -1.2125-1.3625q-1.3375,1.5875 -.9875,1.3875q-.1-1.675 -.7875-1.525q-1.45,1.525 -1.1125,1.7375q.05-.7 .2-1.75l-.425-.1q-.325,1.0125 -.575,1.675q.225,.75 2.4375-.9375q-.3625-.1375 -.5625,.875q.3,1 2.3625-.7875q-.2375-.1875 -.0625,.9625q.325,.2875 .9,.075" fill="#803380"></path><path d="M172.2125,374.85l.55,.175q1.0625-3.5 1.325-4.7l-.425-.1q-.35,1.15 -1.45,4.625" fill="#803380"></path><path d="M180.9,374.025l.025-.3q-.7625-.1 -.55-.3375q-.275-1.85 -1.35-1.0375q-1.2375,1.775 -.875,1.225q-.025-2.4625 -.8375-2.05q-1.6625,2.1 -1.3125,2.2375q-.15-.3875 -.075-1.8l-.35-.05q-.2375,1.4375 -.325,1.9q.3875,.625 2.6625-1.7625q-.2375-.2625 -.5625,1.475q.225,1.375 2.275-.65q.1625-.625 0,.5375q.2375,.575 1.275,.6125" fill="#803380"></path><path d="M185.875,373.15l-.25-.15q-.1875,.225 -.3,.1375q-1.1,.9625 -.7,.075q.025-1.3625 -.6375-1.1875q-1.6375,1.925 -1.25,1.5875q.125-1.3375 .3625-1.2625q.4625-.15 .6-.3l-.05-.35q-.1875-.1 -.675-.1q-.7625,.225 -1.0375,1.9125q.1875,1.175 2.6-.9375q-.3625-.125 -.6625,.5125q0,1.625 1.825,.6q.0625-.2 .175-.5375" fill="#803380"></path><path d="M186.1,374.575l.3-.725q-.15-.0125 -.0375,.1875q-.0125-1.4375 .6125-4.525l-.425-.1q-.75,3.1 -.9625,4.575q.1,.3625 .5125,.5875" fill="#803380"></path><path d="M187.725,374.35l-.15-.25q-.375,.2375 -.0125,.3125q-.125-.65 .775-5.225l-.425-.075q-1.0125,4.5625 -1.175,5.275q.35,.3375 .9875-.0375" fill="#803380"></path><path d="M188.4625,374.4125l-.225,.175q.2625,.425 .7125,.4625q1.7375-1.875 1.1125-2.8q-.8375-.9375 -.8875-.6125q.15-.2625 .9375-.4125l-.025-.35q-.9125,.025 -1.3375,.1375q-.2625,.475 .7375,1.7125q.3875,.275 -1.1625,1.7q.3125,.1625 .1375-.0125" fill="#803380"></path><path d="M117.3125,379.225l.25-.025q-.0375-.8375 -.4125-4.225l-.325,.025q.4125,3.3875 .4875,4.225" fill="#803380"></path><path d="M118.75,379.475l.45-.25q-.125-.25 -.1375-.3q-.5875-2.3375 -1.525-1.5625q-.2375,.275 -.2875,.4l.225,.2q.1125-.05 .3875-.3q.4125-.625 .7,1.3625q.025,.15 .1875,.45" fill="#803380"></path><path d="M119.9375,379.1625l.35-.15q-.0625-.0625 -.6625-4.05l-.3,.05q.5875,3.9875 .6125,4.15" fill="#803380"></path><path d="M120.325,377.2l-.1-.55q-.15,.1 -1.25,.5125l.125,.375q1.1-.3875 1.225-.3375" fill="#803380"></path><path d="M121.5125,378.7l.25,0q.0375-.9375 .0875-1.275q-.2875-1.8875 -.7625-3.175l-.35,.1q.375,1.2875 .5625,3.15q.125,.275 .2125,1.2" fill="#803380"></path><path d="M122.475,376.65l0-.25q-.5875-.0375 -2.1875,.225l.075,.425q1.575-.3375 2.1125-.4" fill="#803380"></path><path d="M122.9375,379.1375l.475,.325q0-.225 -.1125-4.1375l-.35,0q.1,3.8875 -.0125,3.8125" fill="#803380"></path><path d="M123.5125,376.2125l-.15,.55q.6375,.1625 .9375-.0625q.9125-1.35 .1-1.9875q-1.3875-.6875 -1.6625,.275q-.0375,.575 0,.775l.425,.05q.075-.1875 .175-.75q-.1125-.45 .7375,.2q.5125,.15 -.275,1.0625q.1125,.025 -.2875-.1125" fill="#803380"></path><path d="M178.975,305l-1,.25q.25,.375 -4.25,7q-6.625,10.125 -6.5,12.125q.25,1.875 .5,1.5q-2.375-1.125 -4-3.5q-.625-.75 -2-1.875l-.25,.5q1.125,1.125 1.5,1.875q1.75,2.5 4.25,4q1.125,.125 1-2.5q-.125-1.5 6.5-11.625q4.375-6.75 4.25-7.75" fill="#803380"></path><path d="M173.85,318.875l-.25,.25q0,.25 -.25,.25q.25,5.875 -2.5,7q-5.5,2.875 -7.75,1.375q-4.625-2.875 -3.625-7.75q.625-4.5 1.75-4.875q1.125-.5 1.75-.625l0-.5q-.75,0 -2,.375q-1.625,.625 -2.5,5.375q-.875,5.5 4.125,8.75q2.75,1.75 8.75-1.125q3.125-1.75 3-8q-.25-.125 -.5-.5" fill="#803380"></path><path d="M170.475,315.375l.75-.75q-1.625-2 -3-2q-.625,.125 -2.125,.5l0,.5q1.625-.125 2.125,0q.875-.125 2.25,1.75" fill="#803380"></path><path d="M186.725,324.25l-1-.25q-.125,1.875 2.25,2.25q4.875,.375 4.625-3.75q-.875-7.875 -3-11.125q-2.125-3.125 -.375-3.25q2.75-.75 2.875,1.25q.375,.75 .125,2.375l.5,0q.375-1.625 .375-2.625q-.625-2.625 -4.125-2q-2.5,.875 -.125,4.75q1.875,3 2.75,10.625q.5,3.375 -3.625,2.75q-1.5-.125 -1.25-1" fill="#803380"></path><path d="M195.85,319.875l.5,.75q.125-.25 -.125,.5q.25,3.875 -.625,2.625q-1.375-1.125 -1.125-1.75q.125-1.125 0-1.5l-.5,0q-.25,.25 -.5,1.25q-.125,1.25 1.375,2.75q2.125,1.375 2.375-3.375q-.25-1.625 -1.375-1.25" fill="#803380"></path><path d="M201.35,323.125l-.25-.25q-2.375,.875 -2-.25q0-2.375 .25-2.125q.625,0 .875-.125l0-.5q-.125-.25 -.625-.375q-1.25,0 -1.5,3.125q.25,1.625 3.25,.5" fill="#803380"></path><path d="M204.475,322.75l-.25-.25q-.25,0 -.375-.25q-1.625,.5 -1.5-.125q-.375-3 .125-2.75q.125-.125 .75,.5l.5-.5q-.625-.875 -1.25-1q-1.375,.125 -1.125,3.75q.375,1.5 2.75,1.125q0-.25 .375-.5" fill="#803380"></path><path d="M207.725,322.75l0-.5q-2,.375 -1.875-.25q-1.125-2.125 .25-2.5q1.625-1 1-.25q-.375,1.875 -.75,1.375q-.625-.375 -.875-.375l-.25,.5q.125,.25 .625,.625q1.375,.625 2.25-1.875q.25-2 -2.5-1q-2,1.125 -.75,4q.75,.625 2.875,.25" fill="#803380"></path><path d="M209.35,322.125l-.25-.25q-.625,.375 -.25,1q2.375-.25 1.875-2q-1.625-3.125 -1.25-2.625q.375,0 .875,.375l.5-.25q-.5-.75 -1.125-1.125q-1.625,0 0,4.125q.5,.5 -.875,.25q.125,.625 .5,.5" fill="#803380"></path><path d="M212.225,321.5l-.25-.25q-.375,.5 -.25,1q1.125,.5 1.875-.125q1.125-1.5 .375-2.5q-2.125-1.75 -1.75-1.875q0-.375 1-.25l0-.75q-1.25-.125 -1.75,.25q-.625,1.125 1.75,3.375q.5,.125 -.375,1q-.125,.25 -.625-.125q0,.5 0,.25" fill="#803380"></path><path d="M216.35,324.375l.25-1q-.125,.125 -.25-2.5q-.5-7.25 .75-6.875q2.5,0 .75,2.375q-1.125,2.5 -.875,1.75q-.125-1 -.25-1.25l-.5,0q-.125,.375 0,1.25q.5,1.75 2.625-1.25q1.75-3.375 -1.75-3.875q-2.125,.125 -1.75,7.875q.25,3.125 1,3.5" fill="#803380"></path><path d="M217.475,320.5l-.25-.25q-.25,0 -2.125-.125l0,.75q2-.125 2.375-.375" fill="#803380"></path><path d="M223.475,320.625l-.25-.25q-1.5,1.375 -1.125,.5q-.5-3.5 -1.375-2.5q-.375,1.125 -.625,1.25q-1.5,2.875 -.875-.125q0-1.125 -.125-1.5l-.5,0q-.25,.375 -.375,1.5q0,4 2.875,.875q.25-.5 .625-1.75q-.5-.125 -.625,2.25q.5,1.5 2.375-.25" fill="#803380"></path><path d="M224.725,321.125l-.25-.75q-.125,.125 .25,.375q-.125-1.625 -.625-6.5l-.75,0q.5,4.875 .375,6.5q.375,.5 1,.375" fill="#803380"></path><path d="M225.975,321.125l.75-1q-.125,.125 -.25-.75q-.375-3.125 -.25-6.625l-.75,0q-.25,3.5 0,6.625q.125,1.25 .5,1.75" fill="#803380"></path><path d="M228.85,320l.25-.25q-.5-.375 -1.75-2.75l-.5,.25q1.375,2.5 2,2.75" fill="#803380"></path><path d="M227.475,326.25l1,0q-.125-1 2-10.375l-.75-.25q-2.125,9.5 -2.25,10.625" fill="#803380"></path><path d="M247.975,318.125l-.25-.75q-2.125,.875 -1.25-.625q0-1.5 -.5-1.75q-.375,1.625 -2,2.5q-2,1.75 -.75,.125q1.125-2.375 1.625-2.125q1,.125 1.375,0l0-.5q-.25-.25 -1.125-.5q-1.375-.125 -2.875,2.625q-1,2.875 2.25,1.375q1.875-1.25 2.5-3.25q-.25-1 -1.5,1.25q-.375,2.375 2.5,1.625" fill="#803380"></path><path d="M252.6,318l0-.75q-2,0 -1.625-1.5q.125-5.75 -.25-5.125q.75,3.375 .625,4q-1,3.875 -1.75,3.375q-1.125-.25 -.375-1.125q1-2.125 .875-1.75q.5,.375 .75,.5l.5-.5q-.125-.25 -.5-.75q-1-.625 -2.625,2q-.75,1.75 1.125,2.625q1.75,.375 3-4.125q.25-.875 -.625-4.5q-.875-1.5 -1.75,5.375q0,2.125 2.625,2.25" fill="#803380"></path><path d="M258.85,317.25l-.25-.25q-.25,.125 -.25-.125q-2,.125 -1.75-1q0-6.5 -.375-5.5q.375,3.875 .25,4.125q-1.625,3.375 -1.875,2.875q-.875-.25 -.25-.875q1.5-2.25 1.125-2.125q.625,.5 .875,.625l.5-.5q-.125-.25 -.625-.875q-.75-.25 -2.625,2.125q-.875,1.5 .5,2.625q1.25,.375 3.375-3.375q.25-.625 -.25-4.875q-.75-1.875 -1.625,5.75q.125,1.75 2.75,2q.25-.25 .5-.625" fill="#803380"></path><path d="M264.1,317.5l-.25-.75q-3,.625 -3-.25q-.625-2.25 -.25-2.125q1.5-.625 1.125-1q-1,1.5 -.875,1.375q-1-.25 -1.375-.125l-.25,.5q.375,.25 1.375,.625q.75,0 2.125-1.625q.125-1.125 -2.375-.75q-1.125,.5 -.5,3.375q.625,1.375 4.25,.75" fill="#803380"></path><path d="M269.225,317.5l0-.5q-2-.125 -1.75-1.375q-.875-6.75 -1.125-5.75q1.625,6.25 -.75,6.75q-1.375,.625 -.625-.25q.875-2.25 1-2q.875,.125 1.25,0l0-.5q-.25-.25 -1-.5q-1.125,0 -2.25,2.5q-.5,2.125 1.875,1.75q3.125-1 1.5-8q-1-1.875 -1.125,6q.5,1.875 3,1.875" fill="#803380"></path><path d="M180.35,338l-.25-.25q-.25,.25 -.375,0q-.75,.625 -.375,.25q-.75-5.625 -1.75-4.25q-1,2.625 -1.5,3.25q-.375,1.25 0,.5q-.75-5.375 -1.625-4q-1.375,6.25 -1.125,5.25q-.5-2.125 -.25-2.5q.125-.625 .125-.875l-.5-.25q-.25,.125 -.625,.625q-.375,.875 .25,3.25q.875,1.75 3.125-5.25q-.375-.5 -.625,3.75q.5,1.875 2.25,.25q.625-.875 1.5-3.75q-.25-.5 -.5,4q.375,1.375 2.125,.75q.125-.375 .125-.75" fill="#803380"></path><path d="M185.975,336.875l-.5-.75q-1.25,1.125 -.875,.75q-.25-3 -1.125-2.25q-.875,2.25 -1.125,2.25q-1.25,.875 -.75,.125q.5-2.5 .625-2q.625,.25 1,.25l.25-.5q-.125-.25 -.75-.75q-1.25-.375 -2.125,2.75q-.125,2 2.25,1.125q.5-.375 1.625-2.75q-.5-.25 -.875,1.75q.375,1.25 2.375,0" fill="#803380"></path><path d="M187.85,337l-.5,0q0,.375 -.125,.125q-.25,.375 .125-.625q-.125-3.375 0-6.5l-.5,0q-.625,3.125 -.75,6.5q.375,1.875 1.625,1.375q.125-.375 .125-.875" fill="#803380"></path><path d="M188.6,338.25l1-.5q-.375-.375 -.375-7.75l-.75,0q0,7.5 .125,8.25" fill="#803380"></path><path d="M195.6,331.625l.75,0q-.125-.25 -.5,0q1.5,.375 .625,2.125q-.5,1.875 -.5,1.375q-1-1.375 -1.625-1.125q-.75,2.125 -1.125,2q-2.125,.125 -1.125-1.75q.375-.875 .375-1.25l-.5-.25q-.25,.25 -.625,1q-1.125,2.875 1.875,3.25q1-.125 2.125-2.5q-.625,.25 -.125,1.125q1,1 2.25-1.375q.875-2.5 -1.125-3.625q-.625,.25 -.75,1" fill="#803380"></path><path d="M203.1,333.875l-.25-1q-1.5,.625 -1.125,.875q-.75-1.375 -1.375-.75q-.25,.875 -.5,1q-1.25,1.25 -.75,.375q.25-2.375 .625-2q.375,0 .875,.5l.5-.25q-.5-.875 -1.125-1.25q-1.375-.125 -1.875,2.75q0,2 2.5,.625q.375-.25 .75-1.5q-.5,.25 -.625,.75q.5,.5 2.375-.125" fill="#803380"></path><path d="M206.6,330.375l0-.5q-1.5-.375 -2,.75q.125,3.625 .5,3.25q-.5-1.125 -.75-1.5l-.5,.25q0,.375 .25,1.5q.875,1.25 1.75-3.5q-.375-.5 .75-.25" fill="#803380"></path><path d="M210.475,333.75l-.25-.25q-2.375,.75 -2-.25q-.375-2.125 -.125-2q1.375-.5 .5,0q-1,1.625 -.625,1.25q-.125-.5 -.25-.75l-.5,0q-.125,.25 -.25,.75q.375,1.375 2.375-.5q1-1.75 -1.5-1.75q-1,.375 -.875,3q.625,1.625 3.5,.5" fill="#803380"></path><path d="M213.6,333.5l.25-.25q-.375-.25 -.5-.5l-.25,.75q.125-.125 .5,0" fill="#803380"></path><path d="M218.6,333.125l-.25-.25q-.875,.25 -1.25,.125q-3.25,.875 -1.5-1.375q.625-1.375 .75-1.875l-.5-.25q-.375,.375 -1.25,1.625q-1.625,3.375 2.75,2.875q.375-.25 1.25-.875" fill="#803380"></path><path d="M219.975,330.125l.75,.75q.25-.25 0-.25q1.625,.25 .125,.75q-2,1.75 -1.75,1q-.125-1.5 -.125-1.25q.75,0 1-.125l0-.75q-.25-.125 -1-.125q-.875,.25 -.875,2.25q.375,1.75 3.5,0q1.875-1.75 -.625-2.75q-.5,0 -1,.5" fill="#803380"></path><path d="M230.85,332.75l-.25-.75q-.375,.25 0,.375q-.5-2.375 -1.5-2q-1.875,1.75 -1.5,1.625q-.375-2.875 -1.375-2.375q-2.75,3.375 -2.375,2.75q-.375-.375 -.125-2.375l-.5,0q-.375,2 -.625,2.625q.875,1.5 4.375-2.25q-.375-.25 -.375,1.625q.5,1.25 3.25-.875q-.375-.25 -.25,1.5q.375,.5 1.25,.125" fill="#803380"></path><path d="M243.35,331.875l.75,0q0-2.75 0-3.625q0-1.625 -.25-2.125l-.5,0q-.25,.5 -.25,2.125q0,.875 .25,3.625" fill="#803380"></path><path d="M246.475,328.875l-.25-.75q-.875,.25 -1.125,.25q-.75,.375 -3.125,1l0,.5q2.5-.375 3.375-.5q.25-.125 1.125-.5" fill="#803380"></path><path d="M247.975,327.625l-.5,1q2.25,.625 1.25,.875q-1.5,1.5 -1.375,1q-.75-2.375 -.5-1.875q.5,.125 .75,.125l.25-.75q-.125-.125 -.75-.375q-1.5-.125 -.75,3.125q.625,1.25 3.125-.25q1.375-1.5 -1.5-2.875" fill="#803380"></path><path d="M260.85,329.75l1,0q-.125-2.875 -.375-6.875l-.5,0q0,4 -.125,6.875" fill="#803380"></path><path d="M263.475,326.75l.25-.75q-.625-.375 -1-.25q-1.625,1 -2,.875q-.875-.25 -1.25-.125l-.25,.5q.25,.25 1.25,.625q.875,.25 2.75-.875q-.125-.125 .25,0" fill="#803380"></path><path d="M263.975,329.125l1,0q-.5-4.625 -.75-6.125l-.5,0q0,1.5 .25,6.125" fill="#803380"></path><path d="M267.475,329l-.5-1q.25,.25 .375-.25q-.25-4 -2.25-2.5q-.5,.625 -.625,.875l.5,.5q.25-.125 .875-.625q.75-1.25 .5,1.75q.125,1.375 1.125,1.25" fill="#803380"></path><path d="M274.1,327.5l-.25-.75q-3.5,1.375 -3.625,.875q-1.875-1.25 -1-1.5q1.25-1.375 .875-1.125q-.125,2 -.625,1.75q-.875,0 -1.125,0l0,.75q.25,.125 .875,.25q1.625,0 1.875-2.75q-.25-1.25 -2.625,.125q-1.25,1.375 1,3.5q.875,.375 4.625-1.125" fill="#803380"></path><path d="M174.85,350l1,0q-.5-5.25 -.875-6.875l-.5,0q0,1.75 .375,6.875" fill="#803380"></path><path d="M177.225,350l1-.25q-.25-1 -.25-1.25q-.125-3.25 -1.75-2.75q-1,.625 -1.25,1l.25,.5q.375,0 1.5-.5q.375-.625 .25,1.75q0,.375 .25,1.5" fill="#803380"></path><path d="M178.975,347.25l.75,0q.125-.875 .25-.75q1.875-.375 1.25,.5q-.5,1.625 -1,1.5q-1.125,0 -.625-.375q.625-1.375 .625-1.875l-.5-.25q-.375,.375 -1.125,1.625q-.375,1.5 1.625,1.875q1.125,0 2-2.25q.375-1.875 -2.5-1.75q-.625,.25 -.75,1.75" fill="#803380"></path><path d="M182.975,349l1-.5q-.375-.25 -.5-3.25l-.5,0q-.125,3.125 0,3.75" fill="#803380"></path><path d="M185.475,348.375l1-.5q-.125-.125 -.125,0q-.25-4.25 -1.875-3.375q-.75,.75 -1,1.125l.5,.5q.375-.125 1.25-.875q.25-.75 .125,2.625q0,.25 .125,.5" fill="#803380"></path><path d="M187.475,348.125l1,0q0-4.5 -1.5-4.25q-.5,.375 -1,1.25l.5,.25q.5-.625 .75-.5q.375-.5 .25,3.25" fill="#803380"></path><path d="M192.475,347.875l0-1q-3.625,.125 -2.5-1.25q.875-1.875 .75-1.375q.5,.625 .125,.625q-.5,.5 -1.375,.375l0,.75q1,.125 1.875-.125q1-.75 .375-2.125q-1.125-1.125 -2.75,1.375q-1.125,2.625 3.5,2.75" fill="#803380"></path><path d="M203.85,346.125l-.25,1q2,.5 2.375-.75q.25-1.875 -.5-2.375q-1-.25 -.75-.125q.125-.625 0-.5q.75,.125 1,.125l.25-.5q-.25-.25 -1-.625q-.625,0 -1.25,1.25q0,.75 1.5,1.375q.125-.125 -.25,1.125q.125,.5 -1.125,0" fill="#803380"></path><path d="M209.85,346.125l-.25-.25q-.25,0 -.375-.25q-2.875,.875 -1.875-1q.75-2.375 .75-1.75q.375,.375 .625,.5l.5-.5q0-.25 -.375-.75q-1.125-.875 -2.5,2q-.875,3.125 3.125,2.5q0-.25 .375-.5" fill="#803380"></path><path d="M213.1,342.625l.25-.25q0-.375 -.25-.75q-1.5-.125 -2,1q-.125,3.625 .375,3.375q-.125-1.25 -.125-3.125l-.5,0q-.25,1.875 -.375,3.125q.5,1.375 1.875-3.125q-.125-.5 .5-.25q0-.25 .25,0" fill="#803380"></path><path d="M217.475,345.875l0-.5q-3.375,1.125 -3-.375q0-2.875 1-1.875q1.25,.375 -.125,.625q-.25,.375 -1.125,.25l-.25,.5q1.125,.375 1.875,.25q2-1.25 .125-2.625q-2.125-.875 -2.5,2.875q.25,2.125 4,.875" fill="#803380"></path><path d="M221.1,345.375l-.25-.25q-1.5,.875 -1.875,.25q-1.75-1.25 -.375-1.75q1.5-1.25 .75-.75q-.625,1.375 -.375,1.25q-.5-.25 -.75-.25l-.25,.5q.125,.25 .5,.5q.75,.25 1.875-1.5q.5-1.875 -2.25-.75q-2,1.375 .125,3.5q1.125,.625 2.875-.75" fill="#803380"></path><path d="M224.85,344.875l-.25-.25q-.25,.375 .375,.5q0-4.25 -1.25-3.5q-2.5,4.125 -1.875,3.625q-.25-.5 .25-3.125l-.5-.25q-.75,2.75 -1,3.375q.5,1.625 4.125-2.875q-.375-.5 -1,2.75q.5,.375 1.125-.25" fill="#803380"></path><path d="M226.1,345.125l.25-.25q-.125-.375 0-.5l-.75,.25q.25,.125 .5,.5" fill="#803380"></path><path d="M82.8,80l1.2-.4q-.5-.8 -2.7-.7q-11.5,.8 -15.3,1.2l0,.8q3.9,0 15.3-.6q1.8-.2 1.5-.3" fill="#803380ba"></path><path d="M62.2,41.8l.6,.2q1.3-3.7 4.1-9.5l-.8-.4q-2.7,6 -3.9,9.7" fill="#803380ba"></path><path d="M62.9,46.3l1.2,.4q.1-.3 1.5-3.2q2.9-6.6 5.7-11.8l-.8-.4q-3,5.1 -6.1,11.6q-1.4,3 -1.5,3.4" fill="#803380ba"></path><path d="M63.3,52.2l.6,.2q1-2.9 11.2-20.8l-.6-.4q-10.3,17.9 -11.2,21" fill="#803380ba"></path><path d="M64,58.5l.6,.2q4.2-8.3 13.3-25.6l-.8-.4q-9,17.3 -13.1,25.8" fill="#803380ba"></path><path d="M65.2,64.6l.6,.2q1.3-3.1 3.1-6.2q5.5-10.5 13.7-23.8l-.8-.4q-8.3,13.2 -14.1,23.6q-1.6,3.3 -2.5,6.6" fill="#803380ba"></path><path d="M65.8,69.2l.8,.4q.5-.9 16.4-28.5l-.8-.4q-16,27.5 -16.4,28.5" fill="#803380ba"></path><path d="M66.1,75.2l1,.2q.1-.7 14.4-25.3l-.8-.6q-14.4,24.8 -14.6,25.7" fill="#803380ba"></path><path d="M68,77.6l.6,.2q1.4-2.7 11.5-19.5l-.8-.6q-10.1,17 -11.3,19.9" fill="#803380ba"></path><path d="M72.2,78.8l-.2-1.4q-.3,.7 9.1-14.1l-.8-.6q-9.6,15.6 -8.1,16.1" fill="#803380ba"></path><path d="M74.7,77.5l1.4,.6q1.2-2.8 5.6-9.9l-.8-.4q-4.6,6.9 -6.2,9.7" fill="#803380ba"></path><path d="M78,78.4l1.6,.2q-.1-.7 2.8-5.9l-1-.6q-3,5.3 -3.4,6.3" fill="#803380ba"></path><path d="M81.9,78.2l1.4,.4q0-.4 .7-2.5l-1-.4q-.8,2.1 -1.1,2.5" fill="#803380ba"></path><path d="M90.5,124.6l-.4-1.2q.1,.2 0-.5q-2.1-7 -2.1-7.9q.1-2.9 -.7-3.7q-1.3-.6 -1.8,2.8q-.6,7.2 -.5,7q-.4,.6 -.3-.4q-2-10 -3.1-7.6q-2.2,9.6 -2.2,11.8q.1,1.4 .3,1.9l.6,0q.2-.5 .3-1.9q0-2 2.2-11.6q-.3-1.4 .7,7.6q.6,1.9 2.1,1.2q.5-.5 1.1-7.8q0-2.6 -.2-2.2q.4,.3 .3,2.9q-.1,1.1 2.1,8.3q.6,1.4 1.6,1.3" fill="#8033807f"></path><path d="M97.3,123.2l1.2-.6q-.2-.5 -.3-.6q-4.6-12.6 -5.5-10.5q-1.2,8.9 -1.1,10.3q.2,1.2 .4,1.6l.6,0q.1-.4 .2-1.6q-.1-1.4 1.1-10.1q-.4-1 3.1,10.7q0,.2 .3,.8" fill="#8033807f"></path><path d="M97,119.9l.2-.4q-.6-.6 -1-.9q-1.1,0 -3.9,.9l.2,.8q2.8-.7 3.7-.5q.1-.2 .8,.1" fill="#8033807f"></path><path d="M104.6,120.7l-.8-.8q-1.8,1.8 -2,1.3q-1-.5 -1.6-5.2q-.5-2.5 -1.4-5.3l-.6,.2q.6,2.8 .8,5.3q.7,5.1 2,6.2q1.3,.5 3.6-1.7" fill="#8033807f"></path><path d="M110.3,119.4l-.4-.2q-.7,1.4 -1,1.2q-2.5,1.3 -2.4-.6q-.4-4.5 -.7-6q-.5-1.9 -.7-2.5l-.8,.2q0,.6 .3,2.5q.3,1.5 .7,6q.5,2.9 4.2,1.6q.3-.5 .8-2.2" fill="#8033807f"></path><path d="M118.7,116.3l0-.8q-3.3,.3 -4.4,.4l0,.8q1.1-.1 4.4-.4" fill="#8033807f"></path><path d="M129.9,110.2l.4,.2q-.1-.2 -.8-.3q1.2,5.2 .4,6.3q-1.4,3.2 -1.5,.8q-1.8-4.9 -2.6-3.4q-.3,5 -.1,4.4q-.7-.5 -2.9-7.5l-.6,.2q2.1,7.1 2.5,8.1q1.4,1.1 2.5-5q-.6-.3 -.2,3.6q1.3,3.3 4.1-.4q1-1.8 -.2-7.3q-.8-.3 -1,.3" fill="#8033807f"></path><path d="M138.6,116.5l-.4-.4q-.3,.3 -.5,.1q-2.5,1.5 -2.1,1.3q-.1,.1 -.9-5.8q-.3-1 -.5-1.3l-.6,0q-.1,.4 -.1,1.5q.9,5.9 .9,6.2q.8,.7 3.9-.9q.1-.3 .3-.7" fill="#8033807f"></path><path d="M138.9,109.7l0-.4q-1.6-.1 -2.6,0q-1.9,.9 -2.5,1.3l.2,.6q.7-.1 2.7-.7q.8-.5 2.2-.8" fill="#8033807f"></path><path d="M139.1,113.9l0-.4q-.4-.1 -4.3,.2l0,.4q3.9-.2 4.3-.2" fill="#8033807f"></path><path d="M146,115.6l1.2-.6q-2.5-4.7 -2.6-5q-1.1-3.7 -2.2-2.8q-2.2,4.3 -1.7,7.5q.2,1 .5,1.3l.6,0q.2-.4 .1-1.5q-.4-2.7 1.7-6.7q-.5-.3 -.2,2.4q.1,.7 2.6,5.4" fill="#8033807f"></path><path d="M146,113.5l.2-.4q-.6-.4 -.8-.7q-1.1,0 -4.4,.5l0,.8q3.4-.3 4.2-.1q.2-.2 .8-.1" fill="#8033807f"></path><path d="M149.1,116.2l.4,0q.3-1.8 .5-2.4q-.3-3.7 -1.1-6.9l-.8,.2q.6,3.2 .7,6.7q.3,.6 .3,2.4" fill="#8033807f"></path><path d="M155.9,116.6l0-1.2q-1.5-.1 -1.7-.5q-5.3-5.4 -5.1-3.2q1.4,2.5 2.7,.8q2.1-5 .3-6q-2.6-.8 -3.6,.8q-.7,1.5 -.8,2l.8,.4q.3-.4 1-1.8q.3-1.1 2.2-.2q1,0 -1.1,4.2q0,1 -.3-.8q-.8-.4 2.9,4.8q.7,.6 2.7,.7" fill="#8033807f"></path><path d="M159.5,119.5l-1,.2q.1,.1 .4-.3q-21.7,2.5 -28.9,3.8q-12.4,2.4 -52.6,7l0,.4q40.3-4.2 52.8-6.2q7.2-1.2 28.9-3.8q.5-.4 .4-1.1" fill="#8033807f"></path><path d="M107.8,144.8l.6-.8q-.2-.2 -.2-.3q-3.2-5.8 -3.5-6q-1-.1 -1.4,1.9q-.1,1.7 -1.1,5.8l.4,.2q1.3-4.1 1.7-5.8q.1-1.4 0-1.1q-.2-.2 2.9,5.6q.2,.2 .6,.5" fill="#8033807f"></path><path d="M107.6,142.7l.6-.6q-.5-.3 -5.5,.4l.2,.8q4.8-.7 4.7-.6" fill="#8033807f"></path><path d="M122,137.9l.8,.2q0-.5 -.5-.4q.9,.7 .7,1q-1,2.7 -1.5,1.9q-1.1-.9 -1.8-.4q-1.1,2.6 -1.2,1.1q-.4-.7 -.5-2.1l-.6,0q-.1,1.5 .1,2.5q1.1,2.1 3.2-.9q-.4,0 .2,.6q1.6,1 3.1-2.3q.3-1 -.9-2.2q-.8-.1 -1.1,1" fill="#8033807f"></path><path d="M130.1,139.8l-.6-.4q-.5,.5 -.6,.4q-3.4,.9 -2.9-.4q.3-2.2 .5-1.9q1.4,0 .1,.7q-.3,.4 -1.1,.4l0,.6q1,.2 1.7-.2q1.8-1.7 -.5-2.5q-1.2-.1 -1.7,2.7q-.1,2.4 4.1,1.6q.4-.2 1-1" fill="#8033807f"></path><path d="M131.4,139.4l0-.4q-1.4,.2 -1.4,1q2.6,2 3.3,.3q.5-5.9 -1.6-3.4q-1.2,2.6 -.7,2.5q-.2-2 -1-6.1l-.6,.2q.6,4 .4,5.9q.5,1.3 2.9-1.9q.6-2 -.6,2.6q.3,.7 -1.3-1.1q-.3,.5 .6,.4" fill="#8033807f"></path><path d="M135.4,139.4l-.4-.2q-.7,1 -.2,1.5q2.8-.4 1.8-2.3q-1.9-2.2 -1.5-2.1q.3-.4 1.9-.3l0-.8q-1.7-.2 -2.5,.1q-1,1 1.1,3.9q.9,.5 -.8,.3q.1,.5 .6-.1" fill="#8033807f"></path><path d="M139.9,138l-.4-.2q-.1,.6 .5,.8q.1-1.1 .1-1.5l-.8-.2q-.2,.4 -.5,1.5q.5,.5 1.1-.4" fill="#8033807f"></path><path d="M139.6,134.2l.6-.4q-.3-.5 -.4-.6l-.6,.4q.1,.2 .4,.6" fill="#8033807f"></path><path d="M143.3,138.7l.2-.8q-.2-.1 .1,0q-.6-.9 -.2-7l-.8,0q-.5,6.1 -.2,7.4q.4,.3 .9,.4" fill="#8033807f"></path><path d="M152.2,136.9l-.4-.8q-4.2,1.9 -4.1,.8q-.7-2.7 .2-2.5q.6-.3 .4-.8q-1.5,2.4 -1.5,2.1q-1.8-.9 -2.8-.6q-2.3,1.1 -1.9,.8q-.2-.6 -.3-.7l-.8,0q-.1,.3 -.1,.9q.5,1.1 3.5,0q.4-.3 1.8,.6q1.1,.3 3.1-2.5q.1-.9 -1.6-1q-1.8,.4 -1.2,3.9q.8,1.9 5.7-.2" fill="#8033807f"></path><path d="M156.1,133.2l.4,0q.5-1.8 .9-2.3q.4-1.7 .8-4.5l-.6-.2q-.6,2.8 -1.2,4.3q0,.7 -.3,2.7" fill="#8033807f"></path><path d="M156.2,136.4q0,.4 -.4,.4q-.4,0 -.4-.4q0-.4 .4-.4q.4,0 .4,.4" fill="#8033807f"></path><path d="M168.5,135.5l-.4-.2q0,.3 .6,.5q.2-3.1 .8-5.7q.1-.9 0-1.2l-.6-.2q-.3,.3 -.6,1.2q-.7,2.6 -.8,5.9q.6,.4 1-.3" fill="#8033807f"></path><path d="M174.5,134.9l-.2-.8q-.5,.2 -.3-.2q-.8-3.6 -2.3-1.7q-1.1,3 -.6,2.7q-.3-.4 .1-2.9l-.8-.2q-.5,2.7 -.5,3.5q.9,1.2 3-2.5q0-1.2 -.1,1.3q.4,1.1 1.7,.8" fill="#8033807f"></path><path d="M175.1,133.9l-.6,1q.7,.3 1.2,.2q1.5-1.1 1-2.1q-1-1.3 -.8-1.2q.6-.6 .8-.9l-.6-.6q-.3,.1 -1,.7q-.5,.8 .8,2.6q.2,0 -.8,.5q.2,0 0-.2" fill="#8033807f"></path><path d="M177.7,135l.4,0q.6-2.7 1.7-7.9l-.8-.2q-.9,5.2 -1.3,8.1" fill="#8033807f"></path><path d="M180.7,131.8l-.2-.4q-1.4,.2 -1.8-.1q-1.3-.2 -1.7-.1l-.2,.8q.4,.2 1.7,.5q.6-.1 2.2-.7" fill="#8033807f"></path><path d="M184.6,132.4l-.4-.4q-1.4,1.8 -.7,.8q0-2.2 -1-1.9q-2.2,2.6 -1.7,2.1q.1-2 .5-1.8q1.2-.1 1.5-.3l0-.8q-.4-.1 -1.5-.1q-1.4,.3 -1.7,2.8q.3,1.9 3.7-1.1q-.5-.2 -1,.9q.2,2 2.3-.2" fill="#8033807f"></path><path d="M185.6,132.4l-.2-.4q-.3,.2 .2,.5q.1-2.1 1.2-6.9l-.6-.2q-1.4,4.8 -1.8,6.9q.5,.5 1.2,.1" fill="#8033807f"></path><path d="M187.4,132.5l-.2-.4q-.3,0 .2,.2q-.1-1.7 1.2-6.6l-.8-.2q-1.5,5 -1.6,6.8q.5,.4 1.2,.2" fill="#8033807f"></path><path d="M206.3,128.7l-.4-.2q-.2,.1 -.2-.1q-1.8,.5 -1.3,.8q-.6-2.4 -1.6-2q-2.6,2.8 -2.2,2.3q-.3-1.4 -.6-1.8q-.8-.4 -1.4-.1q-2.3,3.6 -1.7,3q-.1-.7 .2-2.4l-.6-.2q-.5,1.7 -.8,2.4q.3,1.9 3.9-2q-.4,0 -.2,.3q-.2-.3 0,1q.8,1.4 4.2-1.7q-.4-.2 -.4,1.4q.5,.5 2.7,0q.2-.3 .4-.7" fill="#8033807f"></path><path d="M210.6,129.8l-.2-.8q-3.2,.9 -3.4,0q-1-1.6 -.4-1.7q1.7-1.2 1.1-.8q-.3,2.2 -.6,1.4q-.5-.4 -.8-.4l-.4,.4q0,.3 .4,.8q1.6,1.1 2.6-2q0-1.7 -2.9-.4q-1.2,.9 0,3.3q.9,1.2 4.6,.2" fill="#8033807f"></path><path d="M212.4,127.1l.6,.4q.4-.3 1.5-2.4q.7-1.6 .8-3.3l-.6-.2q-.4,1.6 -1.2,2.9q-1,2.2 -1.1,2.6" fill="#8033807f"></path><path d="M211.3,130l1.2,.6q.2-.7 .2-.9l-.8-.4q-.2,.2 -.6,.7" fill="#8033807f"></path><path d="M51.3,383.1l.6,.2q.5-1.4 2.1-3.2q.7-1.2 2.2-2.7l-.6-.6q-1.7,1.3 -2.8,2.5q-1.3,2.1 -1.5,3.8" fill="#8033807f"></path><path d="M50.6,388.9l1.2,0q.1-4.9 3.4-6.8q1.4-1 1.7-1.4l-.4-.8q-.6,.2 -2.1,1q-3.6,2.5 -3.8,8" fill="#8033807f"></path><path d="M50.8,394.6l1-.2q-.1-1.3 .1-1.5q2.3-7.3 4.4-7.8q1.4-.4 1.8-.7l-.2-1q-.5,0 -2,.3q-3,.9 -5.4,8.8q0,.6 .3,2.1" fill="#8033807f"></path><path d="M49.9,400.2l1.4-.2q-.2-1.1 0-1.2q4.1-9.5 5.8-10q1.4-.6 1.8-1l-.2-.8q-.6,0 -2.2,.4q-2.3,.9 -6.6,10.8q-.2,.6 0,2" fill="#8033807f"></path><path d="M50,407.2l.6,0q.2-.5 .4-.7q1.4-6.2 6.7-13.1q1.2-1.7 3.1-3.4l-.6-.8q-2.2,1.8 -3.5,3.4q-5.4,7.1 -6.9,13.7q.1,.2 .2,.9" fill="#8033807f"></path><path d="M50.1,414l.6,0q.1-3.1 1.3-4.9q6.4-12.6 7.6-13.4q1.7-1.2 2.2-1.7l-.6-.8q-.6,.2 -2.4,1.3q-1.7,1.1 -8.2,14q-.8,2.2 -.5,5.5" fill="#8033807f"></path><path d="M49.8,420.6l1,0q-.4-7.9 7.9-19.2q1.4-2.2 3.3-4.2l-.6-.6q-2.2,1.7 -3.9,3.8q-8.4,11.8 -7.7,20.2" fill="#8033807f"></path><path d="M50.2,427.9l.6,0q.2-7.9 4.1-15.6q2.3-5.4 6.3-10.4l-.8-.6q-4.2,5 -6.9,10.4q-3.5,8.1 -3.3,16.2" fill="#8033807f"></path><path d="M51.3,435l.6,0q-.1-8.3 3.6-15.9q2.9-6.8 6.9-12.4l-.8-.6q-4.3,5.6 -7.5,12.4q-3.3,8 -2.8,16.5" fill="#8033807f"></path><path d="M52.3,441.6l.6,0q0-1.1 .2-1.4q.9-12.3 7.1-23.9q1-2.3 2.3-3.8l-.8-.6q-1.5,1.4 -2.9,3.8q-6.1,11.8 -6.9,24.5q.1,.4 .4,1.4" fill="#8033807f"></path><path d="M53.8,442.9l1.2-.2q-.2-1.4 -.1-1.7q2.4-15.6 5.8-19.7q1.6-2 2-2.7l-.6-.6q-.7,.6 -2.4,2.5q-3.8,4.4 -6.2,20.3q0,.6 .3,2.1" fill="#8033807f"></path><path d="M57.6,441.2l1.2-.2q-.2-1.3 -.1-1.6q.6-4.8 3.6-13.6l-1-.4q-3.1,8.9 -4,13.8q0,.6 .3,2" fill="#8033807f"></path><path d="M60.9,438.9l.6-.2q-.1-1.1 .1-1.3q.4-3.2 1.9-7.5l-.8-.4q-1.8,4.4 -2.3,7.7q.1,.5 .5,1.7" fill="#8033807f"></path><path d="M63.6,439.3l.4-.6q-.3-.2 0,.1q.5-2.5 1.4-6.1l-.8-.2q-1.2,3.6 -1.8,5.9q.2,.6 .8,.9" fill="#8033807f"></path><path d="M68,438.6l-.6-.8q0,.5 .7-4.2l-.8,0q-.5,5.4 .7,5" fill="#8033807f"></path><path d="M70.5,437.9l.8-1q-.1,.3 .2-2l-1-.2q-.3,2.6 0,3.2" fill="#8033807f"></path></svg>