<svg viewBox="-38.2 -192.4 136.4 259.6" width="136.4" height="259.6" version="1.1" baseProfile="full" xmlns="http://www.w3.org/2000/svg"><path d="M47.89,7.02L47.89,7.02L47.89,7.02Q47.89,7.14 47.77,7.14Q47.65,7.14 47.65,7.02Q47.65,6.9 47.77,6.9Q47.89,6.9 47.89,7.02" fill="#803380"></path><path d="M85.68,6.37L85.64,6.57Q87.97,6.97 87.63,6.71Q82.97,5.94 68.24,6.39Q62.72,6.74 63.98,6.95Q68.65,7.01 70.21,6.98Q77.01,6.84 79.28,6.89Q83.17,6.86 82.3,6.55Q82.06,6.51 79.13,6.38Q64.33,5.72 60.9,6.02Q45.32,7.62 48.29,7.46Q48.52,7.45 58.84,7.05Q64.79,6.65 63.41,6.43Q60.61,6.51 59.68,6.47Q54.91,6.29 53.32,6.47Q49.28,6.91 47.93,6.97Q45.9,7.11 46.42,7.36Q46.69,7.32 47.15,7.11L47.07,6.91Q46.63,7.08 46.4,7.06Q46.16,7.34 47.95,7.33Q49.31,7.29 53.36,6.85Q54.92,6.69 59.66,6.89Q60.61,6.93 63.43,6.85Q64.35,6.57 58.82,6.61Q48.49,7.01 48.23,7.06Q44.9,7.7 60.94,6.46Q64.33,6.15 79.11,6.8Q82.03,6.93 82.24,6.95Q82.85,6.84 79.28,6.59Q77.01,6.51 70.21,6.62Q68.65,6.65 63.98,6.57Q63.1,6.75 68.26,6.77Q82.95,6.32 87.57,7.09Q88.21,7 85.68,6.37" fill="#803380"></path><path d="M63.91,1.51L63.79,1.35Q58.4,5.38 57.54,6.03L57.72,6.25Q58.54,5.56 63.91,1.51" fill="#803380"></path><path d="M65.79,1.49L65.67,1.33Q63.61,2.87 59.69,5.61L59.87,5.87Q63.77,3.09 65.79,1.49" fill="#803380"></path><path d="M68.09,1.15L67.97,.97Q66.56,1.82 66.06,2.05Q64.23,3.27 61.03,5.8L61.19,6.02Q64.43,3.56 66.3,2.43Q66.72,2.07 68.09,1.15" fill="#803380"></path><path d="M69.97,1.19L69.85,1.01Q68.9,1.57 63.33,5.51L63.51,5.75Q69.06,1.8 69.97,1.19" fill="#803380"></path><path d="M73.05,.79L72.93,.61Q67.59,3.96 65.01,5.67L65.17,5.91Q67.72,4.16 73.05,.79" fill="#803380"></path><path d="M74.62,1.41L74.5,1.23Q69.24,4.54 67.49,5.64L67.65,5.88Q69.37,4.74 74.62,1.41" fill="#803380"></path><path d="M76.45,1.25L76.35,1.07Q73.18,2.96 69.08,5.86L69.24,6.08Q73.31,3.17 76.45,1.25" fill="#803380"></path><path d="M78.31,1.18L78.19,1Q75.21,2.8 71.18,5.32L71.32,5.56Q75.34,3.01 78.31,1.18" fill="#803380"></path><path d="M80.61,.93L80.49,.75Q77.95,2.41 77.07,2.9Q75.59,3.91 73.2,5.89L73.34,6.05Q75.77,4.15 77.29,3.24Q78.11,2.64 80.61,.93" fill="#803380"></path><path d="M83.25,.9L83.13,.72Q76.95,4.66 74.88,5.97L75.02,6.19Q77.07,4.86 83.25,.9" fill="#803380"></path><path d="M85.67,.59L85.55,.43Q84,1.5 80.77,3.39Q79.41,4.25 77.96,5.39L78.12,5.61Q79.6,4.54 80.99,3.75Q84.18,1.78 85.67,.59" fill="#803380"></path><path d="M87.08,.97L86.96,.79Q85.61,1.64 85.11,1.83Q81.88,3.71 78.97,5.76L79.13,6Q82.08,4.03 85.33,2.23Q85.76,1.89 87.08,.97" fill="#803380"></path><path d="M87.31,2.31L87.21,2.13Q85.24,3.19 81.3,5.67L81.44,5.89Q85.36,3.4 87.31,2.31" fill="#803380"></path><path d="M87.67,3.94L87.57,3.76Q84.9,5.28 83.41,6.19L83.55,6.41Q85.02,5.48 87.67,3.94" fill="#803380"></path><path d="M48.53,7.23L48.57,6.93Q48.15,6.9 44.42,6.99L44.42,7.19Q48.14,7.13 48.53,7.23" fill="#803380"></path><path d="M49.93,7.44L49.93,7.26Q47.64,7.12 46.87,7.08Q44.24,7.19 43.36,7.23L43.36,7.49Q44.24,7.53 46.89,7.46Q47.64,7.37 49.93,7.44" fill="#803380"></path><path d="M48.49,3.36L48.39,3.22Q45.17,5.63 44.86,5.64Q44.17,5.82 43.95,5.9L44.01,6.14Q44.25,6.11 44.94,5.96Q45.28,5.81 48.49,3.36" fill="#803380"></path><path d="M51.5,2.55L51.4,2.41Q46.7,5.65 45.12,6.71L45.24,6.89Q46.81,5.81 51.5,2.55" fill="#803380"></path><path d="M54.52,1.85L54.42,1.71Q48.95,5.57 47.12,6.85L47.26,7.05Q49.07,5.74 54.52,1.85" fill="#803380"></path><path d="M56.4,2.3L56.3,2.14Q55.07,2.89 53.17,4.09Q51.03,5.55 49.01,7.26L49.17,7.46Q51.23,5.82 53.39,4.43Q55.24,3.15 56.4,2.3" fill="#803380"></path><path d="M59.38,1.68L59.28,1.52Q54.74,4.59 53.2,5.59Q52.25,6.29 51.62,6.92L51.78,7.1Q52.44,6.54 53.42,5.89Q54.88,4.8 59.38,1.68" fill="#803380"></path><path d="M60.27,2.59L60.17,2.43Q58.73,3.35 58.22,3.6Q56.23,4.97 54.46,6.51L54.62,6.69Q56.43,5.23 58.44,3.94Q58.88,3.56 60.27,2.59" fill="#803380"></path><path d="M9.6,10.6L9,10.2Q9,10.9 9.8,10.8Q12.2,10 26.2,10Q35.9,10 38.6,11.9Q41.8,14.2 41.8,23.8Q41.8,35.5 41.4,37.8Q40.9,41.1 38.7,41.7Q38.3,41.9 18.9,41.6Q15.1,41.6 12.4,39.9Q10.2,38.5 9.5,33.9Q9.3,33.3 9.3,16.3Q9.2,14.2 9.8,10.6L9.4,10.6Q8.8,14.2 8.7,16.3Q8.6,33.3 8.7,34.1Q9.5,38.9 12,40.5Q14.9,42.3 18.9,42.4Q38.3,42.7 38.9,42.5Q41.5,41.6 42.2,38Q42.6,35.6 42.6,23.8Q42.6,13.9 39,11.3Q36.1,9.2 26.2,9.2Q12.1,9.2 9.6,10Q9.5,10.3 9.6,10.6" fill="#803380"></path><path d="M9.31,33.87L9.43,33.89Q9.54,33.4 9.83,32.73L9.69,32.67Q9.41,33.36 9.31,33.87" fill="#803380"></path><path d="M9.47,34.62L9.59,34.64Q9.67,34.19 9.75,34.07Q9.87,33.52 10.16,32.94L10.02,32.86Q9.67,33.44 9.49,33.99Q9.49,34.16 9.47,34.62" fill="#803380"></path><path d="M9.59,35.74L9.71,35.74Q9.79,35.1 9.88,34.87Q10,34.15 10.4,33.28L10.22,33.2Q9.79,34.07 9.62,34.81Q9.61,35.08 9.59,35.74" fill="#803380"></path><path d="M9.85,36.61L9.97,36.61Q10.06,35.17 10.38,34.42Q10.47,34.04 10.72,33.62L10.58,33.52Q10.25,33.93 10.08,34.32Q9.87,35.14 9.85,36.61" fill="#803380"></path><path d="M10.22,37.28l.12,0q.07-1.29 .27-1.84q.1-.58 .4-1.16l-.14-.08q-.37,.57 -.56,1.16q-.09,.61 -.09,1.92" fill="#803380"></path><path d="M10.84,38.3l.12-.02q-.1-.63 .06-1.62q.07-.85 .39-2.02l-.14-.04q-.39,1.17 -.53,2.02q-.09,1.04 .1,1.68" fill="#803380"></path><path d="M11.43,39.33l.14-.04q-.46-1.56 .08-3.41q.08-.39 .29-.86l-.16-.08q-.27,.47 -.41,.86q-.48,1.93 .06,3.53" fill="#803380"></path><path d="M12.11,40.06l.1-.06q-.46-1.03 0-3.32q.05-.47 .24-1.02l-.16-.06q-.26,.55 -.38,1.02q-.38,2.37 .2,3.44" fill="#803380"></path><path d="M12.63,40.61l.1-.04q-.22-.59 -.14-1.16q.08-1.63 .32-2.84l-.18-.04q-.3,1.22 -.42,2.86q.01,.63 .32,1.22" fill="#803380"></path><path d="M13.29,40.88l.1-.06q-.3-.66 -.11-2.08q.06-.89 .23-1.44l-.18-.06q-.23,.56 -.35,1.46q-.11,1.49 .31,2.18" fill="#803380"></path><path d="M13.71,40.91l.1-.06q-.21-.47 -.06-2.04q-.01-.27 .12-.67l-.18-.06q-.17,.41 -.22,.71q-.09,1.62 .24,2.12" fill="#803380"></path><path d="M14.23,41.09l.18-.1q-.39-.73 -.22-1.69q.01-.27 .18-.58l-.16-.1q-.22,.33 -.3,.64q-.14,1.04 .32,1.83" fill="#803380"></path><path d="M14.84,41.19l.14-.12q-.08-.1 -.06-.14q-.46-1.17 -.23-1.42q.1-.16 .11-.23l-.14-.1q-.06,.03 -.19,.17q-.27,.41 .21,1.68q.05,.05 .16,.16" fill="#803380"></path><path d="M15.43,41.22l.08-.08q-.16-.2 -.15-.36q-.13-.44 -.04-1.12l-.18-.02q-.13,.7 -.04,1.2q.09,.19 .33,.38" fill="#803380"></path><path d="M15.92,41.41l.1-.2q-.15-.07 -.15-.17q-.12-.36 -.02-1.01l-.2-.04q-.13,.69 -.04,1.11q.08,.2 .31,.31" fill="#803380"></path><path d="M16.48,41.56l.12-.2q-.12-.08 -.11-.09q-.15-.26 -.14-.96l-.16,0q-.05,.73 .06,1.06q.06,.09 .23,.19" fill="#803380"></path><path d="M16.81,41.69l.2-.12q-.08-.13 -.1-.26q-.07-.19 -.04-.6l-.16-.02q-.07,.43 -.04,.68q.04,.16 .14,.32" fill="#803380"></path><path d="M17.35,41.76l-.14-.12q.06,.05 .03-.58l-.18,.02q.12,.77 .29,.68" fill="#803380"></path><path d="M17.55,41.65l.08-.08q-.06-.07 -.08-.36l-.16,.02q.05,.33 .16,.42" fill="#803380"></path><path d="M9.56,32.82L9.34,32.74Q9.35,32.83 9.28,33.13L9.4,33.17Q9.5,32.88 9.56,32.82" fill="#803380"></path><path d="M9.48,32.39L9.3,32.27Q9.21,32.44 9.21,32.51L9.31,32.57Q9.37,32.54 9.48,32.39" fill="#803380"></path><path d="M37.38,42.18l-.02-.1q-.02,0 -.11-.07q-.12-.07 -.38-.39l-.06,.04q.25,.35 .36,.45q.13,.09 .21,.07" fill="#803380"></path><path d="M37.85,42.06l0-.06q-.16-.02 -.17-.06q-.49-.36 -.45-.39q.02-.08 .01-.11l-.06-.02q-.03,.02 -.07,.09q-.03,.14 .49,.53q.07,.02 .25,.02" fill="#803380"></path><path d="M38.35,41.99l.02-.06q-.3-.07 -.51-.34q-.15-.14 -.28-.4l-.08,.04q.12,.28 .26,.46q.27,.26 .59,.3" fill="#803380"></path><path d="M38.63,41.9l.02-.06q-.56-.23 -.68-.47q-.12-.19 -.17-.24l-.08,.04q.03,.07 .13,.26q.18,.25 .78,.47" fill="#803380"></path><path d="M39,41.72l-.04-.08q-.26,.1 -.61-.26q-.17-.14 -.32-.4l-.08,.04q.14,.29 .3,.46q.41,.37 .75,.24" fill="#803380"></path><path d="M39.23,41.64l0-.1q-.38-.03 -.63-.3q-.14-.12 -.29-.35l-.08,.06q.14,.24 .27,.39q.3,.29 .73,.3" fill="#803380"></path><path d="M39.51,41.48l.02-.1q-.56-.07 -.79-.34q-.13-.13 -.2-.28l-.08,.04q.06,.17 .18,.32q.29,.29 .87,.36" fill="#803380"></path><path d="M39.98,41.27l.02-.1q-.61-.1 -.75-.23q-.21-.16 -.37-.34l-.06,.04q.14,.22 .35,.4q.18,.13 .81,.23" fill="#803380"></path><path d="M40.41,41.02l0-.06q-.5-.03 -.86-.3q-.2-.11 -.41-.3l-.06,.06q.19,.21 .39,.36q.42,.24 .94,.24" fill="#803380"></path><path d="M40.65,40.51l0-.06q-.64-.03 -.85-.21q-.23-.16 -.32-.2l-.04,.06q.06,.07 .28,.24q.27,.17 .93,.17" fill="#803380"></path><path d="M40.86,40.16l0-.08q-.26-.02 -.53-.17q-.17-.07 -.38-.24l-.06,.06q.2,.2 .38,.3q.3,.14 .59,.13" fill="#803380"></path><path d="M41.06,39.86l0-.12q-.16,0 -.8-.28l-.04,.08q.65,.3 .84,.32" fill="#803380"></path><path d="M41.19,39.52l-.04-.06q-.05,.02 -.05-.01q-.18-.02 -.56-.23l-.04,.08q.38,.23 .58,.29q.04-.02 .11-.07" fill="#803380"></path><path d="M41.23,39.28l.02-.06q-.06-.01 -.52-.21l-.02,.06q.46,.2 .52,.21" fill="#803380"></path><path d="M41.33,38.96l-.02-.06q-.06,.01 -.47-.19l-.04,.08q.43,.2 .53,.17" fill="#803380"></path><path d="M41.42,38.77l0-.1q-.13,.01 -.43-.08l-.02,.06q.3,.11 .45,.12" fill="#803380"></path><path d="M16.48,42.36L16.48,42.16Q12.11,42.09 10.66,41.98Q9.86,41.98 9.91,42.12Q10.33,42.3 10.5,42.32Q14.8,42.67 14.02,42.56Q13.25,42.56 10.13,42.38L10.11,42.58Q13.24,42.77 14.02,42.78Q15,42.68 10.52,42.12Q10.39,42.11 9.99,41.94Q10.03,42.07 10.64,42.18Q12.1,42.29 16.48,42.36" fill="#803380"></path><path d="M41.38,42.72l.08,.18q.43-.26 .25-.37q-.94,0 -1.25-.01q-2.48-.09 -3.3,.05q-.6,.09 -.8,.12l.04,.26q.2-.04 .8-.14q.79-.13 3.26-.05q.31,.01 1.25,.01q-.02-.11 -.33-.05" fill="#803380"></path><path d="M40.88,43.22l0-.2q-4.6,.06 -3.75,.03q.37-.06 1.24-.17l-.02-.2q-.88,.11 -1.26,.17q-1.01,.26 3.79,.37" fill="#803380"></path><path d="M6.39,7.32L6.39,7.32L6.39,7.32Q6.39,7.44 6.27,7.44Q6.15,7.44 6.15,7.32Q6.15,7.2 6.27,7.2Q6.39,7.2 6.39,7.32" fill="#803380"></path><path d="M44.18,6.67L44.14,6.87Q46.47,7.27 46.13,7.01Q41.47,6.24 26.74,6.69Q21.22,7.04 22.48,7.25Q27.15,7.31 28.71,7.28Q35.51,7.14 37.78,7.19Q41.67,7.16 40.8,6.85Q40.56,6.81 37.63,6.68Q22.83,6.02 19.4,6.32Q3.82,7.92 6.79,7.76Q7.02,7.75 17.34,7.35Q23.29,6.95 21.91,6.73Q19.11,6.81 18.18,6.77Q13.41,6.59 11.82,6.77Q7.78,7.21 6.43,7.27Q4.4,7.41 4.92,7.66Q5.19,7.62 5.65,7.41L5.57,7.21Q5.13,7.38 4.9,7.36Q4.66,7.64 6.45,7.63Q7.81,7.59 11.86,7.15Q13.42,6.99 18.16,7.19Q19.11,7.23 21.93,7.15Q22.85,6.87 17.32,6.91Q6.99,7.31 6.73,7.36Q3.4,8 19.44,6.76Q22.83,6.45 37.61,7.1Q40.53,7.23 40.74,7.25Q41.35,7.14 37.78,6.89Q35.51,6.81 28.71,6.92Q27.15,6.95 22.48,6.87Q21.6,7.05 26.76,7.07Q41.45,6.62 46.07,7.39Q46.71,7.3 44.18,6.67" fill="#803380"></path><path d="M5.94,6L5.78,5.86Q5.32,6.32 4.52,7.02L4.66,7.18Q5.47,6.48 5.94,6" fill="#803380"></path><path d="M6.83,5.67L6.67,5.53Q5.8,6.47 5.23,7L5.37,7.16Q5.95,6.62 6.83,5.67" fill="#803380"></path><path d="M8.44,4.89L8.3,4.73Q7.7,5.31 6.03,7.07L6.19,7.23Q7.86,5.46 8.44,4.89" fill="#803380"></path><path d="M10.82,3.5L10.68,3.34Q9.97,4.03 9.92,3.97Q8.18,5.61 6.91,7.16L7.07,7.3Q8.39,5.82 10.18,4.25Q10.13,4.19 10.82,3.5" fill="#803380"></path><path d="M12.26,3.33L12.12,3.17Q9.52,5.67 7.85,7.33L8.01,7.49Q9.67,5.83 12.26,3.33" fill="#803380"></path><path d="M14.2,3.02L14.06,2.86Q10.38,6.1 9.16,7.18L9.32,7.36Q10.53,6.27 14.2,3.02" fill="#803380"></path><path d="M16.3,2.45L16.16,2.29Q12.06,5.79 10.69,6.96L10.87,7.16Q12.21,5.96 16.3,2.45" fill="#803380"></path><path d="M18.29,2.06L18.13,1.92Q17.52,2.52 12.59,6.99L12.75,7.17Q17.68,2.7 18.29,2.06" fill="#803380"></path><path d="M20.14,2.16L20,2Q18.89,2.89 18.83,2.81Q16.84,4.37 14.24,6.76L14.42,6.96Q17.06,4.64 19.09,3.15Q19.04,3.06 20.14,2.16" fill="#803380"></path><path d="M22.41,1.81L22.29,1.65Q16.9,5.68 16.04,6.33L16.22,6.55Q17.04,5.86 22.41,1.81" fill="#803380"></path><path d="M24.29,1.79L24.17,1.63Q22.11,3.17 18.19,5.91L18.37,6.17Q22.27,3.39 24.29,1.79" fill="#803380"></path><path d="M26.59,1.45L26.47,1.27Q25.06,2.12 24.56,2.35Q22.73,3.57 19.53,6.1L19.69,6.32Q22.93,3.86 24.8,2.73Q25.22,2.37 26.59,1.45" fill="#803380"></path><path d="M28.47,1.49L28.35,1.31Q27.4,1.87 21.83,5.81L22.01,6.05Q27.56,2.1 28.47,1.49" fill="#803380"></path><path d="M31.55,1.09L31.43,.91Q26.09,4.26 23.51,5.97L23.67,6.21Q26.22,4.46 31.55,1.09" fill="#803380"></path><path d="M33.12,1.71L33,1.53Q27.74,4.84 25.99,5.94L26.15,6.18Q27.87,5.04 33.12,1.71" fill="#803380"></path><path d="M34.95,1.55L34.85,1.37Q31.68,3.26 27.58,6.16L27.74,6.38Q31.81,3.47 34.95,1.55" fill="#803380"></path><path d="M36.81,1.48L36.69,1.3Q33.71,3.1 29.68,5.62L29.82,5.86Q33.84,3.31 36.81,1.48" fill="#803380"></path><path d="M39.11,1.23L38.99,1.05Q36.45,2.71 35.57,3.2Q34.09,4.21 31.7,6.19L31.84,6.35Q34.27,4.45 35.79,3.54Q36.61,2.94 39.11,1.23" fill="#803380"></path><path d="M41.75,1.2L41.63,1.02Q35.45,4.96 33.38,6.27L33.52,6.49Q35.57,5.16 41.75,1.2" fill="#803380"></path><path d="M44.17,.89L44.05,.73Q42.5,1.8 39.27,3.69Q37.91,4.55 36.46,5.69L36.62,5.91Q38.1,4.84 39.49,4.05Q42.68,2.08 44.17,.89" fill="#803380"></path><path d="M45.58,1.27L45.46,1.09Q44.11,1.94 43.61,2.13Q40.38,4.01 37.47,6.06L37.63,6.3Q40.58,4.33 43.83,2.53Q44.26,2.19 45.58,1.27" fill="#803380"></path><path d="M45.81,2.61L45.71,2.43Q43.74,3.49 39.8,5.97L39.94,6.19Q43.86,3.7 45.81,2.61" fill="#803380"></path><path d="M46.17,4.24L46.07,4.06Q43.4,5.58 41.91,6.49L42.05,6.71Q43.52,5.78 46.17,4.24" fill="#803380"></path><path d="M23.49625,44.014l.1425,.114q.12825-.114 .228-.171q.1995-1.09725 -.2565-1.197q-1.86675,.228 -2.4795,.24225q-.513,.07125 -1.41075,.41325l.0855,.228q.8835-.27075 1.32525-.21375q.64125,0 2.5365-.21375q0-.15675 -.228,.6555q.0855,.0285 .057,.1425" fill="#803380"></path><path d="M21.75775,48.175l.0285,.171q.21375-.04275 .171-.342q-1.63875,.07125 -1.5105,.3705q.741,0 .855-.3135q-.04275-.95475 .18525-3.26325q.0285-.798 -.12825-1.61025l-.228,.0285q.057,.78375 -.07125,1.55325q-.228,2.3085 -.21375,3.29175q.12825-.0855 -.3705-.1425q-.61275,.2565 1.4535,.5415q-.04275-.29925 -.171-.285" fill="#803380"></path><path d="M22.228,45.8665l.456,.114q.04275-.1995 .0285-.15675q.21375-.44175 -.09975-.5985q-1.0545,.15675 -1.41075,.285l.0285,.1995q.35625,.04275 1.43925-.0285q-.18525-.171 -.32775-.1425q-.057,.0855 -.114,.32775" fill="#803380"></path><path d="M23.938,47.9185l.456-.0855q-.09975-.57 -.0855-.72675q.21375-1.83825 -.3705-1.72425q-.171,.15675 -.399,.58425l.171,.114q.27075-.32775 .4275-.32775q.057-.1995 -.2565,1.29675q-.04275,.24225 .057,.86925" fill="#803380"></path><path d="M24.394,44.19925l-.4845,.0855q.0855,.32775 .15675,.4275l.3135-.057q.0285-.114 .01425-.456" fill="#803380"></path><path d="M25.23475,47.96125l-.456,0q.21375,.6555 .684-3.42q-.04275-.21375 .057-.627l-.171-.057q-.1995,.399 -.285,.6555q-.04275,3.69075 .171,3.4485" fill="#803380"></path><path d="M27.11575,47.4625l-.1425-.3135q-.32775,.12825 -.2565,.07125q-1.04025-.0855 -.5985-.98325q.24225-.969 .32775-.57q.41325,.4845 .171,.4275q-.38475,.171 -.84075,.171l-.0285,.2565q.52725,.0855 .98325,.0285q.58425-.285 .114-1.14q-.58425-.61275 -1.18275,.6555q-.399,1.311 .969,1.63875q.12825-.057 .4845-.24225" fill="#803380"></path><path d="M27.7285,47.33425l-.3135-.3135q-.228,.399 .2565,.684q1.80975,.44175 .55575-1.52475q-.684-.75525 -.24225-.5985q.21375-.057 .49875,.09975l.114-.1425q-.285-.29925 -.58425-.38475q-.8835,.09975 -.15675,1.2825q1.23975,1.43925 -.01425,.81225q-.21375,.0285 -.114,.0855" fill="#803380"></path><path d="M25.28,46.09l-.22-.02q-.13,2.36 .07,1.81q.05-.49 .06-.65q.02-.51 .07-.87l-.12-.02q-.11,.35 -.17,.87q-.02,.16 -.08,.65q.09,.35 .39-1.77" fill="#803380"></path><path d="M13.52,18.15l.08,.38q.19-.04 .23-.04q3.48-.02 3.82,1.13q.7,2.03 .89,2.14q2.03,.32 2.67,.52q4.44,1.37 5.97,1.67q4.11,.82 5.3,1.46q.25,.1 .72,2.18q.86,3.82 1.02,6.2q.13,1.94 .39,2.56q.55,1.2 .32,1.27q.01,.03 -.77-.26q-4.35-1.61 -9.82-4.31q-3.27-1.61 -4.37-1.76q-1.01-.13 -1.06-.33q-2-4.56 -2.7-6.06q-1.55-3.34 -1.63-3.6q-.3-.85 -1.25-3.16l-.14,.06q.88,2.33 1.07,3.2q.08,.29 1.63,3.64q.69,1.51 2.68,6.06q.21,.38 1.34,.55q1.03,.14 4.27,1.74q5.49,2.7 9.86,4.31q.86,.31 1.07,.22q.41-.33 -.16-1.71q-.24-.54 -.37-2.44q-.16-2.42 -1.02-6.26q-.49-2.18 -.9-2.44q-1.25-.67 -5.4-1.5q-1.5-.3 -5.93-1.67q-.68-.2 -2.73-.52q.09,.09 -.59-1.88q-.52-1.37 -4.18-1.39q-.09,0 -.31,.04" fill="#803380"></path><path d="M14.52,19.33l.22,.26q.03-.06 1.1,.01q1.1,.06 1.09,.15q.44,.83 .44,.7q-.6-.18 -1.64-.36q-.88-.16 -.78-.05q-.07-.14 -.07-.46l-.16-.02q-.06,.34 -.07,.54q.1,.13 1.02,.29q1.03,.19 1.62,.36q.37-.02 -.06-1.14q-.17-.26 -1.37-.35q-1.14-.07 -1.34,.07" fill="#803380"></path><path d="M15.41,19.94l.12-.16q-.16-.09 -.39-.45l-.14,.08q.25,.4 .41,.53" fill="#803380"></path><path d="M15.79,20.15l.08-.26q-.08,.01 -.32-.47l-.18,.08q.24,.55 .42,.65" fill="#803380"></path><path d="M16.31,20.26l.1-.24q-.13-.02 -.31-.51l-.18,.06q.19,.57 .39,.69" fill="#803380"></path><path d="M17.05,20.43l.04-.14q-.06-.04 -.01-.08q-.19-.15 -.46-.68l-.18,.08q.23,.58 .42,.82q.08,0 .19,0" fill="#803380"></path><path d="M33.12,22.6l.02-.3q-.22-.01 -5.5-1.5q-2.78-.75 -8.47-2.05l-.04,.18q5.67,1.34 8.43,2.15q5.29,1.5 5.56,1.52" fill="#803380"></path><path d="M33.61,26.64l.14-.02q-.15-1.99 -.22-2.65q-.19-.95 -.44-1.67l-.14,.04q.19,.72 .32,1.67q.15,.64 .34,2.63" fill="#803380"></path><path d="M34.67,21.05l-.08,.26q2.35,.72 3.14,.93q1.61,.36 1.52,.28q-.33,.98 -.9,3.31q-1.31,5.27 -1.85,6.99q-1.76,6 -1.43,4.91q-.02-.14 .23-.6l-.12-.06q-.3,.45 -.37,.62q-.13,1.43 1.99-4.77q.56-1.73 1.87-7.01q.58-2.32 .9-3.29q-.02-.3 -1.76-.72q-.79-.16 -3.14-.85" fill="#803380"></path><path d="M35.15,35.2l.2-.2q-.09-.07 -.05-.73q.05-1.21 -.49-4.32q-.18-.74 -1.03-3.85l-.14,.04q.79,3.12 .87,3.87q.54,3.08 .49,4.24q-.02,.75 .15,.95" fill="#803380"></path><path d="M35.27,31.56l.24,0q.01-3.05 .35-4.63q.57-2.84 .58-2.89q-.07-.76 -1.24-1.01q-.53-.09 -.56-.18q-.07-.13 -.11-.17l-.16,.08q0,.05 .05,.19q.11,.23 .72,.36q1.02,.18 .98,.73q.01-.01 -.56,2.83q-.31,1.62 -.29,4.69" fill="#803380"></path><path d="M33.21,22.38l.1,.34q.22-.12 1.23,.08l.04-.2q-1.04-.26 -1.37-.22" fill="#803380"></path><path d="M32.87,25.35l.3,0q-.01-.99 -.09-1.12q-.89-.52 -1.15-.72q-.4-.24 -1.46-.55l-.06,.18q1.02,.35 1.32,.63q.29,.21 1.19,.74q-.05-.11 -.05,.84" fill="#803380"></path><path d="M18.74,20.62l-.02,.3q.7,.06 1.76,.3q4.31,.91 5.75,1.21q3.53,.69 4.71,.89l.04-.18q-1.16-.32 -4.67-1.09q-1.44-.29 -5.75-1.21q-1.09-.21 -1.82-.22" fill="#803380"></path><path d="M21.93,19.21l-.04,.12q.22,.14 .36,.24q2.39,.5 3.22,.56q4.1,.27 5.4,.63q.64,.16 3.58,.52q.26-.02 .58-.13l-.04-.16q-.29,.02 -.5-.05q-2.92-.37 -3.52-.56q-1.34-.37 -5.48-.65q-.79-.05 -3.16-.54q-.16,.04 -.4,.02" fill="#803380"></path><path d="M35.1,35.78l.32,.02q.03-.62 .02-.83q-.07-1.87 .07-4.06l-.2-.02q-.2,2.2 -.19,4.08q0,.2 -.02,.81" fill="#803380"></path><path d="M18.03,20.21l.22-.12q-.04-.08 .01-.54q.1-.92 .06-.85q.17-.18 .64,.17q.13,.06 .2,.04l.06-.08q-.01-.07 -.12-.18q-.59-.38 -.94-.15q-.06,.08 -.16,1.03q-.05,.51 .03,.68" fill="#803380"></path><path d="M18.3,20.73l0-.1q-.19,.06 -.1,.19q.31-.03 .83-.02l.02-.14q-.53-.07 -.85-.1q.04,.13 .1,.17" fill="#803380"></path><path d="M15.26,23.18l.1,0q.05-.9 .08-1.2l-.1-.02q-.03,.31 -.08,1.22" fill="#803380"></path><path d="M15.72,23.95l.14-.02q-.06-.43 .12-1.96l-.1-.02q-.19,1.54 -.16,2" fill="#803380"></path><path d="M15.99,25.5l.16-.1q-.06-.11 -.03-.41q.04-1.17 .31-2.74l-.16-.02q-.29,1.57 -.37,2.74q-.01,.35 .09,.53" fill="#803380"></path><path d="M16.49,25.95l.14-.06q-.08-.14 .34-3.53l-.14-.02q-.43,3.41 -.34,3.61" fill="#803380"></path><path d="M16.75,26.78l.1,0q.01-.36 .23-1.6q.2-1.46 .35-2.21l-.14-.04q-.21,.76 -.45,2.21q-.16,1.27 -.09,1.64" fill="#803380"></path><path d="M17.33,27.6l.1,0q.03-.17 .07-.22q.17-1.8 .57-4.27l-.16-.02q-.41,2.47 -.61,4.27q.03,.06 .03,.24" fill="#803380"></path><path d="M17.74,28.6l.14-.02q-.01-.12 .01-.15q0-.3 .46-3q.1-.7 .38-2.04l-.12-.02q-.32,1.33 -.46,2.02q-.47,2.72 -.46,3.04q.02,.05 .05,.17" fill="#803380"></path><path d="M18.11,29.74l.1,0q.02-.07 .04-.09q.26-1.62 .38-2.16q.21-1.23 .79-3.53l-.14-.04q-.62,2.3 -.87,3.53q-.09,.54 -.32,2.18q.01,.03 .02,.11" fill="#803380"></path><path d="M18.61,30.29l.1-.02q-.03-.37 .38-1.92q.3-1.32 .58-3.4l-.14-.02q-.32,2.06 -.66,3.36q-.37,1.59 -.26,2" fill="#803380"></path><path d="M18.85,30.54l.1,.02q.05-.29 .1-.37q.14-.77 .83-3.36q.27-1.1 .44-1.59l-.12-.06q-.23,.49 -.54,1.59q-.68,2.6 -.81,3.38q.02,.11 0,.39" fill="#803380"></path><path d="M19.1,30.71l.18,.04q1.01-3.72 1.37-4.95l-.14-.04q-.38,1.23 -1.41,4.95" fill="#803380"></path><path d="M19.57,30.93l.1,.02q.42-1.58 1.39-4.65l-.12-.04q-.96,3.08 -1.37,4.67" fill="#803380"></path><path d="M19.93,31.26l.14,.02q.11-.57 .19-.75q.13-.73 1.22-3.77l-.12-.04q-1.12,3.03 -1.34,3.75q-.01,.2 -.09,.79" fill="#803380"></path><path d="M20.3,31.68l-.04-.14q.08,.05 .69-1.88q.32-1.08 .88-2.17l-.14-.08q-.59,1.09 -.94,2.19q-.62,2.06 -.45,2.08" fill="#803380"></path><path d="M20.6,31.46l.16,.04q.05-.15 .08-.2q.43-1.35 1.08-2.97l-.12-.06q-.69,1.62 -1.16,2.97q0,.06 -.04,.22" fill="#803380"></path><path d="M21.26,31.82l-.08-.06q-.04,.13 .05,.17q.09-.59 1-3.12l-.14-.06q-.94,2.54 -1.06,3.14q.08,.11 .23-.07" fill="#803380"></path><path d="M21.63,31.97l.22-.02q-.02-.2 .3-1.21q.15-.56 .46-1.36l-.14-.06q-.34,.8 -.54,1.36q-.32,1.03 -.3,1.29" fill="#803380"></path><path d="M22.05,32.17l.2,.06q.11-.52 .86-2.72l-.14-.04q-.77,2.2 -.92,2.7" fill="#803380"></path><path d="M22.59,32.56l.14-.12q-.05,.01 .89-2.67l-.14-.06q-.96,2.71 -.89,2.85" fill="#803380"></path><path d="M23.18,32.61l.16-.04q-.01-.09 .16-.59q.22-.82 .56-1.72l-.08-.04q-.41,.88 -.7,1.7q-.15,.53 -.1,.69" fill="#803380"></path><path d="M23.64,32.71l.1,.02q.03-.05 .07-.07q.14-.75 .55-1.79l-.14-.06q-.43,1.05 -.61,1.81q.03,.02 .03,.09" fill="#803380"></path><path d="M24.16,32.98l-.06-.06q-.04,.05 .07,.1q-.01-.4 .45-1.69l-.14-.06q-.49,1.31 -.55,1.73q.11,.1 .23-.02" fill="#803380"></path><path d="M24.45,33.19l.16-.16q-.06,.03 .27-1.08l-.14-.04q-.34,1.15 -.29,1.28" fill="#803380"></path><path d="M25.1,33.19l-.08-.04q-.07,.16 .04,.17q-.04-.17 .14-.93l-.12-.04q-.23,.77 -.26,.97q.12,.11 .28-.13" fill="#803380"></path><path d="M28.84,36.56l-.06,.14q.69,.25 3.85,1.16l.04-.14q-3.16-.92 -3.83-1.16" fill="#803380"></path><path d="M23.02,35.03l-.1,.2q.16,.06 8.62,2.54l.06-.18q-8.46-2.47 -8.58-2.56" fill="#803380"></path><path d="M19.76,33.73l-.02,.16q.38,.04 .49,.11q2.99,.78 3.98,1.06q1.2,.31 2.84,.93l.08-.2q-1.64-.65 -2.84-1.01q-1-.26 -4-1.04q-.14,0 -.53-.01" fill="#803380"></path><path d="M16.93,33.49l-.04,.16q2.06,.49 2.72,.72q2.04,.54 5.73,1.24l.04-.18q-3.67-.75 -5.69-1.34q-.69-.15 -2.76-.6" fill="#803380"></path><path d="M17.94,34.72l-.02,.16q1.12,.12 5.53,.8l.02-.16q-4.4-.69 -5.53-.8" fill="#803380"></path><path d="M21.36,35.84l.06-.14q-1.33-.57 -1.63-.23q-.08,.16 .04,.28q1.97,.46 5.91,1.08l.02-.16q-3.92-.66 -5.87-1.18q.07,.11 .1,.12q.12-.29 1.37,.23" fill="#803380"></path><path d="M22.07,35.74l-.04,.16q.01,.07 2.16,.66q3.9,1.05 4.68,1.06q.22-.01 .3-.03l0-.18q-.07-.03 -.3-.05q-.73-.04 -4.6-1.1q-2.16-.57 -2.2-.52" fill="#803380"></path><path d="M21.44,36.15l.06-.14q-.16,.01 -.24,.13q3.01,.95 4.04,1.18q1.43,.29 4.54,1.3l.06-.2q-3.1-1.05 -4.54-1.4q-1.01-.22 -4.02-1.16q-.17,.1 .1,.29" fill="#803380"></path><path d="M18.29,36l.06-.14q-.47-.13 -.49,.03q7.64,2.07 10.21,2.71l.04-.16q-2.54-.73 -10.17-2.85q-.24,.1 .35,.41" fill="#803380"></path><path d="M17.32,36.15l-.04,.14q.44,.15 .57,.24q2.52,.79 7.21,2.03l.06-.2q-4.68-1.27 -7.17-2.11q-.17-.01 -.63-.1" fill="#803380"></path><path d="M16.15,33.76l-.04,.14q1.63,.48 2.13,.73q2.33,.8 1.93,.31q-.13-.08 -.18-.08l-.12,.14q.02,.06 .12,.16q.33,.09 -1.63-.81q-.56-.17 -2.21-.59" fill="#803380"></path><path d="M17.73,34.07l-.04,.16q2.36,.56 2.41,.59l.04-.18q-.06,0 -2.41-.57" fill="#803380"></path><path d="M16.79,34.68l.08,.26q1.58-.46 2.23-.69q.48-.18 1.25-.31l-.02-.16q-.8,.1 -1.31,.25q-.65,.21 -2.23,.65" fill="#803380"></path><path d="M17.56,34.94l.14,.2q.05-.07 4.31-.95l-.04-.2q-4.28,.88 -4.41,.95" fill="#803380"></path><path d="M18.27,35.63l-.02-.16q-.26,.1 -.22,.22q.43-.25 4.62-1.01l-.04-.2q-4.21,.75 -4.7,.97q-.09,.19 .36,.18" fill="#803380"></path><path d="M18.29,36.56l-.06-.18q-.34,.15 -.15,.29q1.08-.36 5.9-1.72l-.06-.2q-4.82,1.34 -5.92,1.66q.08,.17 .29,.15" fill="#803380"></path><path d="M21.04,36.89l-.02-.16q-.29,.1 -.25,.26q2.8-.95 3.32-1q2.4-.37 1.83-.66q-.34-.09 -.46-.09l-.06,.18q.11,.06 .44,.17q.32-.04 -1.79,.06q-.57,.06 -3.38,1.02q-.11,.21 .37,.22" fill="#803380"></path><path d="M23.3,37.32l-.02-.16q-.71,.2 -.59,.33q1.39-.47 5.25-1.54l-.06-.2q-3.87,1.03 -5.29,1.44q-.19,.23 .71,.13" fill="#803380"></path><path d="M24.85,37.89l-.02-.16q-.56,.15 -.45,.26q.8-.42 1.08-.51q1.91-.71 3.9-1.06l-.04-.22q-2.02,.31 -3.96,.98q-.3,.12 -1.12,.55q-.13,.23 .61,.16" fill="#803380"></path><path d="M27.81,37.86l-.04-.14q-1.89,.58 -1.53,.57q.92-.5 3.71-1.19l-.04-.2q-2.83,.65 -3.81,1.11q-.38,.36 1.71-.15" fill="#803380"></path><path d="M30.6,38.13l0-.16q-.32,0 -.44,.02q-1.01,.41 -1.04,.19q-.15-.2 -.18-.09q.67-.35 2.48-.85l-.04-.16q-1.84,.43 -2.58,.69q-.19,.18 .02,.59q.29,.31 1.42-.15q.07-.06 .36-.08" fill="#803380"></path><path d="M-31.5,10.7L-32.1,10.3Q-32.1,11 -31.3,10.9Q-28.9,10.1 -14.9,10.1Q-5.2,10.1 -2.5,12Q.7,14.3 .7,23.9Q.7,35.6 .3,37.9Q-.2,41.2 -2.4,41.8Q-2.8,42 -22.2,41.7Q-26,41.7 -28.7,40Q-30.9,38.6 -31.6,34Q-31.8,33.4 -31.8,16.4Q-31.9,14.3 -31.3,10.7L-31.7,10.7Q-32.3,14.3 -32.4,16.4Q-32.5,33.4 -32.4,34.2Q-31.6,39 -29.1,40.6Q-26.2,42.4 -22.2,42.5Q-2.8,42.8 -2.2,42.6Q.4,41.7 1.1,38.1Q1.5,35.7 1.5,23.9Q1.5,14 -2.1,11.4Q-5,9.3 -14.9,9.3Q-29,9.3 -31.5,10.1Q-31.6,10.4 -31.5,10.7" fill="#803380"></path><path d="M-31.79,33.97l.12,.02q.11-.49 .4-1.16l-.14-.06q-.28,.69 -.38,1.2" fill="#803380"></path><path d="M-31.63,34.72l.12,.02q.08-.45 .16-.57q.12-.55 .41-1.13l-.14-.08q-.35,.58 -.53,1.13q0,.17 -.02,.63" fill="#803380"></path><path d="M-31.51,35.84l.12,0q.08-.64 .17-.87q.12-.72 .52-1.59l-.18-.08q-.43,.87 -.6,1.61q-.01,.27 -.03,.93" fill="#803380"></path><path d="M-31.25,36.71l.12,0q.09-1.44 .41-2.19q.09-.38 .34-.8l-.14-.1q-.33,.41 -.5,.8q-.21,.82 -.23,2.29" fill="#803380"></path><path d="M-30.88,37.38l.12,0q.07-1.29 .27-1.84q.1-.58 .4-1.16l-.14-.08q-.37,.57 -.56,1.16q-.09,.61 -.09,1.92" fill="#803380"></path><path d="M-30.26,38.4l.12-.02q-.1-.63 .06-1.62q.07-.85 .39-2.02l-.14-.04q-.39,1.17 -.53,2.02q-.09,1.04 .1,1.68" fill="#803380"></path><path d="M-29.67,39.43l.14-.04q-.46-1.56 .08-3.41q.08-.39 .29-.86l-.16-.08q-.27,.47 -.41,.86q-.48,1.93 .06,3.53" fill="#803380"></path><path d="M-28.99,40.16l.1-.06q-.46-1.03 0-3.32q.05-.47 .24-1.02l-.16-.06q-.26,.55 -.38,1.02q-.38,2.37 .2,3.44" fill="#803380"></path><path d="M-28.47,40.71l.1-.04q-.22-.59 -.14-1.16q.08-1.63 .32-2.84l-.18-.04q-.3,1.22 -.42,2.86q.01,.63 .32,1.22" fill="#803380"></path><path d="M-27.81,40.98l.1-.06q-.3-.66 -.11-2.08q.06-.89 .23-1.44l-.18-.06q-.23,.56 -.35,1.46q-.11,1.49 .31,2.18" fill="#803380"></path><path d="M-27.39,41.01l.1-.06q-.21-.47 -.06-2.04q-.01-.27 .12-.67l-.18-.06q-.17,.41 -.22,.71q-.09,1.62 .24,2.12" fill="#803380"></path><path d="M-26.87,41.19l.18-.1q-.39-.73 -.22-1.69q.01-.27 .18-.58l-.16-.1q-.22,.33 -.3,.64q-.14,1.04 .32,1.83" fill="#803380"></path><path d="M-26.26,41.29l.14-.12q-.08-.1 -.06-.14q-.46-1.17 -.23-1.42q.1-.16 .11-.23l-.14-.1q-.06,.03 -.19,.17q-.27,.41 .21,1.68q.05,.05 .16,.16" fill="#803380"></path><path d="M-25.67,41.32l.08-.08q-.16-.2 -.15-.36q-.13-.44 -.04-1.12l-.18-.02q-.13,.7 -.04,1.2q.09,.19 .33,.38" fill="#803380"></path><path d="M-25.18,41.51l.1-.2q-.15-.07 -.15-.17q-.12-.36 -.02-1.01l-.2-.04q-.13,.69 -.04,1.11q.08,.2 .31,.31" fill="#803380"></path><path d="M-24.62,41.66l.12-.2q-.12-.08 -.11-.09q-.15-.26 -.14-.96l-.16,0q-.05,.73 .06,1.06q.06,.09 .23,.19" fill="#803380"></path><path d="M-24.29,41.79l.2-.12q-.08-.13 -.1-.26q-.07-.19 -.04-.6l-.16-.02q-.07,.43 -.04,.68q.04,.16 .14,.32" fill="#803380"></path><path d="M-23.75,41.86l-.14-.12q.06,.05 .03-.58l-.18,.02q.12,.77 .29,.68" fill="#803380"></path><path d="M-23.55,41.75l.08-.08q-.06-.07 -.08-.36l-.16,.02q.05,.33 .16,.42" fill="#803380"></path><path d="M-31.54,32.92l-.22-.08q.01,.09 -.06,.39l.12,.04q.1-.29 .16-.35" fill="#803380"></path><path d="M-31.62,32.49l-.18-.12q-.09,.17 -.09,.24l.1,.06q.06-.03 .17-.18" fill="#803380"></path><path d="M-3.72,42.28L-3.74,42.18Q-3.76,42.18 -3.85,42.11Q-3.97,42.04 -4.23,41.72L-4.29,41.76Q-4.04,42.11 -3.93,42.21Q-3.8,42.3 -3.72,42.28" fill="#803380"></path><path d="M-3.25,42.16L-3.25,42.1Q-3.41,42.08 -3.42,42.04Q-3.91,41.68 -3.87,41.65Q-3.85,41.57 -3.86,41.54L-3.92,41.52Q-3.95,41.54 -3.99,41.61Q-4.02,41.75 -3.5,42.14Q-3.43,42.16 -3.25,42.16" fill="#803380"></path><path d="M-2.75,42.09L-2.73,42.03Q-3.03,41.96 -3.24,41.69Q-3.39,41.55 -3.52,41.29L-3.6,41.33Q-3.48,41.61 -3.34,41.79Q-3.07,42.05 -2.75,42.09" fill="#803380"></path><path d="M-2.47,42L-2.45,41.94Q-3.01,41.71 -3.13,41.47Q-3.25,41.28 -3.3,41.23L-3.38,41.27Q-3.35,41.34 -3.25,41.53Q-3.07,41.78 -2.47,42" fill="#803380"></path><path d="M-2.1,41.82L-2.14,41.74Q-2.4,41.84 -2.75,41.48Q-2.92,41.34 -3.07,41.08L-3.15,41.12Q-3.01,41.41 -2.85,41.58Q-2.44,41.95 -2.1,41.82" fill="#803380"></path><path d="M-1.87,41.74L-1.87,41.64Q-2.25,41.61 -2.5,41.34Q-2.64,41.22 -2.79,40.99L-2.87,41.05Q-2.73,41.29 -2.6,41.44Q-2.3,41.73 -1.87,41.74" fill="#803380"></path><path d="M-1.59,41.58L-1.57,41.48Q-2.13,41.41 -2.36,41.14Q-2.49,41.01 -2.56,40.86L-2.64,40.9Q-2.58,41.07 -2.46,41.22Q-2.17,41.51 -1.59,41.58" fill="#803380"></path><path d="M-1.12,41.37L-1.1,41.27Q-1.71,41.17 -1.85,41.04Q-2.06,40.88 -2.22,40.7L-2.28,40.74Q-2.14,40.96 -1.93,41.14Q-1.75,41.27 -1.12,41.37" fill="#803380"></path><path d="M-.69,41.12L-.69,41.06Q-1.19,41.03 -1.55,40.76Q-1.75,40.65 -1.96,40.46L-2.02,40.52Q-1.83,40.73 -1.63,40.88Q-1.21,41.12 -.69,41.12" fill="#803380"></path><path d="M-.45,40.61L-.45,40.55Q-1.09,40.52 -1.3,40.34Q-1.53,40.18 -1.62,40.14L-1.66,40.2Q-1.6,40.27 -1.38,40.44Q-1.11,40.61 -.45,40.61" fill="#803380"></path><path d="M-.24,40.26L-.24,40.18Q-.5,40.16 -.77,40.01Q-.94,39.94 -1.15,39.77L-1.21,39.83Q-1.01,40.03 -.83,40.13Q-.53,40.27 -.24,40.26" fill="#803380"></path><path d="M-.04,39.96L-.04,39.84Q-.2,39.84 -.84,39.56L-.88,39.64Q-.23,39.94 -.04,39.96" fill="#803380"></path><path d="M.09,39.62L.05,39.56Q0,39.58 0,39.55Q-.18,39.53 -.56,39.32L-.6,39.4Q-.22,39.63 -.02,39.69Q.02,39.67 .09,39.62" fill="#803380"></path><path d="M.13,39.38L.15,39.32Q.09,39.31 -.37,39.11L-.39,39.17Q.07,39.37 .13,39.38" fill="#803380"></path><path d="M.23,39.06L.21,39Q.15,39.01 -.26,38.81L-.3,38.89Q.13,39.09 .23,39.06" fill="#803380"></path><path d="M.32,38.87L.32,38.77Q.19,38.78 -.11,38.69L-.13,38.75Q.17,38.86 .32,38.87" fill="#803380"></path><path d="M-24.62,42.46l0-.2q-4.37-.07 -5.82-.18q-.8,0 -.75,.14q.42,.18 .59,.2q4.3,.35 3.52,.24q-.77,0 -3.89-.18l-.02,.2q3.13,.19 3.91,.2q.98-.1 -3.5-.66q-.13-.01 -.53-.18q.04,.13 .65,.24q1.46,.11 5.84,.18" fill="#803380"></path><path d="M.28,42.82L.36,43Q.79,42.74 .61,42.63Q-.33,42.63 -.64,42.62Q-3.12,42.53 -3.94,42.67Q-4.54,42.76 -4.74,42.79L-4.7,43.05Q-4.5,43.01 -3.9,42.91Q-3.11,42.78 -.64,42.86Q-.33,42.87 .61,42.87Q.59,42.76 .28,42.82" fill="#803380"></path><path d="M-.22,43.32L-.22,43.12Q-4.82,43.18 -3.97,43.15Q-3.6,43.09 -2.73,42.98L-2.75,42.78Q-3.63,42.89 -4.01,42.95Q-5.02,43.21 -.22,43.32" fill="#803380"></path><path d="M-34.71,7.42L-34.71,7.42L-34.71,7.42Q-34.71,7.54 -34.83,7.54Q-34.95,7.54 -34.95,7.42Q-34.95,7.3 -34.83,7.3Q-34.71,7.3 -34.71,7.42" fill="#803380"></path><path d="M3.08,6.77L3.04,6.97Q5.37,7.37 5.03,7.11Q.37,6.34 -14.36,6.79Q-19.88,7.14 -18.62,7.35Q-13.95,7.41 -12.39,7.38Q-5.59,7.24 -3.32,7.29Q.57,7.26 -.3,6.95Q-.54,6.91 -3.47,6.78Q-18.27,6.12 -21.7,6.42Q-37.28,8.02 -34.31,7.86Q-34.08,7.85 -23.76,7.45Q-17.81,7.05 -19.19,6.83Q-21.99,6.91 -22.92,6.87Q-27.69,6.69 -29.28,6.87Q-33.32,7.31 -34.67,7.37Q-36.7,7.51 -36.18,7.76Q-35.91,7.72 -35.45,7.51L-35.53,7.31Q-35.97,7.48 -36.2,7.46Q-36.44,7.74 -34.65,7.73Q-33.29,7.69 -29.24,7.25Q-27.68,7.09 -22.94,7.29Q-21.99,7.33 -19.17,7.25Q-18.25,6.97 -23.78,7.01Q-34.11,7.41 -34.37,7.46Q-37.7,8.1 -21.66,6.86Q-18.27,6.55 -3.49,7.2Q-.57,7.33 -.36,7.35Q.25,7.24 -3.32,6.99Q-5.59,6.91 -12.39,7.02Q-13.95,7.05 -18.62,6.97Q-19.5,7.15 -14.34,7.17Q.35,6.72 4.97,7.49Q5.61,7.4 3.08,6.77" fill="#803380"></path><path d="M-35.16,6.1L-35.32,5.96Q-35.78,6.42 -36.58,7.12L-36.44,7.28Q-35.63,6.58 -35.16,6.1" fill="#803380"></path><path d="M-34.27,5.77L-34.43,5.63Q-35.3,6.57 -35.87,7.1L-35.73,7.26Q-35.15,6.72 -34.27,5.77" fill="#803380"></path><path d="M-32.66,4.99L-32.8,4.83Q-33.4,5.41 -35.07,7.17L-34.91,7.33Q-33.24,5.56 -32.66,4.99" fill="#803380"></path><path d="M-30.28,3.6L-30.42,3.44Q-31.13,4.13 -31.18,4.07Q-32.92,5.71 -34.19,7.26L-34.03,7.4Q-32.71,5.92 -30.92,4.35Q-30.97,4.29 -30.28,3.6" fill="#803380"></path><path d="M-28.84,3.43L-28.98,3.27Q-31.58,5.77 -33.25,7.43L-33.09,7.59Q-31.43,5.93 -28.84,3.43" fill="#803380"></path><path d="M-26.9,3.12L-27.04,2.96Q-30.72,6.2 -31.94,7.28L-31.78,7.46Q-30.57,6.37 -26.9,3.12" fill="#803380"></path><path d="M-24.8,2.55L-24.94,2.39Q-29.04,5.89 -30.41,7.06L-30.23,7.26Q-28.89,6.06 -24.8,2.55" fill="#803380"></path><path d="M-22.81,2.16L-22.97,2.02Q-23.58,2.62 -28.51,7.09L-28.35,7.27Q-23.42,2.8 -22.81,2.16" fill="#803380"></path><path d="M-20.96,2.26L-21.1,2.1Q-22.21,2.99 -22.27,2.91Q-24.26,4.47 -26.86,6.86L-26.68,7.06Q-24.04,4.74 -22.01,3.25Q-22.06,3.16 -20.96,2.26" fill="#803380"></path><path d="M-18.69,1.91L-18.81,1.75Q-24.2,5.78 -25.06,6.43L-24.88,6.65Q-24.06,5.96 -18.69,1.91" fill="#803380"></path><path d="M-16.81,1.89L-16.93,1.73Q-18.99,3.27 -22.91,6.01L-22.73,6.27Q-18.83,3.49 -16.81,1.89" fill="#803380"></path><path d="M-14.51,1.55L-14.63,1.37Q-16.04,2.22 -16.54,2.45Q-18.37,3.67 -21.57,6.2L-21.41,6.42Q-18.17,3.96 -16.3,2.83Q-15.88,2.47 -14.51,1.55" fill="#803380"></path><path d="M-12.63,1.59L-12.75,1.41Q-13.7,1.97 -19.27,5.91L-19.09,6.15Q-13.54,2.2 -12.63,1.59" fill="#803380"></path><path d="M-9.55,1.19L-9.67,1.01Q-15.01,4.36 -17.59,6.07L-17.43,6.31Q-14.88,4.56 -9.55,1.19" fill="#803380"></path><path d="M-7.98,1.81L-8.1,1.63Q-13.36,4.94 -15.11,6.04L-14.95,6.28Q-13.23,5.14 -7.98,1.81" fill="#803380"></path><path d="M-6.15,1.65L-6.25,1.47Q-9.42,3.36 -13.52,6.26L-13.36,6.48Q-9.29,3.57 -6.15,1.65" fill="#803380"></path><path d="M-4.29,1.58L-4.41,1.4Q-7.39,3.2 -11.42,5.72L-11.28,5.96Q-7.26,3.41 -4.29,1.58" fill="#803380"></path><path d="M-1.99,1.33L-2.11,1.15Q-4.65,2.81 -5.53,3.3Q-7.01,4.31 -9.4,6.29L-9.26,6.45Q-6.83,4.55 -5.31,3.64Q-4.49,3.04 -1.99,1.33" fill="#803380"></path><path d="M.65,1.3L.53,1.12Q-5.65,5.06 -7.72,6.37L-7.58,6.59Q-5.53,5.26 .65,1.3" fill="#803380"></path><path d="M3.07,.99L2.95,.83Q1.4,1.9 -1.83,3.79Q-3.19,4.65 -4.64,5.79L-4.48,6.01Q-3,4.94 -1.61,4.15Q1.58,2.18 3.07,.99" fill="#803380"></path><path d="M4.48,1.37L4.36,1.19Q3.01,2.04 2.51,2.23Q-.72,4.11 -3.63,6.16L-3.47,6.4Q-.52,4.43 2.73,2.63Q3.16,2.29 4.48,1.37" fill="#803380"></path><path d="M4.71,2.71L4.61,2.53Q2.64,3.59 -1.3,6.07L-1.16,6.29Q2.76,3.8 4.71,2.71" fill="#803380"></path><path d="M5.07,4.34L4.97,4.16Q2.3,5.68 .81,6.59L.95,6.81Q2.42,5.88 5.07,4.34" fill="#803380"></path><path d="M43.2,48.3l.6,.6q.5,0 3.8-2.2l-1-1.4q-3.3,2.4 -3.4,3" fill="#ffff0080"></path><path d="M90.2,51.7l.6-1.4q-.9-.4 -4.7-3.2l-.8,1q3.8,2.9 4.9,3.6" fill="#ffff0080"></path><path d="M91.8,44.7l-.2-1q-.4,0 -.5-.3q-1.1,.4 -3.6,.4l0,1.4q2.6,.2 4,0q.1-.3 .3-.5" fill="#ffff0080"></path><path d="M85.5,4.5L84.5,4.3Q84.2,5.4 83,7.9L84,8.3Q85.2,5.8 85.5,4.5" fill="#ffff0080"></path><path d="M81.7,3.2L80.7,3.2Q80.7,4 80.2,7L81.2,7.2Q81.7,4.2 81.7,3.2" fill="#ffff0080"></path><path d="M48.9,3.1L48.7,4.7Q48.6,4.2 49.1,8.4L50.3,8.2Q49.9,3.6 48.9,3.1" fill="#ffff0080"></path><path d="M45,7.4L43.6,9Q44,8.9 47.9,10.5L48.5,9.1Q44.6,7.5 45,7.4" fill="#ffff0080"></path><path d="M43.3,11.8l0,1q1.5,.1 5-.2l-.2-1.4q-3.4,.5 -4.8,.6" fill="#ffff0080"></path><path d="M-23.9,26.3l.2-.2q-.2-.4 -.1-.5q0-4.4 0-4.3q.6-1.9 1.5-2.3q2.9-1.4 9.2-1.4q3.7,0 5.6,1.3q1.7,1.2 1.9,1.9q.8,2 .1,3.4q-.9,1.7 -3.1,2q-2.7,.4 -3.6,.4q-5.8,0 -6.3-.1q-2.1-.4 -2.8,0q-5.1,2.8 -4.1,2.4q.3-.2 .4-.3q.8-.9 1.7-2l-.2-.2q-1,1.1 -1.9,1.8q0,0 -.4,.3q-1,1.1 4.7-1.6q.5-.2 2.6,.2q.5,.1 6.3,.1q.9,0 3.6-.4q2.6-.4 3.5-2.4q.8-1.6 .1-3.8q-.4-.9 -2.1-2.1q-2.1-1.5 -6-1.5q-6.4,0 -9.4,1.4q-1.1,.6 -1.9,2.7q0,.1 0,4.5q.1,.2 .5,.7" fill="#803380"></path><path d="M-11.5,29.7l.2,.2q.1,0 .1,.1q.7,0 .7,.1q2.7,1.6 2.9,2.8q.4,1.7 .6,2.2q1.1,2.5 .9,2.1q-2.5-1.4 -4.1-1.4q-12.1,0 -12.7-.9q-1-1.4 -.7-1.8q1.3-2.8 4.6-3.3q.1,0 5.1-.1q1.4-.1 3.7,0l0-.4q-2.2-.1 -3.7-.2q-5,.1 -5.1,.1q-3.7,.6 -5.2,3.7q-.3,.7 .9,2.4q.8,1.1 13.1,1.1q1.4,0 3.9,1.4q.9,.2 -.1-2.9q-.2-.5 -.6-2.2q-.4-1.4 -3.1-3.2q-.3-.1 -1.1-.1q-.1,.1 -.3,.3" fill="#803380"></path><path d="M-25.3,14.5l-.4,0q-.1,.2 -.8,1.6q0,.2 -.7,.7l.2,.2q.7-.5 .9-.7q.8-1.4 .8-1.8" fill="#803380"></path><path d="M-7.2,11.5l-.2,.2q.7,.7 .6,1.1q.1,2.7 -2.6,2.7q-4.9,0 -6,.1q-2.9,.2 -3.8,.1q-2.2-.4 -3.1-.4q-2.8-.1 -2.9,0q-1.3,.9 -1.9,1.3l.2,.2q.6-.3 1.9-1.1q-.1,0 2.7,0q.9,0 3.1,.4q.9,.2 3.8-.1q1.1-.1 6-.1q3.1,0 3.2-3.1q-.1-.6 -1-1.3" fill="#803380"></path><path d="M-25.4,13.8l-.6-.2q0,1 .3,1q0-4 -.4-3.4q0,.6 -.1,.8q-.5,2 0,2.2q.4,.1 .5,0l0-.2q-.1-.1 -.3-.2q-.2,0 .4-1.6q0-.3 .1-1q-.3-1.1 -.8,3.4q.3,.5 .9-.8" fill="#803380"></path><path d="M-9.5,44.36l.12-.42q-.88-.21 -1.08,.13q-.21,.83 -.38,.88q-.72,.46 -.43-.01q.25-1.23 .71-.54q.13,.03 .15,.29l.18,.02q.06-.35 -.03-.57q-.87-.83 -1.43,.68q-.13,.93 1.03,.51q.34-.19 .62-1.14q-.09-.05 .54,.17" fill="#803380"></path><path d="M-7.29,46.48L-7.47,46.08Q-7.62,46.15 -7.63,46.14Q-8.92,46.2 -8.66,45.57Q-8.44,44.34 -8.08,44.76Q-7.52,45.1 -7.73,45.12Q-7.81,45.27 -8.92,45.34L-8.92,45.54Q-7.75,45.53 -7.49,45.44Q-7.11,45.05 -7.82,44.42Q-8.62,43.96 -9.08,45.47Q-9.23,46.5 -7.63,46.58Q-7.51,46.57 -7.29,46.48" fill="#803380"></path><path d="M-6.56,45.9L-6.68,45.78Q-7.02,46.03 -7.05,46.3Q-6.29,47.3 -5.6,46.63Q-4.96,45.77 -5.61,45.28Q-6.56,44.78 -6.4,44.76Q-6.06,44.21 -6.07,44.36Q-5.87,44.55 -5.76,44.59L-5.62,44.47Q-5.62,44.36 -5.75,44.12Q-6.12,43.8 -6.74,44.5Q-6.95,44.96 -5.83,45.66Q-5.39,45.81 -5.94,46.35Q-6.23,46.83 -6.63,46.02Q-6.77,46.12 -6.56,45.9" fill="#803380"></path><path d="M-23.49,47.66l.1-.4q-.17,.04 -1.98,.05l0,.22q1.79,.03 1.88,.13" fill="#803380"></path><path d="M-22.07,45.96l.12-.4q.05,.05 -.1-.29q-1.13-2.29 -1.6-1.71q-.1,.38 -1.07,4l.2,.06q1.02-3.6 1.25-3.88q-.01-.35 .84,1.71q.2,.42 .36,.51" fill="#803380"></path><path d="M-20.76,47.65l.3-.06q-.13-.68 -.12-.87q-.63-3.47 -.94-3.26q.02,.17 -.64,2.15l.2,.06q.69-1.96 .82-2.05q-.23,.02 .14,3.16q.07,.2 .24,.87" fill="#803380"></path><path d="M-19.76,47.51l-.12-.12q-.09,.02 -.06-.09q-1.22-.03 -1.45,.13q-.17,.16 -.2,.26l.14,.18q.09,.01 .3-.1q.06-.05 1.19-.01q.11-.11 .2-.25" fill="#803380"></path><path d="M-17.66,46.96l-.08-.14q-.44,.22 -.52,.1q-1.47-.03 -.97-1.23q.27-1.09 .58-.46q.48,.52 .19,.49q-.08,.09 -1.17,.23l.02,.24q1.11-.1 1.25-.07q.6-.27 .05-1.15q-.74-.79 -1.32,.58q-.47,1.59 1.33,1.83q.2-.09 .64-.42" fill="#803380"></path><path d="M-16.9,46.66l-.44,.18q.13,.29 .34,.37q.95,.06 1.04-.43q-.02-.77 -.2-.95q-.85-.54 -.72-.61q.24-.63 .29-.38q.2,.19 .31,.22l.16-.12q0-.12 -.15-.36q-.46-.41 -.99,.44q-.14,.46 .86,1.17q0-.05 0,.59q.1,.09 -.54-.05q.08,.07 .04-.07" fill="#803380"></path><path d="M-15.4,46.99l-.4-.04q-.02,.33 .2,.49q.84,.05 1.06-.3q.35-.78 .02-1.2q-1.02-1 -.79-1.07q.44-.59 .28-.4q.03,.32 .1,.43l.2,0q.07-.1 .12-.41q-.14-.63 -1.02,.06q-.35,.48 .79,1.71q.2,.13 -.1,.68q0,.1 -.6,0q.11,.15 .14,.05" fill="#803380"></path><path d="M-12.34,47.13l.42,0q-.01-1.97 -.28-2.6q-.62-1.15 -1.37-.2q-.11,.26 -.09,.77l.2,0q.04-.44 .19-.57q.41-.76 .69,.16q.24,.53 .24,2.44" fill="#803380"></path><path d="M-12.12,46.83l-.16-.24q-.49,.31 -.57,.22q-.79-.17 -.43-.66q.35-.82 .46-.54q.22,.21 .32,.25l.18-.14q-.03-.11 -.22-.37q-.49-.42 -1.12,.6q-.36,.87 .69,1.26q.29,.02 .85-.38" fill="#803380"></path><path d="M-10.67,46.09l.14-.1q-.31-.43 -.16-.42q.22-.32 .26-.45l-.16-.14q-.13,.06 -.4,.33q-.09,.29 .32,.78" fill="#803380"></path><path d="M-10.56,45.56l-.1,.42q.22,.05 .26,.08q1.1,.32 .11,.66q-.97,.56 -.8,.17q.02-1.09 .27-.81q.26,.11 .38,.1l.1-.18q-.05-.1 -.28-.28q-.69-.26 -.89,1.13q.06,.8 1.4,.25q1.25-.74 -.11-1.46q-.1-.03 -.34-.08" fill="#803380"></path><path d="M69.1,-188.2l-.4-2.4q-5.9,1.2 -23.4,1.2q-37.5,0 -45.1,.9q-28.5,3.4 -33.1,8.8q-2.3,2.9 -3.6,16.5q-1.7,17.9 -.6,88.1q.9,64.2 .8,85.6q0,34.3 .4,45.7l.8,0q.5-11.4 1-45.7q.2-21.4 -.8-85.6q-1-70.2 .6-87.9q1.2-13.2 3-15.3q3.8-4.8 31.7-8q7.5-.9 44.9-.9q17.6,0 23.8-1" fill="#803380"></path><path d="M91,53.2l.2,2.2q3-1 2-27.1q-1-24.4 -.3-32.4q3-33.1 1.6-66.4q-1.7-40 0-57.2q3.7-37.7 1.7-49.1q-1.9-10.4 -5.7-11.8q-5.3-1.7 -6.9-2.5q-3.6-1.3 -15.2-.5l0,.8q11.4-.4 14.4,1.5q1.7,.8 7.1,2.5q2.7,.7 4.3,10.4q1.9,11 -1.9,48.5q-1.7,17.4 0,57.4q1.4,33.2 -1.6,66.2q-.7,8.2 .3,32.6q1.2,25.4 0,24.9" fill="#803380"></path><path d="M93,48.5l-.6,.4q0,.5 -.5,.2q-1,8.3 -6.2,9.2q-11.6,2.5 -13.9,2.6q-45.6,1.3 -60.8,2.2q-15.9,.9 -31.9-.9q-11.3-1.2 -12.5-3.2q-1.4-1.7 -1.8-5.1l-1,0q0,3.9 1.2,6.1q2,2.8 13.9,4.2q16.2,1.8 32.3,.9q15.1-.8 60.6-2.2q2.6,0 14.3-2.6q6.4-1.6 8-10.8q-.5-.6 -1.1-1" fill="#803380"></path><path d="M18,52.4l.8,.8q0,.1 4.9-.1q7.3-.3 9.2,.6q4.8,1.8 .8,3.5q-7.8,4.4 -11.2,3.3q-6-1.7 -4-4.2q2.5-4.1 4-3.1q.9,.2 1.3,.1l.2-.6q-.1-.4 -.9-.9q-2.7-.9 -5.8,3.7q-2.2,4 4.8,6.4q4,1.2 12.4-3.3q4.7-3.1 -.8-6.3q-2.5-1.2 -10-.8q-5.2,.3 -5.7,.9" fill="#803380"></path><path d="M22.6,53.2l-.6-1.6q-.8,.4 -34.2,.4q-15.7,.1 -20.7-3.2q-1.6-.8 -2.2-1l-.4,.6q.4,.5 1.8,1.6q5.5,3.5 21.5,3.6q33.5,0 34.8-.4" fill="#803380"></path><path d="M45.8,53.5l-.2-1.6q.1,.4 -11.8,.6l0,.8q11.9-.2 12,.2" fill="#803380"></path><path d="M83,54l0-1q-14.9-.3 -19.9-.4q-7.1,0 -7.6-.3q-.7-.2 -1-.2l-.4,.6q.2,.3 .8,.8q.9,.5 8.2,.5q5-.1 19.9,0" fill="#803380"></path><path d="M92.8,53.6l-.2-1.4q-3.9,.5 -5.1,.4q-1.5,0 -2,.2l0,.6q.4,.3 1.8,.6q1.5,.2 5.5-.4" fill="#803380"></path><path d="M49.6,53l1,.2q-.2-.9 -3.3-.7l0,.8q2.7-.3 2.3-.3" fill="#803380"></path><path d="M18.8,59.2l.4-.4q-.4-.5 -.3-.7q1-4 1.9-4.3q.5-.3 .7-.4l-.2-.4q-.2,0 -.7,.2q-1.2,.6 -2.3,4.7q-.1,.5 .5,1.3" fill="#803380"></path><path d="M19.8,59.6l.2,0q-.5-1.7 -.3-2.1q.5-3 .8-2.6q.3,.1 .4,.1l.2-.4q-.1-.1 -.4-.3q-.9-.2 -1.6,3q0,.7 .7,2.3" fill="#803380"></path><path d="M21.3,60.5l0-.4q-.7-.1 -.8-.5q-1.3-2.3 -.9-2.8q.3-.6 .8-.9l-.2-.4q-.6,.4 -1,.9q-.6,1 .7,3.4q.4,.6 1.4,.7" fill="#803380"></path><path d="M21.4,60.7l0-.2q-.3-.1 -.3-.3q-2.4-1 -2.1-1.7q.1-.6 .1-.7l-.4-.2q-.1,.2 -.3,.7q-.2,1.2 2.5,2.5q.1-.1 .5-.1" fill="#803380"></path><path d="M21,60.3l.2-.2q-1.6-1.2 -.7-1.7q.3-.3 .4-.5l-.2-.2q-.2,0 -.6,.3q-.9,1 .9,2.3" fill="#803380"></path><path d="M21.8,60.7l.2-.4q-.6-.4 -.7-1.1q-.1-.5 .1-1.2l-.4-.2q-.3,.8 -.3,1.4q.2,1.1 1.1,1.5" fill="#803380"></path><path d="M21.8,60.9l.4-.2q-.5-.6 -.4-.7q-.1-.5 0-1.6l-.4,0q-.2,1 -.2,1.6q.1,.3 .6,.9" fill="#803380"></path><path d="M22.8,61.3l.2-.2q-.3-.2 -.3-.9q-.2-.5 -.1-1.5l-.4,0q-.1,1 -.1,1.5q.3,.9 .7,1.1" fill="#803380"></path><path d="M24,61.5l0-.4q-.1,0 0,0q-.4-.4 -.9-2.1l-.4,.2q.4,1.7 .9,2.3q.2,.1 .4,0" fill="#803380"></path><path d="M24.4,61.2l.4-.2q-.2-.2 -.5-.9l-.2,0q.1,.8 .3,1.1" fill="#803380"></path><path d="M-34.5,58.3l.4,0q-.1-1.3 -.1-5.2q-.1-1.1 0-2.7l-.6,0q-.1,1.6 -.2,2.7q.1,4 .5,5.2" fill="#803380"></path><path d="M-34.1,58.9l.8-.2q-.2-.3 -.4-7.5l-.6,0q.2,7.2 .2,7.7" fill="#803380"></path><path d="M-33.4,60.2l.8,0q0-6.9 -.1-9.2l-.6,0q-.1,2.3 -.1,9.2" fill="#803380"></path><path d="M-32.4,60.6l.4,.2q.4-.5 0-9.8l-.6,0q.3,9.2 .2,9.6" fill="#803380"></path><path d="M-31.5,60.9l.4,.2q.3-.4 .2-9.9l-.6,0q.1,9.4 0,9.7" fill="#803380"></path><path d="M-30.3,61l.4,.2q.2-.4 0-10l-.6,0q.3,9.6 .2,9.8" fill="#803380"></path><path d="M-28.7,61.3l0-.8q-.1,.3 -.2-8.8l-.6,0q.1,9.3 .8,9.6" fill="#803380"></path><path d="M-27.5,62.2l.4,0q.1-.7 .3-.9q-.3-1.8 -.3-9.5l-.4,0q-.2,7.7 -.3,9.5q.2,.2 .3,.9" fill="#803380"></path><path d="M-25.9,60.6l.4-.4q-.2-.2 .1-7.3l-.6,0q-.3,7.1 .1,7.7" fill="#803380"></path><path d="M-24,62l.6-.2q-.1-.1 .1-9.5l-.6,0q-.1,9.4 -.1,9.7" fill="#803380"></path><path d="M-21.8,61.7l.8,0q-.1-2.5 -.1-8.4l-.6,0q-.2,5.9 -.1,8.4" fill="#803380"></path><path d="M-19.2,61.9l.4,0q0-8.5 .1-9.1l-.6,0q.1,.6 .1,9.1" fill="#803380"></path><path d="M-17.2,61.8l.8,0q-.1-.6 .1-8.6l-.6,0q-.2,8 -.3,8.6" fill="#803380"></path><path d="M-15.5,62.2l0-1q.1,.4 .5-7.9l-.6,0q-.4,8.5 .1,8.9" fill="#803380"></path><path d="M-14.5,62.5l1-.2q-.3-.5 -.2-9.1l-.6,0q-.2,8.6 -.2,9.3" fill="#803380"></path><path d="M-13.2,62.4l.8-.4q-.3-.2 -.3-8.4l-.6,0q0,8.2 .1,8.8" fill="#803380"></path><path d="M-11.5,62.1l-.4,0q.2,.2 .7,.3q-.2-1.4 -.2-1.9q-.1-1.8 0-7.3l-.6,0q-.3,5.5 -.4,7.3q0,.5 .2,2.1q.5,.3 .7-.5" fill="#803380"></path><path d="M-10.4,62.9l.6-.2q-.2-.9 0-9.6l-.8,0q-.1,8.8 .2,9.8" fill="#803380"></path><path d="M-8.4,63.3L-8.8,63.1Q-8.9,63.4 -8.5,63.5Q-8.8,61.3 -8.6,53.3L-9.2,53.3Q-9.5,61.4 -9.3,63.5Q-8.9,63.9 -8.4,63.3" fill="#803380"></path><path d="M-6.6,63.9L-7,63.7Q-7,63.9 -6.6,64.1Q-6.7,59.8 -6.6,53.1L-7.2,53.1Q-7.4,59.8 -7.4,64.1Q-7,64.4 -6.6,63.9" fill="#803380"></path><path d="M-5.6,64L-4.8,63.8Q-5,63.4 -5.1,54.4L-5.7,54.4Q-5.8,63.4 -5.6,64" fill="#803380"></path><path d="M-3.9,63.9L-3.1,63.7Q-3.3,63.2 -3,53.4L-3.6,53.4Q-4,63.2 -3.9,63.9" fill="#803380"></path><path d="M-2.2,63.5L-1.4,63.3Q-1.6,63.1 -1.3,53.5L-1.7,53.5Q-2.1,63.1 -2.2,63.5" fill="#803380"></path><path d="M0,63.9L.2,63.1Q.2,63.4 .2,54L-.4,54Q-.4,63.5 0,63.9" fill="#803380"></path><path d="M1.3,65.2L2.1,65Q1.7,63.2 2.4,53.1L1.8,53.1Q1,63.2 1.3,65.2" fill="#803380"></path><path d="M3.2,64.4L4.2,64.4Q4.3,55.9 4.2,53L3.6,53Q3.5,55.8 3.2,64.4" fill="#803380"></path><path d="M4.7,64.1L5.5,64.1Q5.4,62.8 5.7,52.5L5.1,52.5Q4.7,62.8 4.7,64.1" fill="#803380"></path><path d="M6.4,63.1L7.4,63.1Q7.3,55.9 7.2,53.5L6.6,53.5Q6.5,55.9 6.4,63.1" fill="#803380"></path><path d="M8.8,62.2L8.4,62Q8.3,62.2 8.8,62.4Q8.6,59.6 8.6,53.1L8,53.1Q7.8,59.6 7.8,62.4Q8.3,62.8 8.8,62.2" fill="#803380"></path><path d="M9.6,63.9L10.4,63.5Q10.2,63.3 10.3,54.3L9.7,54.3Q9.6,63.4 9.6,63.9" fill="#803380"></path><path d="M11.3,62.9l.8,0q0-4.4 -.1-9.2l-.6,0q0,4.8 -.1,9.2" fill="#803380"></path><path d="M12.9,63.6l.6-.6q-.3-.2 -.6-8.6l-.6,0q.2,8.6 .6,9.2" fill="#803380"></path><path d="M14.2,63.2l.8,0q0-7.2 -.1-9.6l-.6,0q-.1,2.4 -.1,9.6" fill="#803380"></path><path d="M15.3,63.5l.8,0q-.2-1 -.2-9l-.6,0q0,8 0,9" fill="#803380"></path><path d="M17.5,62.4l-.4-.2q.1,.2 .5,.4q0-2.2 -.1-2.9l-.6,0q-.1,.7 -.1,2.9q.4,.3 .7-.2" fill="#803380"></path><path d="M18.1,62.4l.6-.6q-.3-.2 -.3-1.4l-.6,0q0,1.4 .3,2" fill="#803380"></path><path d="M31.9,61.8l.6,0q0-1.1 .4-2.2l-.4-.2q-.6,1.1 -.6,2.4" fill="#803380"></path><path d="M34.1,61.9l.4,0q-.1-.7 -.1-2.8l-.4,0q0,2.1 .1,2.8" fill="#803380"></path><path d="M36,61l.6,0q0-3.1 0-4.2l-.6,0q0,1.1 0,4.2" fill="#803380"></path><path d="M37.8,60.9l.4,0q0-1.5 -.4-6.8l-.4,0q.4,5.3 .4,6.8" fill="#803380"></path><path d="M39.8,61l.4-.6q-.3,0 -.4-7.1l-.4,0q.1,7.2 .4,7.7" fill="#803380"></path><path d="M41.7,61.6l.8-.4q-.7-1.2 -.7-7.6l-.6,0q0,6.4 .5,8" fill="#803380"></path><path d="M44.2,61.3l.6-.4q-.4-.3 -.6-7.6l-.6,0q.3,7.4 .6,8" fill="#803380"></path><path d="M45.8,61.1l.8-.2q-.3-.6 -.2-7.7l-.6,0q-.1,7.1 0,7.9" fill="#803380"></path><path d="M48.9,60.3l-.4,0q-.1,.6 .3,.5q-.5-.5 -.7-7.8l-.4,0q.1,7.3 .3,8.2q.6,.2 .9-.9" fill="#803380"></path><path d="M49.3,61.8l.8,0q-.2-1.1 -.4-8.9l-.4,0q.1,7.8 0,8.9" fill="#803380"></path><path d="M51,61.6l.4,0q-.6-6.4 -.7-8.5l-.4,0q.1,2.1 .7,8.5" fill="#803380"></path><path d="M54.9,60.6l-.4,0q.1,.3 .5,.3q-.2-.2 -.4-7.2l-.6,0q.3,7 .2,7.4q.5,.2 .7-.5" fill="#803380"></path><path d="M55.9,61.6l.6-.4q-.3-.3 -.2-7.8l-.6,0q-.1,7.5 .2,8.2" fill="#803380"></path><path d="M57.8,62.1l.8-.4q-.5-.8 -.1-8.2l-.6,0q-.4,7.4 -.1,8.6" fill="#803380"></path><path d="M60.3,60.9l.6-.6q-.2,.1 -.1-6.5l-.6,0q-.1,6.7 .1,7.1" fill="#803380"></path><path d="M62,62.2l.4-.6q-.2,.1 .2-7.3l-.6,0q-.3,7.5 0,7.9" fill="#803380"></path><path d="M64.4,61.5l.6-.2q-.2-.2 -.1-7.5l-.4,0q-.2,7.3 -.1,7.7" fill="#803380"></path><path d="M66.8,61.4l.8-.4q-.5-.3 -.1-7.2l-.4,0q-.5,6.9 -.3,7.6" fill="#803380"></path><path d="M68.8,61.5l.6-.6q-.3,0 .2-7.2l-.6,0q-.5,7.3 -.2,7.8" fill="#803380"></path><path d="M71.1,61.1l.8-.4q-.4-.6 0-6.8l-.6,0q-.4,6.2 -.2,7.2" fill="#803380"></path><path d="M73.3,60.9l.8-.2q-.1-.5 -.1-.7q.2-3.1 0-6.1l-.6,0q.1,3 -.2,6.1q0,.2 .1,.9" fill="#803380"></path><path d="M75.1,61.2l.8-.2q-.2-.5 .3-6.9l-.6,0q-.5,6.4 -.5,7.1" fill="#803380"></path><path d="M78,60.1l-.4-.2q0,.1 .5,.2q-.3-.6 -.1-5.7l-.6,0q-.3,5.1 -.3,5.9q.5,.2 .9-.2" fill="#803380"></path><path d="M78.9,59.7l.8,0q-.2-1.9 -.1-5.4l-.6,0q-.1,3.5 -.1,5.4" fill="#803380"></path><path d="M80.3,60.1l.8-.4q-.3-.2 -.3-5l-.6,0q0,4.9 .1,5.4" fill="#803380"></path><path d="M81.7,59.6l.4-.2q-.2-.4 .1-4l-.6,0q-.2,3.7 .1,4.2" fill="#803380"></path><path d="M83.8,58.6l.8,.2q.3-2.5 .4-3.4l-.6,0q-.2,.8 -.6,3.2" fill="#803380"></path><path d="M85.4,58.6l.8-.2q-.2-.3 .1-4.1l-.6,0q-.3,3.8 -.3,4.3" fill="#803380"></path><path d="M87.6,57.9l-.4-.2q-.1,.4 .3,.6q-.1-1.4 0-4.2l-.6,0q-.1,2.8 -.2,4.2q.4,.4 .9-.4" fill="#803380"></path><path d="M88.7,56.5l-.4,0q0,.8 .5,.8q-.1-.4 .1-2.7l-.6,0q-.3,2.2 -.5,2.7q.5,.4 .9-.8" fill="#803380"></path><path d="M90.1,56.3l-.2-.4q-.3,.2 0,.3q0-1.3 -.1-1.8l-.6,0q-.1,.5 -.1,1.8q.3,.4 1,.1" fill="#803380"></path><path d="M91.9,-176.4l.2-.8q-.3-.1 -.5-.1q-8,.1 -10.6,0q-9.7-.6 -12.9-.4q-13,1 -17.3,1.1q-16.4,.2 -21.8,.5q-16.4,.9 -21.8,1.4q-15.4,1.4 -20.5,1.5q-9,.1 -12,.4q-4.8,.5 -7.5,1.2l0,.4q2.8-.5 7.5-.8q3-.2 12-.4q5.2,0 20.5-1.5q5.5-.5 21.8-1.4q5.5-.3 21.8-.5q4.4,0 17.3-.9q3.2-.3 12.9,.2q2.6,.2 10.6,0q0,0 .3,.1" fill="#803380"></path><path d="M25.9,-184l0,.4q6.9,.1 11.8,.9q13.3,1.6 13.2,2.8q.3,.3 -.5,.1q-21.5-.5 -28.7-.6q-5.3,.1 -4.5-.4q1.5-2.2 9.5-2.8q1.2-.1 2.1,0l.2-.4q-1-.4 -2.3-.4q-8.4,.6 -10.3,3q-.8,1.7 5.3,2q7.2,.1 28.7,.6q1.4-.1 1.5-1.3q-.5-1.9 -14-3.6q-5-.4 -12-.3" fill="#803380"></path><path d="M51.1,10.3L50.5,9.9Q50.5,10.6 51.3,10.5Q53.7,9.7 67.7,9.7Q77.4,9.7 80.1,11.6Q83.3,13.9 83.3,23.5Q83.3,35.2 82.9,37.5Q82.4,40.8 80.2,41.4Q79.8,41.6 60.4,41.3Q56.6,41.3 53.9,39.6Q51.7,38.2 51,33.6Q50.8,33 50.8,16Q50.7,13.9 51.3,10.3L50.9,10.3Q50.3,13.9 50.2,16Q50.1,33 50.2,33.8Q51,38.6 53.5,40.2Q56.4,42 60.4,42.1Q79.8,42.4 80.4,42.2Q83,41.3 83.7,37.7Q84.1,35.3 84.1,23.5Q84.1,13.6 80.5,11Q77.6,8.9 67.7,8.9Q53.6,8.9 51.1,9.7Q51,10 51.1,10.3" fill="#803380"></path><path d="M50.81,33.57l.12,.02q.11-.49 .4-1.16l-.14-.06q-.28,.69 -.38,1.2" fill="#803380"></path><path d="M50.97,34.32l.12,.02q.08-.45 .16-.57q.12-.55 .41-1.13l-.14-.08q-.35,.58 -.53,1.13q0,.17 -.02,.63" fill="#803380"></path><path d="M51.09,35.44l.12,0q.08-.64 .17-.87q.12-.72 .52-1.59l-.18-.08q-.43,.87 -.6,1.61q-.01,.27 -.03,.93" fill="#803380"></path><path d="M51.35,36.31l.12,0q.09-1.44 .41-2.19q.09-.38 .34-.8l-.14-.1q-.33,.41 -.5,.8q-.21,.82 -.23,2.29" fill="#803380"></path><path d="M51.72,36.98l.12,0q.07-1.29 .27-1.84q.1-.58 .4-1.16l-.14-.08q-.37,.57 -.56,1.16q-.09,.61 -.09,1.92" fill="#803380"></path><path d="M52.34,38l.12-.02q-.1-.63 .06-1.62q.07-.85 .39-2.02l-.14-.04q-.39,1.17 -.53,2.02q-.09,1.04 .1,1.68" fill="#803380"></path><path d="M52.93,39.03l.14-.04q-.46-1.56 .08-3.41q.08-.39 .29-.86l-.16-.08q-.27,.47 -.41,.86q-.48,1.93 .06,3.53" fill="#803380"></path><path d="M53.61,39.76l.1-.06q-.46-1.03 0-3.32q.05-.47 .24-1.02l-.16-.06q-.26,.55 -.38,1.02q-.38,2.37 .2,3.44" fill="#803380"></path><path d="M54.13,40.31l.1-.04q-.22-.59 -.14-1.16q.08-1.63 .32-2.84l-.18-.04q-.3,1.22 -.42,2.86q.01,.63 .32,1.22" fill="#803380"></path><path d="M54.79,40.58l.1-.06q-.3-.66 -.11-2.08q.06-.89 .23-1.44l-.18-.06q-.23,.56 -.35,1.46q-.11,1.49 .31,2.18" fill="#803380"></path><path d="M55.21,40.61l.1-.06q-.21-.47 -.06-2.04q-.01-.27 .12-.67l-.18-.06q-.17,.41 -.22,.71q-.09,1.62 .24,2.12" fill="#803380"></path><path d="M55.73,40.79l.18-.1q-.39-.73 -.22-1.69q.01-.27 .18-.58l-.16-.1q-.22,.33 -.3,.64q-.14,1.04 .32,1.83" fill="#803380"></path><path d="M56.34,40.89l.14-.12q-.08-.1 -.06-.14q-.46-1.17 -.23-1.42q.1-.16 .11-.23l-.14-.1q-.06,.03 -.19,.17q-.27,.41 .21,1.68q.05,.05 .16,.16" fill="#803380"></path><path d="M56.93,40.92l.08-.08q-.16-.2 -.15-.36q-.13-.44 -.04-1.12l-.18-.02q-.13,.7 -.04,1.2q.09,.19 .33,.38" fill="#803380"></path><path d="M57.42,41.11l.1-.2q-.15-.07 -.15-.17q-.12-.36 -.02-1.01l-.2-.04q-.13,.69 -.04,1.11q.08,.2 .31,.31" fill="#803380"></path><path d="M57.98,41.26l.12-.2q-.12-.08 -.11-.09q-.15-.26 -.14-.96l-.16,0q-.05,.73 .06,1.06q.06,.09 .23,.19" fill="#803380"></path><path d="M58.31,41.39l.2-.12q-.08-.13 -.1-.26q-.07-.19 -.04-.6l-.16-.02q-.07,.43 -.04,.68q.04,.16 .14,.32" fill="#803380"></path><path d="M58.85,41.46l-.14-.12q.06,.05 .03-.58l-.18,.02q.12,.77 .29,.68" fill="#803380"></path><path d="M59.05,41.35l.08-.08q-.06-.07 -.08-.36l-.16,.02q.05,.33 .16,.42" fill="#803380"></path><path d="M51.06,32.52l-.22-.08q.01,.09 -.06,.39l.12,.04q.1-.29 .16-.35" fill="#803380"></path><path d="M50.98,32.09l-.18-.12q-.09,.17 -.09,.24l.1,.06q.06-.03 .17-.18" fill="#803380"></path><path d="M78.88,41.88l-.02-.1q-.02,0 -.11-.07q-.12-.07 -.38-.39l-.06,.04q.25,.35 .36,.45q.13,.09 .21,.07" fill="#803380"></path><path d="M79.35,41.76l0-.06q-.16-.02 -.17-.06q-.49-.36 -.45-.39q.02-.08 .01-.11l-.06-.02q-.03,.02 -.07,.09q-.03,.14 .49,.53q.07,.02 .25,.02" fill="#803380"></path><path d="M79.85,41.69l.02-.06q-.3-.07 -.51-.34q-.15-.14 -.28-.4l-.08,.04q.12,.28 .26,.46q.27,.26 .59,.3" fill="#803380"></path><path d="M80.13,41.6l.02-.06q-.56-.23 -.68-.47q-.12-.19 -.17-.24l-.08,.04q.03,.07 .13,.26q.18,.25 .78,.47" fill="#803380"></path><path d="M80.5,41.42l-.04-.08q-.26,.1 -.61-.26q-.17-.14 -.32-.4l-.08,.04q.14,.29 .3,.46q.41,.37 .75,.24" fill="#803380"></path><path d="M80.73,41.34l0-.1q-.38-.03 -.63-.3q-.14-.12 -.29-.35l-.08,.06q.14,.24 .27,.39q.3,.29 .73,.3" fill="#803380"></path><path d="M81.01,41.18l.02-.1q-.56-.07 -.79-.34q-.13-.13 -.2-.28l-.08,.04q.06,.17 .18,.32q.29,.29 .87,.36" fill="#803380"></path><path d="M81.48,40.97l.02-.1q-.61-.1 -.75-.23q-.21-.16 -.37-.34l-.06,.04q.14,.22 .35,.4q.18,.13 .81,.23" fill="#803380"></path><path d="M81.91,40.72l0-.06q-.5-.03 -.86-.3q-.2-.11 -.41-.3l-.06,.06q.19,.21 .39,.36q.42,.24 .94,.24" fill="#803380"></path><path d="M82.15,40.21l0-.06q-.64-.03 -.85-.21q-.23-.16 -.32-.2l-.04,.06q.06,.07 .28,.24q.27,.17 .93,.17" fill="#803380"></path><path d="M82.36,39.86l0-.08q-.26-.02 -.53-.17q-.17-.07 -.38-.24l-.06,.06q.2,.2 .38,.3q.3,.14 .59,.13" fill="#803380"></path><path d="M82.56,39.56l0-.12q-.16,0 -.8-.28l-.04,.08q.65,.3 .84,.32" fill="#803380"></path><path d="M82.69,39.22l-.04-.06q-.05,.02 -.05-.01q-.18-.02 -.56-.23l-.04,.08q.38,.23 .58,.29q.04-.02 .11-.07" fill="#803380"></path><path d="M82.73,38.98l.02-.06q-.06-.01 -.52-.21l-.02,.06q.46,.2 .52,.21" fill="#803380"></path><path d="M82.83,38.66l-.02-.06q-.06,.01 -.47-.19l-.04,.08q.43,.2 .53,.17" fill="#803380"></path><path d="M82.92,38.47l0-.1q-.13,.01 -.43-.08l-.02,.06q.3,.11 .45,.12" fill="#803380"></path><path d="M57.98,42.06l0-.2q-4.37-.07 -5.82-.18q-.8,0 -.75,.14q.42,.18 .59,.2q4.3,.35 3.52,.24q-.77,0 -3.89-.18l-.02,.2q3.13,.19 3.91,.2q.98-.1 -3.5-.66q-.13-.01 -.53-.18q.04,.13 .65,.24q1.46,.11 5.84,.18" fill="#803380"></path><path d="M82.88,42.42l.08,.18q.43-.26 .25-.37q-.94,0 -1.25-.01q-2.48-.09 -3.3,.05q-.6,.09 -.8,.12l.04,.26q.2-.04 .8-.14q.79-.13 3.26-.05q.31,.01 1.25,.01q-.02-.11 -.33-.05" fill="#803380"></path><path d="M82.38,42.92l0-.2q-4.6,.06 -3.75,.03q.37-.06 1.24-.17l-.02-.2q-.88,.11 -1.26,.17q-1.01,.26 3.79,.37" fill="#803380"></path><path d="M52.52,25.07l-.34-.18q-.09,.16 -.06,.11q-.8,.79 -.48,1.86q.88,2.41 3.77,1.23q3.18-1.41 2.84-4.59q-.41-3.46 -1.08-4.66q-2.05-3.7 -2.14-5.03q-.17-1.65 1.06-1.75q1.53-.21 2.21,.6q.1,.03 .22,.44l.16-.04q-.08-.46 -.14-.62q-.8-.92 -2.49-.74q-1.48,.24 -1.4,2.13q.11,1.44 2.18,5.19q.62,1.13 1.02,4.52q.38,2.93 -2.6,4.17q-2.57,1.17 -3.21-.99q-.31-.83 .36-1.42q.03-.05 .12-.23" fill="#803380"></path><path d="M59.72,24.1l-.04,.34q.07,.01 .01,0q.6,.64 .34,1.12q-.48,1.19 -.83,.8q-.72-.5 .2-1.79q.05-.18 .26-.33l-.08-.14q-.29,.1 -.48,.27q-.97,1.52 -.12,2.27q.7,.44 1.39-.92q.29-.72 -.38-1.54q-.11-.07 -.27-.08" fill="#803380"></path><path d="M60.24,26.84l.32,.12q.51-1.37 .63-1.85q.01-.19 -.03-.27l-.16-.04q-.07,.05 -.15,.23q-.11,.46 -.61,1.81" fill="#803380"></path><path d="M61.32,27.17l.14,0q.04-.08 .12-.04q1.07-2.66 -.13-2.41q-.24,.13 -.56,.47l.16,.16q.3-.28 .5-.29q.78-.38 -.33,1.91q.05,.09 .1,.2" fill="#803380"></path><path d="M62.33,27.75l.32,.14q.8-1.86 .56-2.52q-.41-.82 -1.05-.3q-.18,.23 -.21,.33l.14,.14q.1-.03 .33-.21q.29-.42 .45,.18q.22,.47 -.54,2.24" fill="#803380"></path><path d="M64.69,28.32l.02-.14q-.76-.12 -.74-.38q-.65-1.6 .06-1.8q.82-.41 .75,.25q.1,.35 -.65,.13q-.23-.01 -.67-.23l-.12,.2q.45,.29 .71,.39q1.04,.17 1.11-.51q-.11-.98 -1.27-.61q-.96,.46 -.3,2.32q.24,.32 1.1,.38" fill="#803380"></path><path d="M67.9,29.36l-.22,.34q.1,.07 .16,.09q1.34,.5 1.54,.23q.86-2.39 1.21-3.16q.49-1.15 .27-1.29q-.26,.08 -1.23-.09l-.04,.16q.99,.23 1.29,.27q-.15-.15 -.61,.81q-.36,.78 -1.23,3.18q.11-.02 -1.06-.49q0,0 -.08-.05" fill="#803380"></path><path d="M71.65,23.25l-.32,.22q.1-.08 -.34,.86l.14,.06q.49-.95 .52-1.14" fill="#803380"></path><path d="M72.16,31.81l.14-.36q-1.6-.61 -2.07-1.12q-.11-.02 .58-1.55q1.17-2.65 1.47-2.52q.15-.04 1.13,.36l.06-.14q-.97-.46 -1.13-.56q-.59-.05 -1.85,2.72q-.72,1.63 -.54,1.93q.55,.6 2.21,1.24" fill="#803380"></path><path d="M74.56,27.26l-.08,.3q1.28,.33 1.7,1.21q.47,.8 -1.31,3.98q-.36,.8 -1.45-.18q-.57-.43 -.33-1.14q.31-1.26 1.59-4.09l-.16-.08q-1.36,2.82 -1.79,4.07q-.25,.92 .45,1.54q1.37,1.05 2.01,.06q1.83-3.3 1.33-4.34q-.56-.98 -1.96-1.33" fill="#803380"></path><path d="M77.27,35.37l.32,.2q.69-1.14 .7-1.16q1.82-3.67 1.44-4.29q-.74-.99 -1.83-1.27q-.23,0 -.56,.11l.04,.16q.29-.03 .44,.07q.97,.24 1.61,1.15q.31,.34 -1.48,3.89q0,0 -.68,1.14" fill="#803380"></path><path d="M75.25,33.95l-.18,.12q.07,.14 .15,.22q1.08,.2 1.35-.41q.77-2.27 1.2-2.91q.65-1.01 .58-1.44q-.06-.15 -.13-.19l-.16,.04q-.05,.06 -.05,.21q.07,.27 -.54,1.18q-.45,.7 -1.24,2.99q-.08,.4 -.93,.17q.01,.07 -.05,.02" fill="#803380"></path><path d="M76.61,35.31l.04,.14q.21-.06 .78,.05l.04-.16q-.61-.11 -.86-.03" fill="#803380"></path><path d="M57.49,32.92l.32,.12q.88-2.15 1.27-3.56q.04-.29 .01-.4l-.2-.06q-.08,.08 -.19,.36q-.35,1.39 -1.21,3.54" fill="#803380"></path><path d="M58.61,33.69l.36,.14q.85-2.54 -.25-2.4q-.31,.11 -.73,.42l.12,.18q.41-.23 .69-.26q.71-.28 -.19,1.92" fill="#803380"></path><path d="M61.01,34.47l0-.14q-.59-.05 -.66-.21q-.84-.54 -.33-1.26q.41-.79 .64-.34q.37,.38 .13,.34q-.4,.15 -1.29-.14l-.08,.22q.94,.35 1.45,.28q.52-.23 .09-.92q-.57-.61 -1.26,.36q-.56,1 .43,1.78q.24,.06 .88,.03" fill="#803380"></path><path d="M61.42,34.5l.34,.1q.4-1.42 .49-1.9l-.18-.06q-.19,.46 -.65,1.86" fill="#803380"></path><path d="M63.26,33.36l.14-.04q-.13-.71 -.68-.77q-.32,.08 -.83,.44l.12,.18q.49-.28 .73-.24q.37-.13 .52,.43" fill="#803380"></path><path d="M64.63,35.65l.08-.36q-1.72-.33 -1.35-.97q.41-1.12 .75-.79q.41,.17 .13,.26q-.54,.43 -.63,.23q-.25-.24 -.36-.3l-.16,.14q.04,.12 .24,.4q.37,.34 1.13-.15q.45-.43 -.13-.9q-.73-.36 -1.33,.95q-.32,1.02 1.63,1.49" fill="#803380"></path><path d="M65.49,35.7q0,.14 -.14,.14q-.14,0 -.14-.14q0-.14 .14-.14q.14,0 .14,.14" fill="#803380"></path><path d="M57.7475,43.565l-.075-.325q-.6625,.1375 -.875,.125q-.6625,.025 -1.2875,.225l.05,.175q.6-.1375 1.2375-.075q.25,.0125 .95-.125" fill="#803380"></path><path d="M58.1475,45.5025l.2-.3q-.2-.125 -.2375-.175q-.5125-.4375 -1.825-1.4l-.1,.125q1.2625,1 1.675,1.525q.075,.075 .2875,.225" fill="#803380"></path><path d="M58.0475,45.1775l.05,.2q.1125-.075 1.3625-1.8l-.125-.075q-1.2375,1.7 -1.2875,1.675" fill="#803380"></path><path d="M57.8725,49.3525l.325,0q-.025-2.45 -.0625-3.275q-.0625-.35 .0125-.8875l-.15-.025q-.1625,.55 -.1875,.9375q.0375,.8 .0625,3.25" fill="#803380"></path><path d="M59.66,43.6025l.1-.3q-.3-.0625 -1.1125,.075l.025,.175q.775-.075 .9875,.05" fill="#803380"></path><path d="M59.135,49.5275l-.1-.325q-.2,.1125 -1.775,.125l0,.2q1.6,.0125 1.875,0" fill="#803380"></path><path d="M59.335,46.64l.075,.1q.125-.0375 .175,.0125q.775-.2875 .7625,.525q.1125,1.0125 -.35,.875q-.8125-.075 -.6125-.8125q.1375-.725 .0875-.65q.15-.0125 .2-.0375l.025-.175q-.0375-.0375 -.175-.0875q-.25,.05 -.4375,.9q-.15,.975 .8625,1.1625q.75,.0375 .725-1.2q-.125-1.05 -1.1875-.8q-.0375,.075 -.15,.1875" fill="#803380"></path><path d="M59.41,48.215l.2-.25q-.15-.025 -.2-1.1l-.175,0q.0125,1.1375 .175,1.35" fill="#803380"></path><path d="M61.9975,46.49l-.15,.3q.325,.1 -.025,.75q-.3125,.875 -.4875,.275q-.1625-.2375 -.1-1.1625l-.175-.025q-.1,.975 0,1.3125q.475,.8 1.0625-.25q.375-.875 -.125-1.2" fill="#803380"></path><path d="M62.5975,48.1275l.35,.025q-.075-.0375 -.1375-1.6125l-.175,0q.0375,1.575 -.0375,1.5875" fill="#803380"></path><path d="M63.3725,46.765l.275-.225q-.5375-.6125 -.975-.3q-.25,.2625 -.3125,.3875l.125,.125q.125-.0375 .4125-.2625q.15-.2125 .475,.275" fill="#803380"></path><path d="M68.585,48.665l.375,0q-.0625-3.3125 -.1-4.425l-.175,0q-.0875,1.1 -.1,4.425" fill="#803380"></path><path d="M68.7725,45.7525l.025,.35q1.2375-.125 1.5-.45q.575-.9 -.15-1.4875q-.5375-.3125 -2.075-.3125l0,.2q1.475,.0375 1.875,.3875q.6,.35 .075,1.0125q-.1125,.2125 -1.25,.3" fill="#803380"></path><path d="M74.81,44.2275l-.35-.075q-.6375,3.2625 -.925,4.3125q-.0125,.55 -.0875-.4375q-.2375-1.2 -.3875-1.3125q-.3625-.0125 -.475,.1625q-.5125,2.0125 -.3875,1.9375q-.1-.075 -1.0625-4.475l-.15,.025q.925,4.425 .9125,4.575q.275,.275 1.0125-1.9625q-.075,.0375 .1,.0875q-.125-.1125 .1125,1.0375q.375,1.2625 .7375,.4625q.3125-1.075 .95-4.3375" fill="#803380"></path><path d="M78.485,48.7775l-.1,.075q.175,.15 .2875-.025q-.975-2.1375 -1.2625-2.85q-.925-2.1375 -1.1875-1.9125q-.05,.35 -.875,4.3125l.15,.025q.85-3.95 1.05-4.2125q-.1625-.025 .5375,1.9125q.2875,.7375 1.2625,2.875q.1375-.125 .1375-.2" fill="#803380"></path><path d="M77.4725,46.99l.225-.3q-.1875-.0375 -2.0625-.125l0,.175q1.8375,.1375 1.8375,.25" fill="#803380"></path><path d="M45.8,52.5l.8,.4q.9-1.5 3-4.5l-1.2-.8q-1.9,3.2 -2.6,4.9" fill="#ffff0080"></path><path d="M52.4,56l.6-.8q-.2-.1 -.2-5.2l-1.4,0q.2,5.5 1,6" fill="#ffff0080"></path><path d="M83.2,54.8l1.6-.4q-.8-3.8 -1-5.1l-1.4,.2q.1,1.3 .8,5.3" fill="#ffff0080"></path><path d="M89.7,7.2L89.1,6.6Q88.4,7.2 84.9,9.9L85.5,10.7Q89,8 89.7,7.2" fill="#ffff0080"></path><path d="M55.74,15.66l-.14-.02q0,.23 .24,.16q.22-1.14 .58-2.1q.23-.77 .8-1.82l-.16-.1q-.66,1.03 -1,1.78q-.37,1 -.6,2.16q.23-.01 .28-.06" fill="#803380"></path><path d="M56.58,12.09l-.06-.32q-.28,.1 -1.32,.79l.1,.16q1.04-.64 1.28-.63" fill="#803380"></path><path d="M56.7,12.23l-.12-.32q-.4,.21 -1.4,.87l.12,.18q1-.62 1.4-.73" fill="#803380"></path><path d="M56.56,12.38l-.06-.12q-.6,.29 -1.5,.8l.12,.18q.87-.53 1.44-.86" fill="#803380"></path><path d="M56.21,12.77l-.06-.12q-.41,.21 -.46,.15q-.28,.2 -.65,.58l.12,.14q.4-.31 .69-.44q-.03-.07 .36-.31" fill="#803380"></path><path d="M55.16,13.67l.34,.06q-.07-.04 .95-.98l-.14-.14q-1.05,.94 -1.15,1.06" fill="#803380"></path><path d="M54.98,14.23l.36-.06q-.04-.09 .13-.26q.18-.25 .85-.74l-.12-.18q-.72,.46 -.99,.68q-.25,.28 -.23,.56" fill="#803380"></path><path d="M55.18,14.51l.24-.02q.02-.08 .06-.05q.1-.33 .73-1l-.16-.16q-.7,.66 -.91,1q.01,.09 .04,.23" fill="#803380"></path><path d="M55.1,15.06l.32,.06q.04-.2 .11-.34q.06-.23 .67-1.06l-.2-.14q-.64,.82 -.79,1.06q-.07,.18 -.11,.42" fill="#803380"></path><path d="M55.48,15.44l.26-.12q-.08-.08 .22-.98l-.2-.08q-.35,.95 -.28,1.18" fill="#803380"></path><path d="M54.74,28.07l-.18,.32q.74,.26 2.79-4.92q.32-.96 .39-2.13l-.2-.02q-.14,1.13 -.53,2.01q-1.95,5.04 -2.27,4.74" fill="#803380"></path><path d="M55.46,28.04l.06-.3q-.02,.07 -.21-.42l-.18,.06q.19,.56 .33,.66" fill="#803380"></path><path d="M55.72,27.75l-.14-.3q.12,.1 .02-.44l-.18,.04q.11,.63 .3,.7" fill="#803380"></path><path d="M56.1,27.38l-.34-.08q.16,.04 .09-.87l-.24,.04q.26,1.12 .49,.91" fill="#803380"></path><path d="M55.97,27.11l.22,.28q.01-.14 -.05-1.13l-.22,.02q.05,.96 .05,.83" fill="#803380"></path><path d="M56.58,26.97l-.12-.06q-.02,.08 .15,.07q-.12-.16 -.26-1.36l-.24,.02q.11,1.23 .18,1.48q.19,.05 .29-.15" fill="#803380"></path><path d="M56.7,26.62l.34-.08q-.26-1.05 -.37-1.39l-.24,.06q.05,.36 .27,1.41" fill="#803380"></path><path d="M57.11,26.39l.08-.36q-.01,.12 -.23-1.42l-.22,.02q.22,1.61 .37,1.76" fill="#803380"></path><path d="M57.65,25.64l-.24-.08q.22-.03 .01-1.84l-.24,.04q.25,1.92 .47,1.88" fill="#803380"></path><path d="M57.58,25.32l.32-.02q-.05-1.23 -.17-1.64q-.16-.47 -.25-.61l-.22,.06q.01,.17 .13,.65q.12,.36 .19,1.56" fill="#803380"></path><path d="M57.48,25.3l.2,.08q.1-.2 .14-.3q.14-2.21 .05-2.45q-.11-.18 -.17-.23l-.2,.1q0,.07 .07,.27q.09,.12 -.05,2.29q.03,.05 -.04,.24" fill="#803380"></path><path d="M57.11,26.03l.34,.02q.15-1.9 .21-2.66l-.22-.02q-.13,.75 -.33,2.66" fill="#803380"></path><path d="M57.12,24.81l.26-.02q-.2-1.05 -.4-.74q-.03,2.23 .14,1.92q-.15-1.78 -.26-1.6q.17,.63 .26,.83l.18-.04q-.01-.22 -.14-.87q-.26-.45 -.4,1.68q.18,.65 .56-1.9q-.16-.06 -.2,.74" fill="#803380"></path><path d="M59.29,26.38l-.18-.26q.06,.14 .29-1.63l-.2-.02q-.18,1.92 .09,1.91" fill="#803380"></path><path d="M58.76,26.34l.34,0q-.04-.23 .04-1.34l-.2-.02q-.13,1.11 -.18,1.36" fill="#803380"></path><path d="M59,26.39l.22-.14q-.08-.07 .08-1.08l-.2-.04q-.18,1.06 -.1,1.26" fill="#803380"></path><path d="M61.01,25.04l-.32-.1q-.47,2.07 -.25,1.82q-.01-.28 .51-1.88l-.14-.04q-.57,1.59 -.69,1.86q.03,.64 .89-1.66" fill="#803380"></path><path d="M62.32,27.33l.28,.22q.16-.23 .23-.57q.2-1.12 .04-.98q-.06-.04 -.11-.23q-.82,2.28 -.33,1.85q.1-.27 .45-2.12l-.18-.04q-.39,1.82 -.57,1.98q0,.32 .95-1.53q-.04-.21 -.23-.25q-.16,.14 -.36,1.26q-.04,.27 -.17,.41" fill="#803380"></path><path d="M63.66,27.85l.32-.12q-.19-.35 .08-1.95l-.2-.04q-.32,1.64 -.2,2.11" fill="#803380"></path><path d="M64,28.27l.2-.2q-.11-.13 -.11-.17q-.23-.32 -.31-1.77l-.18,0q.03,1.5 .19,1.93q.06,.07 .21,.21" fill="#803380"></path><path d="M64.6,28.07l-.12,.08q.12,.1 -.33-.11q-.54-.1 -.63-.45q-.17-.3 .18-1.54l-.2-.06q-.4,1.29 -.32,1.72q.2,.51 .89,.67q.75,.05 .53-.31" fill="#803380"></path><path d="M69.21,29.7l-.34,.06q.27,.51 1.66-3.49q.01-.23 -.09-.53l-.16,.04q.02,.25 -.09,.39q-1.1,3.76 -.98,3.53" fill="#803380"></path><path d="M70.48,30.8l-.18-.3q.19,.07 .3,0q1.43-3.68 1.56-3.94q.04-.17 .18-.36l-.12-.12q-.22,.16 -.36,.32q-.15,.29 -1.58,3.98q-.07,.4 .2,.42" fill="#803380"></path><path d="M72.91,31.95l.16,.3q.01-.12 1.85-4.79l-.16-.06q-1.85,4.66 -1.85,4.55" fill="#803380"></path><path d="M74.61,33.15l-.32,.1q.21,.13 .62-.65q.52-1.31 1.45-4.16l-.16-.06q-.98,2.83 -1.59,4.08q-.2,.6 0,.69" fill="#803380"></path><path d="M75.77,34.07l.26,.2q.13-.19 .34-.69q1.32-3.34 1.71-4.47l-.14-.06q-.49,1.09 -1.87,4.41q-.19,.47 -.3,.61" fill="#803380"></path><path d="M77.16,35.31l.3,.14q1.62-3.62 2.13-4.84q.03-.18 .02-.5l-.16-.02q-.05,.29 -.14,.4q-.52,1.21 -2.15,4.82" fill="#803380"></path><path d="M59.08,29.08l-.12-.3q-.17,.12 -.66,.17l.02,.2q.52-.01 .76-.07" fill="#803380"></path><path d="M57.39,33.08l0-.14q-.09,.06 -.12,.23q.68-.12 1.56-3.24q.09-.46 .28-.89l-.16-.08q-.27,.41 -.44,.87q-.84,3.01 -1.28,3q-.1,.18 .16,.25" fill="#803380"></path><path d="M58.39,33.25l.28,.12q.3-.65 .24-1.14q-.06-.17 -.12-.23l-.18,.04q-.04,.06 -.04,.25q.08,.38 -.18,.96" fill="#803380"></path><path d="M58.44,33.15l.3,.12q0-.14 .15-1.47l-.2-.02q-.17,1.31 -.25,1.37" fill="#803380"></path><path d="M58.63,33.54l.08-.1q-.39-.25 -.4-.01q.4,.2 .54,.1q-.15-.06 -.4-.24l-.12,.14q.21,.23 .32,.36q.33,.05 -.1-.6q-.11,.13 .08,.35" fill="#803380"></path><path d="M58.5,33.44l.3,.04q.19-2.24 -.07-1.71q-.03,.21 -.01,.28l.18,.04q.05-.06 .11-.26q-.08-.29 -.51,1.61" fill="#803380"></path><path d="M58.57,33.28l.26,.08q.18-.64 .26-1.44l-.22-.02q-.1,.78 -.3,1.38" fill="#803380"></path><path d="M60.05,33.99l.14-.04q-.11-.54 .04-1.63l-.18-.02q-.14,1.12 0,1.69" fill="#803380"></path><path d="M59.68,33.84l.28-.04q-.05-.38 -.01-.45q.1-.3 .12-.4l-.18-.08q-.06,.09 -.2,.36q-.06,.17 -.01,.61" fill="#803380"></path><path d="M61.28,34.27l.18,.2q.03-.08 .58-1.83l-.18-.06q-.56,1.73 -.58,1.69" fill="#803380"></path><path d="M61.61,34.65l.16-.2q-.09-.1 -.13-.14q-.26-.11 -.37-.12l-.08,.16q.06,.08 .29,.24q.03-.01 .13,.06" fill="#803380"></path><path d="M63.37,35.02l.1-.1q-.19-.24 -.11-.28q.02-.41 .27-1.16l-.18-.06q-.31,.74 -.41,1.18q.05,.17 .33,.42" fill="#803380"></path><path d="M63.33,34.96l.28-.1q-.11-.19 .05-1.29l-.18-.02q-.2,1.12 -.15,1.41" fill="#803380"></path><path d="M-25.5,-161.8l-.6-.4q0,.7 .8,.6q2.4-.8 16.4-.8q9.7,0 12.4,1.9q3.2,2.3 3.2,11.9q0,11.7 -.4,14q-.5,3.3 -2.7,3.9q-.4,.2 -19.8-.1q-3.8,0 -6.5-1.7q-2.2-1.4 -2.9-6q-.2-.6 -.2-17.6q-.1-2.1 .5-5.7l-.4,0q-.6,3.6 -.7,5.7q-.1,17 0,17.8q.8,4.8 3.3,6.4q2.9,1.8 6.9,1.9q19.4,.3 20,.1q2.6-.9 3.3-4.5q.4-2.4 .4-14.2q0-9.9 -3.6-12.5q-2.9-2.1 -12.8-2.1q-14.1,0 -16.6,.8q-.1,.3 0,.6" fill="#803380"></path><path d="M-25.79,-138.53l.12,.02q.11-.49 .4-1.16l-.14-.06q-.28,.69 -.38,1.2" fill="#803380"></path><path d="M-25.63,-137.78l.12,.02q.08-.45 .16-.57q.12-.55 .41-1.13l-.14-.08q-.35,.58 -.53,1.13q0,.17 -.02,.63" fill="#803380"></path><path d="M-25.51,-136.66l.12,0q.08-.64 .17-.87q.12-.72 .52-1.59l-.18-.08q-.43,.87 -.6,1.61q-.01,.27 -.03,.93" fill="#803380"></path><path d="M-25.25,-135.79l.12,0q.09-1.44 .41-2.19q.09-.38 .34-.8l-.14-.1q-.33,.41 -.5,.8q-.21,.82 -.23,2.29" fill="#803380"></path><path d="M-24.88,-135.12l.12,0q.07-1.29 .27-1.84q.1-.58 .4-1.16l-.14-.08q-.37,.57 -.56,1.16q-.09,.61 -.09,1.92" fill="#803380"></path><path d="M-24.26,-134.1l.12-.02q-.1-.63 .06-1.62q.07-.85 .39-2.02l-.14-.04q-.39,1.17 -.53,2.02q-.09,1.04 .1,1.68" fill="#803380"></path><path d="M-23.67,-133.07l.14-.04q-.46-1.56 .08-3.41q.08-.39 .29-.86l-.16-.08q-.27,.47 -.41,.86q-.48,1.93 .06,3.53" fill="#803380"></path><path d="M-22.99,-132.34l.1-.06q-.46-1.03 0-3.32q.05-.47 .24-1.02l-.16-.06q-.26,.55 -.38,1.02q-.38,2.37 .2,3.44" fill="#803380"></path><path d="M-22.47,-131.79l.1-.04q-.22-.59 -.14-1.16q.08-1.63 .32-2.84l-.18-.04q-.3,1.22 -.42,2.86q.01,.63 .32,1.22" fill="#803380"></path><path d="M-21.81,-131.52l.1-.06q-.3-.66 -.11-2.08q.06-.89 .23-1.44l-.18-.06q-.23,.56 -.35,1.46q-.11,1.49 .31,2.18" fill="#803380"></path><path d="M-21.39,-131.49l.1-.06q-.21-.47 -.06-2.04q-.01-.27 .12-.67l-.18-.06q-.17,.41 -.22,.71q-.09,1.62 .24,2.12" fill="#803380"></path><path d="M-20.87,-131.31l.18-.1q-.39-.73 -.22-1.69q.01-.27 .18-.58l-.16-.1q-.22,.33 -.3,.64q-.14,1.04 .32,1.83" fill="#803380"></path><path d="M-20.26,-131.21l.14-.12q-.08-.1 -.06-.14q-.46-1.17 -.23-1.42q.1-.16 .11-.23l-.14-.1q-.06,.03 -.19,.17q-.27,.41 .21,1.68q.05,.05 .16,.16" fill="#803380"></path><path d="M-19.67,-131.18l.08-.08q-.16-.2 -.15-.36q-.13-.44 -.04-1.12l-.18-.02q-.13,.7 -.04,1.2q.09,.19 .33,.38" fill="#803380"></path><path d="M-19.18,-130.99l.1-.2q-.15-.07 -.15-.17q-.12-.36 -.02-1.01l-.2-.04q-.13,.69 -.04,1.11q.08,.2 .31,.31" fill="#803380"></path><path d="M-18.62,-130.84l.12-.2q-.12-.08 -.11-.09q-.15-.26 -.14-.96l-.16,0q-.05,.73 .06,1.06q.06,.09 .23,.19" fill="#803380"></path><path d="M-18.29,-130.71l.2-.12q-.08-.13 -.1-.26q-.07-.19 -.04-.6l-.16-.02q-.07,.43 -.04,.68q.04,.16 .14,.32" fill="#803380"></path><path d="M-17.75,-130.64l-.14-.12q.06,.05 .03-.58l-.18,.02q.12,.77 .29,.68" fill="#803380"></path><path d="M-17.55,-130.75l.08-.08q-.06-.07 -.08-.36l-.16,.02q.05,.33 .16,.42" fill="#803380"></path><path d="M-25.54,-139.58l-.22-.08q.01,.09 -.06,.39l.12,.04q.1-.29 .16-.35" fill="#803380"></path><path d="M-25.62,-140.01l-.18-.12q-.09,.17 -.09,.24l.1,.06q.06-.03 .17-.18" fill="#803380"></path><path d="M2.28,-130.22L2.26,-130.32Q2.24,-130.32 2.15,-130.39Q2.03,-130.46 1.77,-130.78L1.71,-130.74Q1.96,-130.39 2.07,-130.29Q2.2,-130.2 2.28,-130.22" fill="#803380"></path><path d="M2.75,-130.34L2.75,-130.4Q2.59,-130.42 2.58,-130.46Q2.09,-130.82 2.13,-130.85Q2.15,-130.93 2.14,-130.96L2.08,-130.98Q2.05,-130.96 2.01,-130.89Q1.98,-130.75 2.5,-130.36Q2.57,-130.34 2.75,-130.34" fill="#803380"></path><path d="M3.25,-130.41L3.27,-130.47Q2.97,-130.54 2.76,-130.81Q2.61,-130.95 2.48,-131.21L2.4,-131.17Q2.52,-130.89 2.66,-130.71Q2.93,-130.45 3.25,-130.41" fill="#803380"></path><path d="M3.53,-130.5L3.55,-130.56Q2.99,-130.79 2.87,-131.03Q2.75,-131.22 2.7,-131.27L2.62,-131.23Q2.65,-131.16 2.75,-130.97Q2.93,-130.72 3.53,-130.5" fill="#803380"></path><path d="M3.9,-130.68L3.86,-130.76Q3.6,-130.66 3.25,-131.02Q3.08,-131.16 2.93,-131.42L2.85,-131.38Q2.99,-131.09 3.15,-130.92Q3.56,-130.55 3.9,-130.68" fill="#803380"></path><path d="M4.13,-130.76L4.13,-130.86Q3.75,-130.89 3.5,-131.16Q3.36,-131.28 3.21,-131.51L3.13,-131.45Q3.27,-131.21 3.4,-131.06Q3.7,-130.77 4.13,-130.76" fill="#803380"></path><path d="M4.41,-130.92L4.43,-131.02Q3.87,-131.09 3.64,-131.36Q3.51,-131.49 3.44,-131.64L3.36,-131.6Q3.42,-131.43 3.54,-131.28Q3.83,-130.99 4.41,-130.92" fill="#803380"></path><path d="M4.88,-131.13L4.9,-131.23Q4.29,-131.33 4.15,-131.46Q3.94,-131.62 3.78,-131.8L3.72,-131.76Q3.86,-131.54 4.07,-131.36Q4.25,-131.23 4.88,-131.13" fill="#803380"></path><path d="M5.31,-131.38L5.31,-131.44Q4.81,-131.47 4.45,-131.74Q4.25,-131.85 4.04,-132.04L3.98,-131.98Q4.17,-131.77 4.37,-131.62Q4.79,-131.38 5.31,-131.38" fill="#803380"></path><path d="M5.55,-131.89L5.55,-131.95Q4.91,-131.98 4.7,-132.16Q4.47,-132.32 4.38,-132.36L4.34,-132.3Q4.4,-132.23 4.62,-132.06Q4.89,-131.89 5.55,-131.89" fill="#803380"></path><path d="M5.76,-132.24L5.76,-132.32Q5.5,-132.34 5.23,-132.49Q5.06,-132.56 4.85,-132.73L4.79,-132.67Q4.99,-132.47 5.17,-132.37Q5.47,-132.23 5.76,-132.24" fill="#803380"></path><path d="M5.96,-132.54L5.96,-132.66Q5.8,-132.66 5.16,-132.94L5.12,-132.86Q5.77,-132.56 5.96,-132.54" fill="#803380"></path><path d="M6.09,-132.88L6.05,-132.94Q6,-132.92 6,-132.95Q5.82,-132.97 5.44,-133.18L5.4,-133.1Q5.78,-132.87 5.98,-132.81Q6.02,-132.83 6.09,-132.88" fill="#803380"></path><path d="M6.13,-133.12L6.15,-133.18Q6.09,-133.19 5.63,-133.39L5.61,-133.33Q6.07,-133.13 6.13,-133.12" fill="#803380"></path><path d="M6.23,-133.44L6.21,-133.5Q6.15,-133.49 5.74,-133.69L5.7,-133.61Q6.13,-133.41 6.23,-133.44" fill="#803380"></path><path d="M6.32,-133.63L6.32,-133.73Q6.19,-133.72 5.89,-133.81L5.87,-133.75Q6.17,-133.64 6.32,-133.63" fill="#803380"></path><path d="M-18.62,-130.04l0-.2q-4.37-.07 -5.82-.18q-.8,0 -.75,.14q.42,.18 .59,.2q4.3,.35 3.52,.24q-.77,0 -3.89-.18l-.02,.2q3.13,.19 3.91,.2q.98-.1 -3.5-.66q-.13-.01 -.53-.18q.04,.13 .65,.24q1.46,.11 5.84,.18" fill="#803380"></path><path d="M6.28,-129.68L6.36,-129.5Q6.79,-129.76 6.61,-129.87Q5.67,-129.87 5.36,-129.88Q2.88,-129.97 2.06,-129.83Q1.46,-129.74 1.26,-129.71L1.3,-129.45Q1.5,-129.49 2.1,-129.59Q2.89,-129.72 5.36,-129.64Q5.67,-129.63 6.61,-129.63Q6.59,-129.74 6.28,-129.68" fill="#803380"></path><path d="M5.78,-129.18L5.78,-129.38Q1.18,-129.32 2.03,-129.35Q2.4,-129.41 3.27,-129.52L3.25,-129.72Q2.37,-129.61 1.99,-129.55Q.98,-129.29 5.78,-129.18" fill="#803380"></path><path d="M-24.08,-147.03l-.34-.18q-.09,.16 -.06,.11q-.8,.79 -.48,1.86q.88,2.41 3.77,1.23q3.18-1.41 2.84-4.59q-.41-3.46 -1.08-4.66q-2.05-3.7 -2.14-5.03q-.17-1.65 1.06-1.75q1.53-.21 2.21,.6q.1,.03 .22,.44l.16-.04q-.08-.46 -.14-.62q-.8-.92 -2.49-.74q-1.48,.24 -1.4,2.13q.11,1.44 2.18,5.19q.62,1.13 1.02,4.52q.38,2.93 -2.6,4.17q-2.57,1.17 -3.21-.99q-.31-.83 .36-1.42q.03-.05 .12-.23" fill="#803380"></path><path d="M-16.88,-148l-.04,.34q.07,.01 .01,0q.6,.64 .34,1.12q-.48,1.19 -.83,.8q-.72-.5 .2-1.79q.05-.18 .26-.33l-.08-.14q-.29,.1 -.48,.27q-.97,1.52 -.12,2.27q.7,.44 1.39-.92q.29-.72 -.38-1.54q-.11-.07 -.27-.08" fill="#803380"></path><path d="M-16.36,-145.26l.32,.12q.51-1.37 .63-1.85q.01-.19 -.03-.27l-.16-.04q-.07,.05 -.15,.23q-.11,.46 -.61,1.81" fill="#803380"></path><path d="M-15.28,-144.93l.14,0q.04-.08 .12-.04q1.07-2.66 -.13-2.41q-.24,.13 -.56,.47l.16,.16q.3-.28 .5-.29q.78-.38 -.33,1.91q.05,.09 .1,.2" fill="#803380"></path><path d="M-14.27,-144.35l.32,.14q.8-1.86 .56-2.52q-.41-.82 -1.05-.3q-.18,.23 -.21,.33l.14,.14q.1-.03 .33-.21q.29-.42 .45,.18q.22,.47 -.54,2.24" fill="#803380"></path><path d="M-11.91,-143.78l.02-.14q-.76-.12 -.74-.38q-.65-1.6 .06-1.8q.82-.41 .75,.25q.1,.35 -.65,.13q-.23-.01 -.67-.23l-.12,.2q.45,.29 .71,.39q1.04,.17 1.11-.51q-.11-.98 -1.27-.61q-.96,.46 -.3,2.32q.24,.32 1.1,.38" fill="#803380"></path><path d="M-8.7,-142.74L-8.92,-142.4Q-8.82,-142.33 -8.76,-142.31Q-7.42,-141.81 -7.22,-142.08Q-6.36,-144.47 -6.01,-145.24Q-5.52,-146.39 -5.74,-146.53Q-6,-146.45 -6.97,-146.62L-7.01,-146.46Q-6.02,-146.23 -5.72,-146.19Q-5.87,-146.34 -6.33,-145.38Q-6.69,-144.6 -7.56,-142.2Q-7.45,-142.22 -8.62,-142.69Q-8.62,-142.69 -8.7,-142.74" fill="#803380"></path><path d="M-4.95,-148.85L-5.27,-148.63Q-5.17,-148.71 -5.61,-147.77L-5.47,-147.71Q-4.98,-148.66 -4.95,-148.85" fill="#803380"></path><path d="M-4.44,-140.29L-4.3,-140.65Q-5.9,-141.26 -6.37,-141.77Q-6.48,-141.79 -5.79,-143.32Q-4.62,-145.97 -4.32,-145.84Q-4.17,-145.88 -3.19,-145.48L-3.13,-145.62Q-4.1,-146.08 -4.26,-146.18Q-4.85,-146.23 -6.11,-143.46Q-6.83,-141.83 -6.65,-141.53Q-6.1,-140.93 -4.44,-140.29" fill="#803380"></path><path d="M-2.04,-144.84L-2.12,-144.54Q-.84,-144.21 -.42,-143.33Q.05,-142.53 -1.73,-139.35Q-2.09,-138.55 -3.18,-139.53Q-3.75,-139.96 -3.51,-140.67Q-3.2,-141.93 -1.92,-144.76L-2.08,-144.84Q-3.44,-142.02 -3.87,-140.77Q-4.12,-139.85 -3.42,-139.23Q-2.05,-138.18 -1.41,-139.17Q.42,-142.47 -.08,-143.51Q-.64,-144.49 -2.04,-144.84" fill="#803380"></path><path d="M.67,-136.73L.99,-136.53Q1.68,-137.67 1.69,-137.69Q3.51,-141.36 3.13,-141.98Q2.39,-142.97 1.3,-143.25Q1.07,-143.25 .74,-143.14L.78,-142.98Q1.07,-143.01 1.22,-142.91Q2.19,-142.67 2.83,-141.76Q3.14,-141.42 1.35,-137.87Q1.35,-137.87 .67,-136.73" fill="#803380"></path><path d="M-1.35,-138.15L-1.53,-138.03Q-1.46,-137.89 -1.38,-137.81Q-.3,-137.61 -.030000000000012905,-138.22Q.74,-140.49 1.17,-141.13Q1.82,-142.14 1.75,-142.57Q1.69,-142.72 1.62,-142.76L1.46,-142.72Q1.41,-142.66 1.41,-142.51Q1.48,-142.24 .87,-141.33Q.42,-140.63 -.37,-138.34Q-.45,-137.94 -1.3,-138.17Q-1.29,-138.1 -1.35,-138.15" fill="#803380"></path><path d="M.01,-136.79L.05,-136.65Q.26,-136.71 .83,-136.6L.87,-136.76Q.26,-136.87 .01,-136.79" fill="#803380"></path><path d="M-19.11,-139.18l.32,.12q.88-2.15 1.27-3.56q.04-.29 .01-.4l-.2-.06q-.08,.08 -.19,.36q-.35,1.39 -1.21,3.54" fill="#803380"></path><path d="M-17.99,-138.41l.36,.14q.85-2.54 -.25-2.4q-.31,.11 -.73,.42l.12,.18q.41-.23 .69-.26q.71-.28 -.19,1.92" fill="#803380"></path><path d="M-15.59,-137.63l0-.14q-.59-.05 -.66-.21q-.84-.54 -.33-1.26q.41-.79 .64-.34q.37,.38 .13,.34q-.4,.15 -1.29-.14l-.08,.22q.94,.35 1.45,.28q.52-.23 .09-.92q-.57-.61 -1.26,.36q-.56,1 .43,1.78q.24,.06 .88,.03" fill="#803380"></path><path d="M-15.18,-137.6l.34,.1q.4-1.42 .49-1.9l-.18-.06q-.19,.46 -.65,1.86" fill="#803380"></path><path d="M-13.34,-138.74l.14-.04q-.13-.71 -.68-.77q-.32,.08 -.83,.44l.12,.18q.49-.28 .73-.24q.37-.13 .52,.43" fill="#803380"></path><path d="M-11.97,-136.45l.08-.36q-1.72-.33 -1.35-.97q.41-1.12 .75-.79q.41,.17 .13,.26q-.54,.43 -.63,.23q-.25-.24 -.36-.3l-.16,.14q.04,.12 .24,.4q.37,.34 1.13-.15q.45-.43 -.13-.9q-.73-.36 -1.33,.95q-.32,1.02 1.63,1.49" fill="#803380"></path><path d="M-11.11,-136.4q0,.14 -.14,.14q-.14,0 -.14-.14q0-.14 .14-.14q.14,0 .14,.14" fill="#803380"></path><path d="M-18.8525,-128.535l-.075-.325q-.6625,.1375 -.875,.125q-.6625,.025 -1.2875,.225l.05,.175q.6-.1375 1.2375-.075q.25,.0125 .95-.125" fill="#803380"></path><path d="M-18.4525,-126.5975l.2-.3q-.2-.125 -.2375-.175q-.5125-.4375 -1.825-1.4l-.1,.125q1.2625,1 1.675,1.525q.075,.075 .2875,.225" fill="#803380"></path><path d="M-18.5525,-126.9225l.05,.2q.1125-.075 1.3625-1.8l-.125-.075q-1.2375,1.7 -1.2875,1.675" fill="#803380"></path><path d="M-18.7275,-122.7475l.325,0q-.025-2.45 -.0625-3.275q-.0625-.35 .0125-.8875l-.15-.025q-.1625,.55 -.1875,.9375q.0375,.8 .0625,3.25" fill="#803380"></path><path d="M-16.94,-128.4975l.1-.3q-.3-.0625 -1.1125,.075l.025,.175q.775-.075 .9875,.05" fill="#803380"></path><path d="M-17.465,-122.5725l-.1-.325q-.2,.1125 -1.775,.125l0,.2q1.6,.0125 1.875,0" fill="#803380"></path><path d="M-17.265,-125.46l.075,.1q.125-.0375 .175,.0125q.775-.2875 .7625,.525q.1125,1.0125 -.35,.875q-.8125-.075 -.6125-.8125q.1375-.725 .0875-.65q.15-.0125 .2-.0375l.025-.175q-.0375-.0375 -.175-.0875q-.25,.05 -.4375,.9q-.15,.975 .8625,1.1625q.75,.0375 .725-1.2q-.125-1.05 -1.1875-.8q-.0375,.075 -.15,.1875" fill="#803380"></path><path d="M-17.19,-123.885l.2-.25q-.15-.025 -.2-1.1l-.175,0q.0125,1.1375 .175,1.35" fill="#803380"></path><path d="M-14.6025,-125.61l-.15,.3q.325,.1 -.025,.75q-.3125,.875 -.4875,.275q-.1625-.2375 -.1-1.1625l-.175-.025q-.1,.975 0,1.3125q.475,.8 1.0625-.25q.375-.875 -.125-1.2" fill="#803380"></path><path d="M-14.0025,-123.9725l.35,.025q-.075-.0375 -.1375-1.6125l-.175,0q.0375,1.575 -.0375,1.5875" fill="#803380"></path><path d="M-13.2275,-125.335l.275-.225q-.5375-.6125 -.975-.3q-.25,.2625 -.3125,.3875l.125,.125q.125-.0375 .4125-.2625q.15-.2125 .475,.275" fill="#803380"></path><path d="M-8.015,-123.435L-7.64,-123.435Q-7.7025,-126.7475 -7.74,-127.86L-7.915,-127.86Q-8.0025,-126.76 -8.015,-123.435" fill="#803380"></path><path d="M-7.8275,-126.3475L-7.8025,-125.9975Q-6.565,-126.1225 -6.3025,-126.4475Q-5.7275,-127.3475 -6.4525,-127.935Q-6.99,-128.2475 -8.5275,-128.2475L-8.5275,-128.0475Q-7.0525,-128.01 -6.6525,-127.66Q-6.0525,-127.31 -6.5775,-126.6475Q-6.69,-126.435 -7.8275,-126.3475" fill="#803380"></path><path d="M-1.79,-127.8725L-2.14,-127.9475Q-2.7775,-124.685 -3.065,-123.635Q-3.0775,-123.085 -3.1525,-124.0725Q-3.39,-125.2725 -3.54,-125.385Q-3.9025,-125.3975 -4.015,-125.2225Q-4.5275,-123.21 -4.4025,-123.285Q-4.5025,-123.36 -5.465,-127.76L-5.615,-127.735Q-4.69,-123.31 -4.7025,-123.16Q-4.4275,-122.885 -3.69,-125.1225Q-3.765,-125.085 -3.59,-125.035Q-3.715,-125.1475 -3.4775,-123.9975Q-3.1025,-122.735 -2.74,-123.535Q-2.4275,-124.61 -1.79,-127.8725" fill="#803380"></path><path d="M1.885,-123.3225L1.785,-123.2475Q1.96,-123.0975 2.0725,-123.2725Q1.0975,-125.41 .81,-126.1225Q-.115,-128.26 -.3775,-128.035Q-.4275,-127.685 -1.2525,-123.7225L-1.1025,-123.6975Q-.2525,-127.6475 -.0525,-127.91Q-.215,-127.935 .485,-125.9975Q.7725,-125.26 1.7475,-123.1225Q1.885,-123.2475 1.885,-123.3225" fill="#803380"></path><path d="M.8725,-125.11L1.0975,-125.41Q.91,-125.4475 -.965,-125.535L-.965,-125.36Q.8725,-125.2225 .8725,-125.11" fill="#803380"></path><path d="M-30.8,-119.6l.8,.4q.9-1.5 3-4.5l-1.2-.8q-1.9,3.2 -2.6,4.9" fill="#ffff0080"></path><path d="M-24.2,-116.1l.6-.8q-.2-.1 -.2-5.2l-1.4,0q.2,5.5 1,6" fill="#ffff0080"></path><path d="M6.6,-117.3L8.2,-117.7Q7.4,-121.5 7.2,-122.8L5.8,-122.6Q5.9,-121.3 6.6,-117.3" fill="#ffff0080"></path><path d="M13.1,-164.9L12.5,-165.5Q11.8,-164.9 8.3,-162.2L8.9,-161.4Q12.4,-164.1 13.1,-164.9" fill="#ffff0080"></path><path d="M-20.86,-156.44l-.14-.02q0,.23 .24,.16q.22-1.14 .58-2.1q.23-.77 .8-1.82l-.16-.1q-.66,1.03 -1,1.78q-.37,1 -.6,2.16q.23-.01 .28-.06" fill="#803380"></path><path d="M-20.02,-160.01l-.06-.32q-.28,.1 -1.32,.79l.1,.16q1.04-.64 1.28-.63" fill="#803380"></path><path d="M-19.9,-159.87l-.12-.32q-.4,.21 -1.4,.87l.12,.18q1-.62 1.4-.73" fill="#803380"></path><path d="M-20.04,-159.72l-.06-.12q-.6,.29 -1.5,.8l.12,.18q.87-.53 1.44-.86" fill="#803380"></path><path d="M-20.39,-159.33l-.06-.12q-.41,.21 -.46,.15q-.28,.2 -.65,.58l.12,.14q.4-.31 .69-.44q-.03-.07 .36-.31" fill="#803380"></path><path d="M-21.44,-158.43l.34,.06q-.07-.04 .95-.98l-.14-.14q-1.05,.94 -1.15,1.06" fill="#803380"></path><path d="M-21.62,-157.87l.36-.06q-.04-.09 .13-.26q.18-.25 .85-.74l-.12-.18q-.72,.46 -.99,.68q-.25,.28 -.23,.56" fill="#803380"></path><path d="M-21.42,-157.59l.24-.02q.02-.08 .06-.05q.1-.33 .73-1l-.16-.16q-.7,.66 -.91,1q.01,.09 .04,.23" fill="#803380"></path><path d="M-21.5,-157.04l.32,.06q.04-.2 .11-.34q.06-.23 .67-1.06l-.2-.14q-.64,.82 -.79,1.06q-.07,.18 -.11,.42" fill="#803380"></path><path d="M-21.12,-156.66l.26-.12q-.08-.08 .22-.98l-.2-.08q-.35,.95 -.28,1.18" fill="#803380"></path><path d="M-21.86,-144.03l-.18,.32q.74,.26 2.79-4.92q.32-.96 .39-2.13l-.2-.02q-.14,1.13 -.53,2.01q-1.95,5.04 -2.27,4.74" fill="#803380"></path><path d="M-21.14,-144.06l.06-.3q-.02,.07 -.21-.42l-.18,.06q.19,.56 .33,.66" fill="#803380"></path><path d="M-20.88,-144.35l-.14-.3q.12,.1 .02-.44l-.18,.04q.11,.63 .3,.7" fill="#803380"></path><path d="M-20.5,-144.72l-.34-.08q.16,.04 .09-.87l-.24,.04q.26,1.12 .49,.91" fill="#803380"></path><path d="M-20.63,-144.99l.22,.28q.01-.14 -.05-1.13l-.22,.02q.05,.96 .05,.83" fill="#803380"></path><path d="M-20.02,-145.13l-.12-.06q-.02,.08 .15,.07q-.12-.16 -.26-1.36l-.24,.02q.11,1.23 .18,1.48q.19,.05 .29-.15" fill="#803380"></path><path d="M-19.9,-145.48l.34-.08q-.26-1.05 -.37-1.39l-.24,.06q.05,.36 .27,1.41" fill="#803380"></path><path d="M-19.49,-145.71l.08-.36q-.01,.12 -.23-1.42l-.22,.02q.22,1.61 .37,1.76" fill="#803380"></path><path d="M-18.95,-146.46l-.24-.08q.22-.03 .01-1.84l-.24,.04q.25,1.92 .47,1.88" fill="#803380"></path><path d="M-19.02,-146.78l.32-.02q-.05-1.23 -.17-1.64q-.16-.47 -.25-.61l-.22,.06q.01,.17 .13,.65q.12,.36 .19,1.56" fill="#803380"></path><path d="M-19.12,-146.8l.2,.08q.1-.2 .14-.3q.14-2.21 .05-2.45q-.11-.18 -.17-.23l-.2,.1q0,.07 .07,.27q.09,.12 -.05,2.29q.03,.05 -.04,.24" fill="#803380"></path><path d="M-19.49,-146.07l.34,.02q.15-1.9 .21-2.66l-.22-.02q-.13,.75 -.33,2.66" fill="#803380"></path><path d="M-19.48,-147.29l.26-.02q-.2-1.05 -.4-.74q-.03,2.23 .14,1.92q-.15-1.78 -.26-1.6q.17,.63 .26,.83l.18-.04q-.01-.22 -.14-.87q-.26-.45 -.4,1.68q.18,.65 .56-1.9q-.16-.06 -.2,.74" fill="#803380"></path><path d="M-17.31,-145.72l-.18-.26q.06,.14 .29-1.63l-.2-.02q-.18,1.92 .09,1.91" fill="#803380"></path><path d="M-17.84,-145.76l.34,0q-.04-.23 .04-1.34l-.2-.02q-.13,1.11 -.18,1.36" fill="#803380"></path><path d="M-17.6,-145.71l.22-.14q-.08-.07 .08-1.08l-.2-.04q-.18,1.06 -.1,1.26" fill="#803380"></path><path d="M-15.59,-147.06l-.32-.1q-.47,2.07 -.25,1.82q-.01-.28 .51-1.88l-.14-.04q-.57,1.59 -.69,1.86q.03,.64 .89-1.66" fill="#803380"></path><path d="M-14.28,-144.77l.28,.22q.16-.23 .23-.57q.2-1.12 .04-.98q-.06-.04 -.11-.23q-.82,2.28 -.33,1.85q.1-.27 .45-2.12l-.18-.04q-.39,1.82 -.57,1.98q0,.32 .95-1.53q-.04-.21 -.23-.25q-.16,.14 -.36,1.26q-.04,.27 -.17,.41" fill="#803380"></path><path d="M-12.94,-144.25l.32-.12q-.19-.35 .08-1.95l-.2-.04q-.32,1.64 -.2,2.11" fill="#803380"></path><path d="M-12.6,-143.83l.2-.2q-.11-.13 -.11-.17q-.23-.32 -.31-1.77l-.18,0q.03,1.5 .19,1.93q.06,.07 .21,.21" fill="#803380"></path><path d="M-12,-144.03l-.12,.08q.12,.1 -.33-.11q-.54-.1 -.63-.45q-.17-.3 .18-1.54l-.2-.06q-.4,1.29 -.32,1.72q.2,.51 .89,.67q.75,.05 .53-.31" fill="#803380"></path><path d="M-7.39,-142.4L-7.73,-142.34Q-7.46,-141.83 -6.07,-145.83Q-6.06,-146.06 -6.16,-146.36L-6.32,-146.32Q-6.3,-146.07 -6.41,-145.93Q-7.51,-142.17 -7.39,-142.4" fill="#803380"></path><path d="M-6.12,-141.3L-6.3,-141.6Q-6.11,-141.53 -6,-141.6Q-4.57,-145.28 -4.44,-145.54Q-4.4,-145.71 -4.26,-145.9L-4.38,-146.02Q-4.6,-145.86 -4.74,-145.7Q-4.89,-145.41 -6.32,-141.72Q-6.39,-141.32 -6.12,-141.3" fill="#803380"></path><path d="M-3.69,-140.15L-3.53,-139.85Q-3.52,-139.97 -1.68,-144.64L-1.84,-144.7Q-3.69,-140.04 -3.69,-140.15" fill="#803380"></path><path d="M-1.99,-138.95L-2.31,-138.85Q-2.1,-138.72 -1.69,-139.5Q-1.17,-140.81 -.24,-143.66L-.4,-143.72Q-1.38,-140.89 -1.99,-139.64Q-2.19,-139.04 -1.99,-138.95" fill="#803380"></path><path d="M-.83,-138.03L-.57,-137.83Q-.44,-138.02 -.23,-138.52Q1.09,-141.86 1.48,-142.99L1.34,-143.05Q.85,-141.96 -.53,-138.64Q-.72,-138.17 -.83,-138.03" fill="#803380"></path><path d="M.56,-136.79L.86,-136.65Q2.48,-140.27 2.99,-141.49Q3.02,-141.67 3.01,-141.99L2.85,-142.01Q2.8,-141.72 2.71,-141.61Q2.19,-140.4 .56,-136.79" fill="#803380"></path><path d="M-17.52,-143.02l-.12-.3q-.17,.12 -.66,.17l.02,.2q.52-.01 .76-.07" fill="#803380"></path><path d="M-19.21,-139.02l0-.14q-.09,.06 -.12,.23q.68-.12 1.56-3.24q.09-.46 .28-.89l-.16-.08q-.27,.41 -.44,.87q-.84,3.01 -1.28,3q-.1,.18 .16,.25" fill="#803380"></path><path d="M-18.21,-138.85l.28,.12q.3-.65 .24-1.14q-.06-.17 -.12-.23l-.18,.04q-.04,.06 -.04,.25q.08,.38 -.18,.96" fill="#803380"></path><path d="M-18.16,-138.95l.3,.12q0-.14 .15-1.47l-.2-.02q-.17,1.31 -.25,1.37" fill="#803380"></path><path d="M-17.97,-138.56l.08-.1q-.39-.25 -.4-.01q.4,.2 .54,.1q-.15-.06 -.4-.24l-.12,.14q.21,.23 .32,.36q.33,.05 -.1-.6q-.11,.13 .08,.35" fill="#803380"></path><path d="M-18.1,-138.66l.3,.04q.19-2.24 -.07-1.71q-.03,.21 -.01,.28l.18,.04q.05-.06 .11-.26q-.08-.29 -.51,1.61" fill="#803380"></path><path d="M-18.03,-138.82l.26,.08q.18-.64 .26-1.44l-.22-.02q-.1,.78 -.3,1.38" fill="#803380"></path><path d="M-16.55,-138.11l.14-.04q-.11-.54 .04-1.63l-.18-.02q-.14,1.12 0,1.69" fill="#803380"></path><path d="M-16.92,-138.26l.28-.04q-.05-.38 -.01-.45q.1-.3 .12-.4l-.18-.08q-.06,.09 -.2,.36q-.06,.17 -.01,.61" fill="#803380"></path><path d="M-15.32,-137.83l.18,.2q.03-.08 .58-1.83l-.18-.06q-.56,1.73 -.58,1.69" fill="#803380"></path><path d="M-14.99,-137.45l.16-.2q-.09-.1 -.13-.14q-.26-.11 -.37-.12l-.08,.16q.06,.08 .29,.24q.03-.01 .13,.06" fill="#803380"></path><path d="M-13.23,-137.08l.1-.1q-.19-.24 -.11-.28q.02-.41 .27-1.16l-.18-.06q-.31,.74 -.41,1.18q.05,.17 .33,.42" fill="#803380"></path><path d="M-13.27,-137.14l.28-.1q-.11-.19 .05-1.29l-.18-.02q-.2,1.12 -.15,1.41" fill="#803380"></path><path d="M14.45,-121.22L15.33,-122.3Q11.75,-125.07 10.47,-125.88L9.93,-125.22Q11,-124.14 14.45,-121.22" fill="#ffff0080"></path><path d="M18.94,-130.06l1.08-1.34q-.76,.08 -7.83,1.85l.18,.74q6.97-1.62 6.57-1.25" fill="#ffff0080"></path><path d="M16.06,-159.68L15.84,-160.42Q14.61,-160.25 9.53,-159.4L9.79,-158.06Q14.87,-159.11 16.06,-159.68" fill="#ffff0080"></path><path d="M10,-168.44L9.32,-168.8Q8.68,-168.19 6.56,-164.35L7.98,-163.63Q9.87,-167.57 10,-168.44" fill="#ffff0080"></path><path d="M-24.97,-170.35l-1.12,.36q.17-.03 .24,5.09l.82,0q-.02-5.16 .06-5.45" fill="#ffff0080"></path><path d="M-30.55,-167.98l-.88,1.52q.85,.15 3.86,2.76l.62-.66q-2.89-2.87 -3.6-3.62" fill="#ffff0080"></path><path d="M-32.54,-160.81l1.34,1.28q-.33-.21 3.72-1.94l-.4-.98q-4.16,1.66 -4.66,1.64" fill="#ffff0080"></path><path d="M-32.26,-123.73l.7,.58q1.8-2.16 2.97-3.5l-.74-.64q-1.15,1.39 -2.93,3.56" fill="#ffff0080"></path><path d="M21.8,-182.7l-.2-.2q-1.2,.5 -1.3,.5q-3.4,2.2 -2.4,2.2q.4-.1 .5-.2l0-.2q-.2-.1 -.5,0q-.4,.3 2.6-1.4q0-.1 1.3-.7" fill="#803380"></path><path d="M25.6,-183.8l-.2-.2q-5,3.1 -6,3.7l.2,.4q1-.8 6-3.9" fill="#803380"></path><path d="M27,-183.4l-.2-.2q-2.6,1.8 -4.7,3l.2,.4q2.1-1.4 4.7-3.2" fill="#803380"></path><path d="M29.7,-183.6l-.2-.2q-.4,.1 -4.4,3l.2,.4q4.1-3 4.4-3.2" fill="#803380"></path><path d="M31.4,-183.3l-.2-.2q-1,.6 -3.9,2.9l.2,.4q2.9-2.4 3.9-3.1" fill="#803380"></path><path d="M33.1,-182.7l-.2-.2q-2.4,1.7 -3.2,2.2l.2,.4q.8-.7 3.2-2.4" fill="#803380"></path><path d="M36.2,-183l-.2-.2q-1.6,1 -3.7,2.9l.2,.2q2.1-1.8 3.7-2.9" fill="#803380"></path><path d="M39,-182.7l-.2-.2q-.3,.2 -4,2.1l.2,.4q3.7-2 4-2.3" fill="#803380"></path><path d="M41.7,-182.2l-.2-.2q-.2,.1 -.3,.1q-2.5,1.4 -3.7,1.7l0,.4q1.4-.3 3.9-1.7q.1-.1 .3-.3" fill="#803380"></path><path d="M44.5,-182.1l-.2-.2q-1.5,.9 -2,1q-.7,.5 -1.5,.7l0,.4q1-.2 1.7-.5q.5-.4 2-1.4" fill="#803380"></path><path d="M46.8,-181.7l-.2-.2q-2.1,1.1 -3.1,1.6l.2,.2q1-.4 3.1-1.6" fill="#803380"></path><path d="M48.7,-181.1l-.2-.2q-.9,.6 -.9,.4q-1.1,.5 -1.4,.7l.2,.4q.4-.1 1.4-.5q0-.2 .9-.8" fill="#803380"></path><path d="M22.1,-180.5l.4-.4q-1.5-1.4 -1.8-1.6q-.5-.3 -.7-.3l-.2,.2q.2,.2 .7,.5q.2,.1 1.6,1.6" fill="#803380"></path><path d="M25.4,-179.8l0-.6q-1.5-.2 -2.8-1.7q-.7-.8 -1.3-1.8l-.4,.2q.6,1.1 1.3,2q1.4,1.6 3.2,1.9" fill="#803380"></path><path d="M27.2,-179.9l0-.4q-.6-.1 -2.1-1.8q-.8-.8 -1.8-1.3l-.2,.4q.9,.5 1.6,1.3q1.6,1.8 2.5,1.8" fill="#803380"></path><path d="M28.6,-180.1l.4-.4q-.2-.2 -.2-.3q-1.8-1 -3.5-3l-.4,.2q1.7,2.2 3.5,3.4q.1-.1 .2,.1" fill="#803380"></path><path d="M30.9,-180.1l.2-.6q-.2,0 -1.1-.8q-1.9-1.3 -3.3-2.1l-.2,.4q1.3,.8 3.1,2.3q1,.7 1.3,.8" fill="#803380"></path><path d="M33.9,-180.4l.2-.4q-.9-.5 -1.1-.7q-2.4-1.5 -4-2.3l-.2,.4q1.5,.8 3.8,2.5q.3,.1 1.3,.5" fill="#803380"></path><path d="M37,-180.6l.2-.4q-4.2-2.3 -5.6-3.1l-.2,.4q1.4,.7 5.6,3.1" fill="#803380"></path><path d="M41.5,-180l.2-.4q-.7-.7 -1.1-.9q-3.1-1.2 -5.6-2.2l-.2,.4q2.5,1.1 5.6,2.4q.3,0 1.1,.7" fill="#803380"></path><path d="M45.8,-179.7l0-.6q-1-.1 -3.7-1.4q-1.3-.6 -3.6-1.2l-.2,.4q2.3,.7 3.6,1.4q2.7,1.3 3.9,1.4" fill="#803380"></path><path d="M49.4,-179.8l.2-.4q-2.1-1.2 -4.2-1.8q-1.3-.2 -3-.9l-.2,.4q1.8,.7 3,1.1q2.1,.5 4.2,1.6" fill="#803380"></path><path d="M50.4,-180l.2-.2q-.2-.3 -.3-.4q-1.5-.3 -3.3-.9l-.2,.4q1.9,.7 3.3,1.1q.1-.1 .3,0" fill="#803380"></path><path d="M6.6,-130.17L6.62,-130.29Q6.08,-130.39 5.89,-130.42Q5.14,-130.4 4.07,-130.25L4.09,-130.05Q5.16,-130.19 5.89,-130.2Q6.06,-130.23 6.6,-130.17" fill="#803380"></path><path d="M-20.7,63.6l0-.6q-2.4,.4 -13.8,.9l0,.6q11.5-.4 13.8-.9" fill="#803380"></path><path d="M-19.3,65.7l0-.6q-3.4-.4 -4.6-.5q-6.5-.1 -6.8-.1q-1.5-.6 -2.1-.7l-.2,.6q.4,.3 1.9,.9q.6,.3 7.2,.3q1.1-.1 4.6,.1" fill="#803380"></path><path d="M-9.7,64.8l0-.6q-2.1-.1 -20.8,.9l0,.6q18.7-1.1 20.8-.9" fill="#803380"></path><path d="M-8.1,66l0-.6q-4.3,.2 -4.3,0q-10.7,.1 -20-.5l0,.6q9.3,.8 20,.9q0-.2 4.3-.4" fill="#803380"></path><path d="M-16,65.1l0-.6q-11.6,.8 -15.5,.8q-3,.2 -5.7,0l0,.6q2.6,.4 5.7,.4q3.9-.3 15.5-1.2" fill="#803380"></path><path d="M-3.3,66.9l0-.6q-3-.3 -4-.3q-16.1,.4 -21.4,.4q-4,.1 -7.7-.3l0,.6q3.7,.4 7.7,.5q5.4,0 21.4-.4q1-.1 4,.1" fill="#803380"></path><path d="M14.3,66.5l0-.6q-2.4-.3 -3.2-.4q-6.5-.2 -29.8,1.1l0,.6q23.4-1.2 29.8-.9q.8,0 3.2,.2" fill="#803380"></path><path d="M33.3,65.2L33.3,64.6Q24.1,64 11.6,64.7Q-1.9,65.5 -8.5,65.5L-8.5,66.1Q-1.9,66.3 11.6,65.5Q24.1,64.7 33.3,65.2" fill="#803380"></path><path d="M62.4,65.1l0-.6q-15.9-.6 -25.6-.4q-8.1,.3 -24.1,1.8l0,.6q16.1-1.4 24.1-1.6q9.7-.4 25.6,.2" fill="#803380"></path><path d="M79.3,65.8l0-.6q-3.7-.4 -44.5,.2l0,.6q40.8-.7 44.5-.2" fill="#803380"></path><path d="M80.5,65.4l0-.6q-8.3-.2 -20.8,.2l0,.6q12.5-.4 20.8-.2" fill="#803380"></path><path d="M82.5,64.6l0-.6q-5.7-.3 -11.5,0l0,.6q5.8-.3 11.5,0" fill="#803380"></path><path d="M84,64.5l0-.6q-4.8,.2 -20.5,.6l0,.6q15.7-.4 20.5-.6" fill="#803380"></path><path d="M85.3,64.7l0-.6q-6.6-.2 -21.9,1.3l0,.6q15.3-1.5 21.9-1.3" fill="#803380"></path><path d="M87.5,66l0-.6q-5.9,.1 -7.9,0q-3.8-.1 -5.1-.1l0,.8q1.3,0 5.1,.1q2-.1 7.9-.2" fill="#803380"></path><path d="M85.4,66.9l0-.6q-.8,0 -7.3,.3l0,.6q6.6-.3 7.3-.3" fill="#803380"></path><path d="M85.7,64.3l0-.6q-4.3,0 -9.3-.2l0,.8q5,.1 9.3,0" fill="#803380"></path><path d="M85.3,63.3l0-.6q-4,0 -8.6,.3l0,.6q4.6-.3 8.6-.3" fill="#803380"></path><path d="M90.1,63.5l0-.6q-6.2-.1 -8.3-.1l0,.6q2.1,0 8.3,.1" fill="#803380"></path><path d="M89.9,65.2l0-.6q-3,.2 -9.7,.5l0,.6q6.7-.3 9.7-.5" fill="#803380"></path><path d="M83,64.8q0,.3 -.3,.3q-.3,0 -.3-.3q0-.3 .3-.3q.3,0 .3,.3" fill="#803380"></path></svg>