<svg viewBox="31.200000000000003 -167.9 75.40000000000002 36.86500000000001" width="75.40000000000002" height="36.86500000000001" version="1.1" baseProfile="full" xmlns="http://www.w3.org/2000/svg"><path d="M94.9,-156.3l0-.4q-.7-.1 -6.3,.1q-13.8,.7 -18.7,.8q-14.9,.2 -19.8,0q-9.3-.4 -12.4-.1q-4.7,.5 -5.1,.3q-1-.1 -1.4-.1l0,.4q.3,.2 1.2,.5q.6,.1 5.3-.3q3.1-.3 12.4,.1q4.9,.2 19.8,0q5-.1 18.7-.8q5.6-.4 6.3-.5" fill="#803380"></path><path d="M106.6,-166.4l0-.8q-19.3-.7 -25.7-.7q-20.4,0 -30.4,.9q-8.1,.7 -13.2,3.2q-3.5,1.9 -5.5,7.2q-.2,.6 0,1.2l.4,0q0-.6 .2-1q1.9-5 5.3-6.6q4.9-2.5 12.8-3.2q10-.9 30.4-.9q6.4,0 25.7,.7" fill="#803380"></path><path d="M106.4,-151.9l0-.4q-.3-.1 -.4-.2q-31.1,.8 -41.4,1.2q-12.9,.4 -17.2,.4q-7-.1 -9.3-.3q-3.3-.4 -4.4-.1q-.7,.3 -1.6,.3l0,.4q.9,.2 1.8,.1q1-.2 4.2,.1q2.3,.3 9.3,.3q4.3,.1 17.2-.4q10.4-.3 41.4-1.2q.1-.2 .4-.2" fill="#803380"></path><path d="M37.2,-138.4l.2,0q0-.7 .1-.9q-.4-2.2 -.5-7.2l-.2,0q-.1,5 .1,7.2q.1,.3 .3,.9" fill="#803380"></path><path d="M40.5,-139.5l.6-.4q-2.8-5.3 -3.9-7l-.2,.2q.8,1.8 3.5,7.2" fill="#803380"></path><path d="M41.6,-147.8l-.6,0q.1,1 -.1,1.3q-.1,1.5 -.1,6.3l.2,0q.3-4.8 .7-6.1q0-.4 -.1-1.5" fill="#803380"></path><path d="M42.6,-143.4l.4,.4q0-.1 0,.2q.9,1.2 .4,1.8q-1.2,1.7 -1,.1q0-2.2 -.2-2q.3,0 .5,0l0-.4q0-.1 -.3-.2q-.6,.1 -.6,2.6q.2,2.2 2,.3q.8-1 -.2-2.6q-.6-.6 -1-.2" fill="#803380"></path><path d="M50.5,-140.8l.8,0q0-.4 -.1-.5q-.5-4.3 -.7-5.7l-.4,0q.1,1.5 .5,5.7q0,.1 -.1,.5" fill="#803380"></path><path d="M50.5,-141l-.2,.8q1.3,.2 1.7-.1q1.6-1.4 .8-2.6q-1.4-1.5 -2.3-.6q-.4,.4 -.4,.6l.2,.2q.2,0 .6-.4q.5-.5 1.3,.6q.7,.6 -.6,1.6q-.1,.1 -1.1-.1" fill="#803380"></path><path d="M56.9,-143.3l.2-.4q-.5-.3 -.5-.5q-1.9-.3 -2.2,.9q0,2.9 .2,2.5q-.5-2.1 -.7-2.7l-.4,0q.1,.8 .5,2.9q.5,.9 1.2-2.7q-.1-.6 1.2-.1q0-.2 .5,.1" fill="#803380"></path><path d="M58.7,-143.1l.2-.2q-.1,0 -.4,.2q.5,.2 .5,.3q.5,.9 -.4,1.2q-1.1,.6 -.7-.6q.2-1.6 .2-1.3q.2-.1 .3,.3l.4,0q-.1-.6 -.3-.9q-.8-.2 -1.2,1.7q-.2,1.9 1.5,1.4q1.4-.6 .8-2.2q-.1-.3 -.7-.5q-.4,.2 -.2,.6" fill="#803380"></path><path d="M63.5,-144.7l-.8,.4q.7,1.5 .5,1.7q-.4,.7 -.2,.6q-.8-1.9 -1.3-1.3q-.2,.6 -.3,.7q-.4,1.3 -.5-.7q-.1-.4 -.2-.5l-.4,0q0,.2 0,.7q.6,2.4 1.7,.9q.1-.3 .3-.9q-.2-.1 .1,1.3q.4,.7 1.4-.4q.4-.6 -.3-2.5" fill="#803380"></path><path d="M65.1,-142l-.2-.4q-.5,.6 -.1,.9q1.8-.7 1-2q-1.1-1.3 -.7-1.3q.8-.7 .4-.1q-.2,.6 -.2,.8l.4,.2q.1-.2 .4-.8q.3-1.3 -1.4-.7q-.8,.6 .5,2.3q.7,.6 -.6,.8q.2,.3 .5,.3" fill="#803380"></path><path d="M69.3,-142.6l-.2-.2q-1,.6 -1.2,.4q-1.3-.3 -.5-1.2q.6-1.1 .5-.8q.4,.8 -.4,.9q-.2,.1 -.5-.1l-.2,.4q.4,.3 .9,.3q1.2-.4 .8-1.7q-.5-.9 -1.7,.6q-.8,1.5 .9,2.2q.5,0 1.6-.8" fill="#803380"></path><path d="M72.8,-145l-.2-.2q-.2,0 -.1-.1q-2.3-.5 -2.5,1q.3,1.7 .5,1.6q-.2-.2 -.6-1.3l-.2,0q.2,1.3 .2,1.5q.6,.6 .9-1.8q-.2-.9 1.5-.4q.2-.1 .5-.3" fill="#803380"></path><path d="M80,-142l.8,0q.1-5 .1-6.7l-.4,0q-.2,1.7 -.5,6.7" fill="#803380"></path><path d="M81.4,-144.7l0-.2q-1.9-.1 -2.6-.1l0,.4q.7,0 2.6-.1" fill="#803380"></path><path d="M82.5,-145.5l0,.8q1.1-.1 .4,.4q-.8,1 -.7,.7q-.5-.9 -.2-.9q.5-.4 .6-.5l-.2-.4q-.2,.1 -.8,.3q-.6,.5 0,1.9q.6,.7 1.9-.7q.8-1.2 -1-1.6" fill="#803380"></path><path d="M84.2,-144.9l.2,.2q.2-.1 .2,.1q.5-.1 .3,0q.1,1.4 -.4,1q-1-.3 -.4-.6q.5-.5 .6-.8l-.2-.2q-.3,0 -.8,.4q-.9,1 .4,1.8q1.3,.5 1.6-1.6q-.1-.6 -1.1-.8q-.2,.2 -.4,.5" fill="#803380"></path><path d="M86.1,-143.1l.6-.4q-.3-.6 -.2-2.5q.1-1.1 .2-2.5l-.4,0q-.3,1.3 -.4,2.5q-.2,2 .2,2.9" fill="#803380"></path><path d="M87.5,-143.5l.8,0q-.1-3.3 -.2-4.7l-.4,0q0,1.4 -.2,4.7" fill="#803380"></path><path d="M88.1,-143.7l-.6,0q.1,.8 .5,1q1.5-.6 1.6-1.2q-.4-2.1 -1.8-1.4q-.4,.4 -.5,.6l.2,.2q.2,0 .7-.2q.7-.7 .6,.8q.2,.1 -1,.4q.2,.3 .3-.2" fill="#803380"></path><path d="M92.7,-144l-.2-.2q-.1,0 -.1-.1q-.7,.3 -.4,.2q-.2-1.4 -.7-1.1q-.2,.6 -.6,.7q-1,.7 -.6,.3q.6-1.7 .7-1.2q.4,.4 .6,.5l.2-.2q0-.2 -.2-.7q-.8-.8 -1.9,1.4q-.3,1.2 1.6,.5q.5-.2 .8-.9q-.3-.1 -.7,.7q.2,.6 1.4,.4q.1-.2 .1-.3" fill="#803380"></path><path d="M94.9,-146.2l.6-.2q-.2-.5 -.5-.7q-1.3,.1 -1.6,.7q-.1,2.2 .2,2.1q-.1-.3 0-1.4l-.4,0q-.1,1.1 -.2,1.4q.3,.9 1.2-1.9q-.1-.2 .8-.1q-.1-.2 -.1,.1" fill="#803380"></path><path d="M96.5,-145.5l.2,0q.1-1 .3-1.3q0-.8 -.3-1.9l-.4,0q.1,1.1 -.1,1.9q.1,.3 .3,1.3" fill="#803380"></path><path d="M96.6,-144.2q0,.2 -.2,.2q-.2,0 -.2-.2q0-.2 .2-.2q.2,0 .2,.2" fill="#803380"></path><path d="M70.57,-152.68l-.32,.02q.03,.23 .2,.34q.87,.01 1.08-.47q.26-.9 -.29-.97q-.17,.13 -.24,.35q.58-.26 .57-.56q-.32-.84 -.85-.36q-.12,.19 -.13,.28l.14,.12q.09-.03 .25-.18q.18-.37 .25,.24q.07-.02 -.37,.14q-.12,.23 .4,.33q.22-.11 -.07,.49q-.05,.25 -.72,.19q.09,.1 .1,.04" fill="#803380"></path><path d="M72.08,-154.02q0,.13 -.13,.13q-.13,0 -.13-.13q0-.13 .13-.13q.13,0 .13,.13" fill="#803380"></path><path d="M71.89,-152.86l.02,.14q.11-.01 .15-.01l-.02-.16q-.04,.01 -.15,.03" fill="#803380"></path><path d="M73.48,-153.58l-.18-.34q-.62,.42 -.48,.27q-.03-.23 -.06-.91l-.22,0q-.03,.67 -.1,.87q.08,.55 1.04,.11" fill="#803380"></path><path d="M73.43,-152.41l-.14,.04q.12,.22 .29,.07q-.11-.23 .01-2.08l-.18-.02q-.18,1.87 -.21,2.16q.18-.09 .23-.17" fill="#803380"></path><path d="M73.08,-152.2l.36,.02q-.02-.79 .15-2.51l-.14-.02q-.26,1.72 -.37,2.51" fill="#803380"></path><path d="M74.95,-153.84l-.08,.14q.03,.01 .01-.02q.08,.58 -.11,.85q-.28,.44 -.45,.43q-.51,0 -.41,.16q.51,0 .63-.03q1.2-.36 .48-1.45q-.38-.52 -.64-.41q-.18,.12 -.12,.14q.02-.45 .05-.45q.07-.08 .69-.13l0-.08q-.64,.03 -.77,.07q-.11,.09 -.13,.59q.05,.14 .36,0q.11-.09 .42,.37q.71,.93 -.38,1.19q-.1,.03 -.59,.03q-.11,.16 .41,.16q.26-.01 .59-.49q.22-.34 .13-.97q-.02-.06 -.09-.1" fill="#803380"></path><path d="M74.87,-152.74l.06,.14q.04-.07 .23-.83l-.08-.02q-.19,.75 -.21,.71" fill="#803380"></path><path d="M74.86,-152.66l.06,.08q.14-.14 .25-.54l-.08-.02q-.11,.38 -.23,.48" fill="#803380"></path><path d="M75.14,-153.12l-.06,0q-.03,.27 .07,.24q.07-.19 .01-.25q-.46,.81 -.35,.72q.02-.09 .26-.48l-.08-.04q-.25,.38 -.3,.46q-.05,.28 .59-.58q0-.14 -.23,.09q.04,.05 .09-.16" fill="#803380"></path><path d="M74.26,-154.15l.14,.02q0-.11 .09-.41l-.08-.02q-.11,.3 -.15,.41" fill="#803380"></path><path d="M74.38,-154.31l-.14-.04q-.02,.24 .05,.25q.01-.21 .02-.2q.03-.05 .04-.08l-.06-.06q-.02,0 -.08,.02q-.05,.07 -.06,.32q.06,.13 .23-.21" fill="#803380"></path><path d="M77.78,-152.34l.24-.1q-.48-1.23 -.64-1.65q-.24-.6 -.39-.64q-.08,.11 -.84,2.54l.12,.04q.77-2.41 .8-2.34q-.13-.05 .07,.5q.16,.41 .64,1.65" fill="#803380"></path><path d="M77.53,-153.09l0-.28q-.73,.05 -.97,.1l0,.14q.25,.04 .97,.04" fill="#803380"></path><path d="M81.18,-152.07l.08-.24q.01,.03 -.08-.26q-.56-1.65 -.78-2q-.27-.21 -.54,1.45q.07,.31 -.05-.21q-.59-1.37 -.78-1.34q-.01,.11 -.62,2.19l.12,.04q.62-2.07 .68-2.05q-.15-.01 .36,1.26q.38,.67 .55,.15q.12-1.47 .06-1.35q.2,.31 .76,1.94q.13,.36 .24,.42" fill="#803380"></path><path d="M35.47,-151.91l-.18-.52q.08,.21 -.01-.71l-.26,.02q.1,1.09 .45,1.21" fill="#803380"></path><path d="M35.67,-152.23l.58-.02q-.11-1.62 -.23-2.16l-.2,0q-.12,.55 -.15,2.18" fill="#803380"></path><path d="M34.69,-152.5q0,.16 -.16,.16q-.16,0 -.16-.16q0-.16 .16-.16q.16,0 .16,.16" fill="#803380"></path><path d="M39.11,-152.3l-.22-.52q-.72,.35 -.61,.32q-.18-.09 .02-1.58l-.26-.04q-.28,1.55 -.22,1.88q.3,.31 1.29-.06" fill="#803380"></path><path d="M39.83,-152.29l.22-.48q0,.19 -.05-1.17l-.28,0q.03,1.42 .11,1.65" fill="#803380"></path><path d="M40.64,-153.56l.3-.48q-.21,.02 -1.93-.02l-.02,.28q1.7,.1 1.65,.22" fill="#803380"></path><path d="M42.21,-152.46l-.1-.42q-.88,.22 -.68,.26q-.15-.13 .12-1.4l-.26-.06q-.36,1.29 -.42,1.58q.25,.27 1.34,.04" fill="#803380"></path><path d="M42.22,-154.11l-.08-.32q-.66,.15 -.88,.22l.06,.26q.22-.02 .9-.16" fill="#803380"></path><path d="M41.93,-153.26l.24-.46q-.2,.01 -.9,.11l.02,.28q.66-.03 .64,.07" fill="#803380"></path><path d="M99.6,-147.63l.54-.84q.09,.44 .4,.37q1.34-1.16 .96-1.22q.77,2.39 1.2,2.16q-1.13-2.84 -1.64-1.88q-.13,1.42 -.31,1.75q-1.18,2.4 -1.36,1.95q-.6-.44 -.87-.52l-.3,.34q.11,.25 .63,.8q1.06,.64 2.68-2.15q.28-.53 .43-2.09q-.42-.09 -.18,2.06q.74,.91 .7-2.56q-.48-.79 -2.54,.56q-.69,.67 -.34,1.27" fill="#803380"></path><path d="M31.7,-155.8l.8,.2q-.1-.4 3-5.9l-.4-.2q-3.2,5.4 -3.4,5.9" fill="#803380"></path><path d="M32.6,-156l.6,.6q.1-.4 3.4-6.6l-.4-.2q-3.3,6.1 -3.6,6.2" fill="#803380"></path><path d="M33.9,-155l.2-.8q-.6,.2 2-3.3q1.3-2 1.6-2.7l-.4-.4q-.6,.6 -2,2.5q-2.7,4.2 -1.4,4.7" fill="#803380"></path><path d="M34.1,-155.4l.8,.2q.2-.5 .2-.5q.9-1.9 2.4-4.2l-.4-.4q-1.7,2.3 -2.8,4.2q0,.1 -.2,.7" fill="#803380"></path><path d="M35.4,-155.9l1,0q-.1-.5 1.4-3l-.4-.4q-1.8,2.6 -2,3.4" fill="#803380"></path><path d="M36.5,-156.3l1,0q-.3-.2 .7-2.2l-.4-.2q-1.1,2 -1.3,2.4" fill="#803380"></path><path d="M37.5,-155.9l.8-.6q-.2,.2 .7-1.5l-.6-.2q-.9,1.8 -.9,2.3" fill="#803380"></path><path d="M38.4,-155.7l.8-.6q-.2,.1 .2-1.2l-.6-.2q-.5,1.5 -.4,2" fill="#803380"></path><path d="M40.2,-156.1l-.8-.4q.3,.1 .7,.6q0-.7 -.1-1l-.6,0q-.1,.2 -.3,.8q.4,.6 1.1,0" fill="#803380"></path><path d="M74.6,-163.3l0,.8q.4,.1 .7,.2q4.6-1.5 9.8,.4q4.1,1 2.2,1.1q-6.1,1.9 -14.1,.6q-3.5-.2 -.7-1.1q1.3-.9 3.4-1.3l0-.6q-2.4,.1 -4,.7q-3.5,2.4 1.1,3.5q8.3,1.4 14.7-.6q2.8-1.4 -2.2-3.5q-5.6-1.9 -10.6-.4q.1,.1 -.3,.2" fill="#803380"></path><path d="M72.8,-160.2l.4,.2q.3-.3 2.7-2.8l-.6-.4q-2.3,2.5 -2.5,3" fill="#803380"></path><path d="M74.9,-160.5l.4,.4q1.6-1.5 2.9-2.6l-.6-.6q-1.2,1.2 -2.7,2.8" fill="#803380"></path><path d="M76.9,-160.1l.6,.6q1.3-1.3 3.2-3.4l-.6-.6q-1.9,2.1 -3.2,3.4" fill="#803380"></path><path d="M78.7,-159.7l.4,.2q.4-.5 3.3-3.2l-.6-.6q-2.8,2.8 -3.1,3.6" fill="#803380"></path><path d="M81.6,-160.2l.8,.8q.8-.9 2.2-3l-.6-.4q-1.5,1.9 -2.4,2.6" fill="#803380"></path><path d="M75.6,-159.6l.4-.4q-1.3-1 -3.4-1.9l-.2,.6q2,.8 3.2,1.7" fill="#803380"></path><path d="M77.9,-159.8l.4-.4q-.7-.7 -4-2.3l-.4,.8q3.3,1.4 4,1.9" fill="#803380"></path><path d="M81.7,-159.5l.2-.4q-.2-.3 -.3-.5q-1.2-.4 -4.8-2.8l-.4,.6q3.5,2.5 4.8,3.2q.1-.1 .5-.1" fill="#803380"></path><path d="M83.6,-159.8l.2-.4q-.7-.7 -4.2-3.1l-.4,.6q3.4,2.4 4.4,2.9" fill="#803380"></path><path d="M86.4,-159.7l.4-.4q-.8-.6 -.7-.9q-1.7-.9 -3.5-2.4l-.6,.8q1.8,1.6 3.5,2.6q.1-.3 .9,.3" fill="#803380"></path><path d="M33.6,-131.145l.2,.11q.3-.165 .4-.33q-.4-.935 -.2-2.585q.2-7.975 -.6-10.67q-.6-2.42 -.5-3.19q.6-2.42 .2-3.245q-.5-.935 -.8-5.775l-.4,0q.1,4.84 .4,5.885q.3,.715 -.2,3.025q-.2,.88 .5,3.41q.7,2.585 .4,10.56q.1,1.65 .6,2.695q.1-.055 0,.11" fill="#803380"></path><path d="M32.62,-149.07l.26,.22q.32-.35 .94-.67l-.2-.36q-.66,.38 -1,.81" fill="#803380"></path><path d="M32.11,-148.07l.68,.1q-.12-.1 1.38-.82l-.2-.44q-1.66,.75 -1.86,1.16" fill="#803380"></path><path d="M32.45,-147.06l.5,.4q.09-.21 1.8-1.2l-.24-.44q-1.79,.99 -2.06,1.24" fill="#803380"></path><path d="M32.99,-145.92l.34,.08q.08-.11 .16-.02q.3-.46 1.51-1.19l-.24-.42q-1.31,.7 -1.79,1.17q.01,.17 .02,.38" fill="#803380"></path><path d="M33.05,-144.95l.6,.14q-.03-.28 1.39-1.04l-.22-.42q-1.56,.82 -1.77,1.32" fill="#803380"></path><path d="M33.43,-144.01l.3,.14q.16-.2 .29-.19q.11-.28 1.31-1.08l-.26-.42q-1.3,.79 -1.61,1.12q.03,.15 -.03,.43" fill="#803380"></path><path d="M33.23,-142.58l.58,.08q-.03-.33 1.61-1.5l-.28-.38q-1.75,1.23 -1.91,1.8" fill="#803380"></path><path d="M33.52,-141.44l.34,.04q.08-.17 .17-.08q.57-.72 1.41-1.33l-.28-.42q-.95,.58 -1.65,1.31q0,.2 .01,.48" fill="#803380"></path><path d="M33.5,-140.1l.62,.24q.1-.47 1.47-1.54l-.3-.38q-1.48,1.09 -1.79,1.68" fill="#803380"></path><path d="M33.55,-138.47l.42,.14q.13-.26 .24-.27q.31-.64 1.63-1.49l-.26-.42q-1.45,.84 -1.97,1.55q0,.16 -.06,.49" fill="#803380"></path><path d="M33.51,-136.93l.62,.08q-.03-.36 1.78-1.84l-.3-.38q-1.93,1.53 -2.1,2.14" fill="#803380"></path><path d="M33.5,-135.16l.62-.04q-.13-.41 1.76-1.98l-.32-.4q-2.02,1.68 -2.06,2.42" fill="#803380"></path><path d="M33.76,-134.06l.34-.02q.04-.17 .14-.09q.48-.94 2.07-2.09l-.28-.42q-1.72,1.16 -2.37,2.17q.03,.19 .1,.45" fill="#803380"></path><path d="M33.81,-132.74l.34-.04q.04-.16 .15-.1q.17-.63 1.84-2.08l-.3-.36q-1.79,1.46 -2.18,2.16q.06,.18 .15,.42" fill="#803380"></path><path d="M34.43,-131.96l.62-.16q-.14-.08 .7-1l-.34-.32q-.97,1.03 -.98,1.48" fill="#803380"></path><path d="M31.8,-145l1.2,0q-.2-.5 -.7-10.7l-.8,0q.5,10.3 .3,10.7" fill="#803380"></path><path d="M32.7,-135.5l.8,0q.1-5.4 -.5-12.7q-.5-4.1 -.7-5.5l-.8,0q0,1.4 .3,5.7q.8,7.2 .9,12.5" fill="#803380"></path><path d="M33.2,-132.5l.6,0q-.9-10.1 -1.2-13.4l-.8,0q.4,3.4 1.4,13.4" fill="#803380"></path></svg>